<svg xmlns="http://www.w3.org/2000/svg" width="367" height="272" viewBox="0 0 367 272">
  <defs>
    <linearGradient id="startup-life-a" x1="49.997%" x2="49.997%" y1="100.01%" y2="-.004%">
      <stop offset="0%" stop-color="gray" stop-opacity=".25"/>
      <stop offset="54%" stop-color="gray" stop-opacity=".12"/>
      <stop offset="100%" stop-color="gray" stop-opacity=".1"/>
    </linearGradient>
  </defs>
  <g fill="none" fillRule="evenodd">
    <path fill="#179A6F" fillRule="nonzero" d="M161.889419,10.260825 C147.373943,4.35984613 132.038514,-0.566417464 116.383666,0.0526584416 C93.3657039,0.958221602 71.2895356,14.8051056 60.4523235,35.1325288 C51.2681896,52.3546936 50.135403,72.5405197 46.1805285,91.6528418 C41.3003255,115.20407 31.9680073,137.576419 21.9968501,159.461411 C16.6424573,171.217267 10.9916958,183.226681 10.115762,196.115315 C8.8940647,214.002657 17.4459455,231.830726 30.8615645,243.731472 C44.2771835,255.632219 62.0856438,261.911888 79.9632569,263.281758 C89.4766892,264.009501 99.4182095,263.334445 107.871301,258.905418 C116.808461,254.222833 123.32857,245.756641 132.301953,241.139915 C140.620032,236.859071 150.350801,236.25646 159.689705,236.816263 C171.920703,237.550452 183.97278,240.112247 195.444931,244.416407 C208.498322,249.31962 220.636263,256.415943 233.660017,261.388308 C246.683771,266.360673 261.235469,269.130049 274.549006,264.984217 C287.042589,261.088648 296.941301,251.627983 305.832359,242.045478 C320.462319,226.313446 333.805552,209.432201 345.733452,191.564448 C353.771628,179.525398 361.253289,166.82117 364.809712,152.786587 C371.603139,125.955574 362.251063,95.6834211 341.508553,77.3778734 C324.332346,62.187463 301.268282,55.6015492 278.69158,51.5907276 C258.103841,47.9454243 234.298856,47.7182102 215.34773,38.2147365 C197.275831,29.152519 180.830666,17.9663442 161.889419,10.260825 Z" opacity=".1"/>
    <polygon fill="#464A5F" fillRule="nonzero" points="308.154 190.415 308.738 191 309 189.993 308.72 189 308 189"/>
    <polygon fill="#000" fillRule="nonzero" points="308.154 190.415 308.738 191 309 189.993 308.72 189 308 189" opacity=".1"/>
    <polygon fill="#9C9CA1" fillRule="nonzero" points="308.145 190 309 190.953 308.145 192 307.227 191.642 307 191.179"/>
    <polygon fill="#000" fillRule="nonzero" points="308.145 190 309 190.953 308.145 192 307.227 191.642 307 191.179" opacity=".1"/>
    <path fill="#9C9CA1" fillRule="nonzero" d="M207.189654,90 L146.702758,150.168398 C144.438882,152.420655 144.431489,156.069691 146.686221,158.331007 L239.401042,251.291313 C241.658297,253.552765 245.329221,253.571891 247.610167,251.334083 L309,191.142655 L207.189654,90 Z"/>
    <path fill="#000" fillRule="nonzero" d="M207.189654,90 L146.702758,150.168398 C144.438882,152.420655 144.431489,156.069691 146.686221,158.331007 L239.401042,251.291313 C241.658297,253.552765 245.329221,253.571891 247.610167,251.334083 L309,191.142655 L207.189654,90 Z" opacity=".1"/>
    <path fill="#DDDCDC" fillRule="nonzero" d="M207.189654,88 L146.702758,148.168998 C144.438882,150.421278 144.431489,154.070351 146.686221,156.331689 L239.401042,249.289633 C241.657383,251.552023 245.328313,251.572621 247.610167,249.335694 L309,189.127215 L207.189654,88 Z"/>
    <path fill="#464A5F" fillRule="nonzero" d="M212.513021,47.0625981 L207,88.9295303 L308.133388,190 L313.942102,147.442628 C314.20855,145.512095 313.545585,143.56935 312.154806,142.205152 L214.576298,46.3458562 C214.244916,46.0236832 213.760315,45.9160456 213.323845,46.0676667 C212.887375,46.2192877 212.57365,46.6042483 212.513021,47.0625981 Z"/>
    <path fill="#000" fillRule="nonzero" d="M212.513021,47.0625981 L207,88.9295303 L308.133388,190 L313.942102,147.442628 C314.20855,145.512095 313.545585,143.56935 312.154806,142.205152 L214.576298,46.3458562 C214.244916,46.0236832 213.760315,45.9160456 213.323845,46.0676667 C212.887375,46.2192877 212.57365,46.6042483 212.513021,47.0625981 Z" opacity=".1"/>
    <path fill="#464A5F" fillRule="nonzero" d="M211.513021,47.0625981 L206,88.9295303 L307.133388,190 L312.942102,147.442628 C313.20855,145.512095 312.545585,143.56935 311.154806,142.205152 L213.576298,46.3458562 C213.244916,46.0236832 212.760315,45.9160456 212.323845,46.0676667 C211.887375,46.2192877 211.57365,46.6042483 211.513021,47.0625981 Z"/>
    <g fill="#000" fillRule="nonzero" opacity=".1" transform="translate(181 107)">
      <path d="M25.3663746.668489426L21.7012085 4.3665861C21.482418 4.58469114 21.359445 4.88091677 21.359445 5.18984894 21.359445 5.49878112 21.482418 5.79500674 21.7012085 6.01311178L25.4157704 9.82317221C25.8616484 10.2862646 26.5982583 10.3009968 27.0622961 9.85610272L30.710997 6.411571C31.1726344 5.97559879 31.1990248 5.24986061 30.7702719 4.78151057L27.05571.717885196C26.8430051.479106305 26.5413292.338496302 26.2216867.329150028 25.9020441.319803755 25.5926678.442546737 25.3663746.668489426zM32.1961631 7.501571L28.5441692 11.1963746C28.0993865 11.6487046 28.0993865 12.374105 28.5441692 12.826435L32.2587311 16.6364955C32.4724287 16.8597047 32.7662055 16.988642 33.0751568 16.994821 33.384108 17.0010001 33.6828053 16.8839122 33.9052568 16.669426L37.5539577 13.2281873C38.0228342 12.7888918 38.049307 12.0535354 37.6132326 11.5816616L33.8854985 7.52791541C33.669569 7.29222578 33.3661149 7.15585209 33.0465053 7.15086793 32.7268957 7.14588376 32.4193368 7.27272898 32.1961631 7.501571zM39.368429 14.6705438L35.716435 18.3686405C35.2734111 18.8216889 35.2734111 19.5456525 35.716435 19.9987009L39.43429 23.8087613C39.8801681 24.2718537 40.6167779 24.2865859 41.0808157 23.8416918L44.7295166 20.3971601C45.191154 19.9611879 45.2175445 19.2354497 44.7887915 18.7670997L41.0742296 14.7034743C40.8588504 14.4616028 40.5523315 14.3205491 40.2285245 14.314298 39.9047175 14.3080469 39.592983 14.4371652 39.368429 14.6705438zM46.6197281 21.925136L42.9710272 25.6396979C42.5280032 26.0927463 42.5280032 26.8167099 42.9710272 27.2697583L46.6888822 31.0798187C47.1347602 31.5429111 47.8713701 31.5576433 48.3354079 31.1127492L51.9808157 27.6682175C52.4451636 27.2339643 52.4730778 26.5067271 52.0433837 26.0381571L48.3090634 21.9580665C48.0935512 21.7223663 47.7907744 21.5854074 47.4714605 21.579183 47.1521465 21.5729586 46.8442622 21.6980137 46.6197281 21.925136zM53.8743202 29.1797281L50.2256193 32.8844109C49.7717543 33.3394218 49.7717543 34.0759256 50.2256193 34.5309366L53.9434743 38.340997C54.3893524 38.8040894 55.1259622 38.8188216 55.59 38.3739275L59.2354079 34.9293958C59.6997558 34.4951426 59.7276699 33.7679053 59.2979758 33.2993353L55.5834139 29.23571C55.3707162 28.9905806 55.0654589 28.8452156 54.741089 28.8345907 54.4167191 28.8239659 54.1026033 28.9490432 53.8743202 29.1797281zM61.5866465 35.97L57.0521148 40.5638066C56.8446237 40.776205 56.8446237 41.1153962 57.0521148 41.3277946L61.619577 46.0072205C61.8319754 46.2147117 62.1711666 46.2147117 62.383565 46.0072205L66.9180967 41.7262538C67.1348247 41.5218713 67.1465757 41.1810919 66.9444411 40.9622659L62.3802719 35.97C62.2770395 35.8610481 62.1335507 35.799335 61.9834592 35.799335 61.8333678 35.799335 61.6898789 35.8610481 61.5866465 35.97zM68.8412387 43.2245921L64.3067069 47.834864C64.0996116 48.0461435 64.0996116 48.3842794 64.3067069 48.5955589L68.8741692 53.2782779C69.0865675 53.4857691 69.4257588 53.4857691 69.6381571 53.2782779L74.1726888 48.9973112C74.3894168 48.7929287 74.4011679 48.4521493 74.1990332 48.2333233L69.634864 43.2410574C69.53391 43.1299328 69.3916955 43.0652205 69.2415932 43.0621064 69.091491 43.0589922 68.9467148 43.1177503 68.8412387 43.2245921zM75.2626888 49.6460423L70.7281571 54.2563142C70.5210618 54.4675937 70.5210618 54.8057296 70.7281571 55.0170091L75.2956193 59.6997281C75.5080177 59.9072192 75.8472089 59.9072192 76.0596073 59.6997281L80.594139 55.4187613C80.810867 55.2143789 80.822618 54.8735994 80.6204834 54.6547734L76.0530211 49.6789728C75.9544565 49.5666537 75.8142074 49.4995815 75.6649028 49.4933604 75.5155982 49.4871394 75.3702555 49.542312 75.2626888 49.6460423zM82.454713 56.8380665L77.9201813 61.4285801C77.7109249 61.6402562 77.7109249 61.9808918 77.9201813 62.192568L82.4876435 66.871994C82.6993196 67.0812503 83.0399553 67.0812503 83.2516314 66.871994L87.7861631 62.5910272C88.0011484 62.38586 88.0128495 62.0465281 87.8125076 61.8270393L83.2483384 56.8347734C83.1446546 56.7262486 83.0009094 56.66513 82.8508175 56.6657528 82.7007256 56.6663756 82.5574926 56.7286849 82.454713 56.8380665zM89.4195166 63.8028701L84.8849849 68.3933837C84.6757285 68.6050598 84.6757285 68.9456955 84.8849849 69.1573716L89.4524471 73.8400906C89.6648455 74.0475818 90.0040367 74.0475818 90.216435 73.8400906L94.7509668 69.5591239C94.965952 69.3539566 94.9776531 69.0146248 94.7773112 68.795136L90.1966767 63.8193353C90.0962147 63.7133583 89.9575272 63.6519816 89.8115334 63.6488885 89.6655396 63.6457954 89.5243771 63.7012431 89.4195166 63.8028701zM96.3843202 70.7545015L91.8432024 75.3647734C91.6361071 75.5760529 91.6361071 75.9141888 91.8432024 76.1254683L96.4106647 80.8081873C96.623063 81.0156784 96.9622542 81.0156784 97.1746526 80.8081873L101.709184 76.5272205C101.925912 76.3228381 101.937663 75.9820586 101.735529 75.7632326L97.1713595 70.7709668C97.0705832 70.6619245 96.929786 70.5985673 96.7813393 70.5954617 96.6328926 70.5923561 96.4895689 70.6497694 96.3843202 70.7545015zM103.349124 77.7324773L98.8145921 82.326284C98.607101 82.5386823 98.607101 82.8778736 98.8145921 83.0902719L103.368882 87.7696979C103.57678 87.9818333 103.916026 87.9891447 104.13287 87.7861631L108.667402 83.5051964C108.88413 83.3008139 108.895881 82.9600345 108.693746 82.7412085L104.129577 77.7489426C104.029004 77.6419515 103.889615 77.5799214 103.742808 77.5768242 103.596 77.573727 103.45412 77.6298231 103.349124 77.7324773zM18.7374622 7.30069486L15.0887613 10.9954985C14.8699708 11.2136035 14.7469978 11.5098292 14.7469978 11.8187613 14.7469978 12.1276935 14.8699708 12.4239191 15.0887613 12.6420242L18.8066163 16.4520846C19.0203139 16.6752938 19.3140907 16.8042311 19.6230419 16.8104102 19.9319932 16.8165892 20.2306905 16.6995014 20.453142 16.4850151L24.0985498 13.0437764C24.5701609 12.6062215 24.5981626 11.8693347 24.1611178 11.3972508L20.4235045 7.33033233C20.2076236 7.09611685 19.9053043 6.96044042 19.5868233 6.95484212 19.2683423 6.94924383 18.9614414 7.0742113 18.7374622 7.30069486zM4.24803625 21.7868278L.596042296 25.4816314C.142177287 25.9366424.142177287 26.6731462.596042296 27.1281571L4.31060423 30.9085801C4.75298371 31.3635672 5.47851021 31.37969 5.94066465 30.9448036L9.58936556 27.5002719C10.0527548 27.0650944 10.0791984 26.3378962 9.64864048 25.8702115L5.93407855 21.8197583C5.71914971 21.5842413 5.41691614 21.447346 5.0981311 21.4411197 4.77934606 21.4348934 4.47199755 21.5598829 4.24803625 21.7868278zM25.5672508 14.1304834L21.9152568 17.825287C21.6964663 18.0433921 21.5734933 18.3396177 21.5734933 18.6485498 21.5734933 18.957482 21.6964663 19.2537076 21.9152568 19.4718127L25.6298187 23.2818731C26.0747771 23.7459021 26.8114092 23.762108 27.2763444 23.3180967L30.9217523 19.8570997C31.3906288 19.4178042 31.4171016 18.6824477 30.9810272 18.210574L27.2664653 14.1502417C27.0498903 13.9113507 26.7435954 13.7734674 26.4211678 13.7697182 26.0987402 13.765969 25.789322 13.8966929 25.5672508 14.1304834zM32.7362236 21.3027492L29.0875227 24.9975529C28.64274 25.4498829 28.64274 26.1752833 29.0875227 26.6276133L32.8053776 30.4376737C33.0190753 30.6608829 33.3128521 30.7898203 33.6218033 30.7959993 33.9307545 30.8021783 34.2294518 30.6850905 34.4519033 30.4706042L38.0973112 27.0293656C38.5689222 26.5918106 38.5969239 25.8549238 38.1598792 25.3828399L34.4453172 21.3192145C34.2270293 21.0793393 33.9186771 20.9412466 33.5943625 20.9381222 33.2700479 20.9349978 32.9590924 21.0671242 32.7362236 21.3027492zM39.9908157 28.5540483L36.3421148 32.252145C35.8973321 32.704475 35.8973321 33.4298754 36.3421148 33.8822054L40.0599698 37.6922659C40.502495 38.1480745 41.2294571 38.1627606 41.6900302 37.7251964L45.3387311 34.2839577C45.8103422 33.8464027 45.8383439 33.1095159 45.4012991 32.637432L41.6801511 28.6034441C41.466434 28.3663818 41.1650808 28.2270111 40.8460408 28.2176824 40.5270008 28.2083538 40.2180191 28.3298784 39.9908157 28.5540483zM11.3116314 28.3861027L7.65963746 32.0809063C7.21485477 32.5332364 7.21485477 33.2586367 7.65963746 33.7109668L11.3741994 37.5210272C11.587897 37.7442364 11.8816738 37.8731737 12.190625 37.8793528 12.4995762 37.8855318 12.7982735 37.7684439 13.0207251 37.5539577L16.669426 34.112719C17.1383025 33.6734235 17.1647753 32.9380671 16.7287009 32.4661934L13.014139 28.405861C12.7974936 28.165897 12.4904779 28.0273114 12.1672073 28.0235597 11.8439367 28.019808 11.5337874 28.1512311 11.3116314 28.3861027zM18.4806042 35.5550755L14.8319033 39.2531722C14.6131128 39.4712772 14.4901398 39.7675029 14.4901398 40.076435 14.4901398 40.3853672 14.6131128 40.6815928 14.8319033 40.8996979L18.5497583 44.7097583C18.7634559 44.9329675 19.0572327 45.0619049 19.3661839 45.0680839 19.6751352 45.0742629 19.9738324 44.9571751 20.196284 44.7426888L23.8416918 41.3014502C24.3133029 40.8638952 24.3413046 40.1270084 23.9042598 39.6549245L20.1896979 35.5912991C19.9741917 35.3488175 19.6673904 35.2071041 19.3430557 35.20023 19.018721 35.1933558 18.7061909 35.3219427 18.4806042 35.5550755zM25.7351964 42.8096677L22.0864955 46.5077644C21.6417128 46.9600944 21.6417128 47.6854948 22.0864955 48.1378248L25.8043505 51.9478852C26.2502285 52.4109776 26.9868384 52.4257098 27.4508761 51.9808157L31.096284 48.536284C31.5606319 48.1020308 31.588546 47.3747935 31.158852 46.9062236L27.44429 42.8425982C27.2283184 42.6005539 26.9212592 42.4594461 26.5969289 42.453197 26.2725986 42.4469478 25.9603316 42.5761225 25.7351964 42.8096677zM47.2454079 35.8086405L43.5967069 39.5067372C43.1519243 39.9590672 43.1519243 40.6844676 43.5967069 41.1367976L47.3145619 44.946858C47.5282596 45.1700672 47.8220363 45.2990046 48.1309876 45.3051836 48.4399388 45.3113626 48.7386361 45.1942748 48.9610876 44.9797885L52.6097885 41.5385498C52.8366127 41.3284267 52.9703794 41.0365957 52.9815032 40.7276018 52.992627 40.4186079 52.8801912 40.1179136 52.6690634 39.8920242L48.9314502 35.8481571C48.7174394 35.6117573 48.4157125 35.473653 48.0969185 35.4661813 47.7781245 35.4587096 47.4702587 35.5825265 47.2454079 35.8086405zM54.5 43.0632326L50.848006 46.7613293C50.4032234 47.2136593 50.4032234 47.9390597 50.848006 48.3913897L54.565861 52.2014502C54.7795587 52.4246594 55.0733354 52.5535967 55.3822867 52.5597757 55.6912379 52.5659548 55.9899352 52.4488669 56.2123867 52.2343807L59.8610876 48.7898489C60.3244768 48.3546714 60.3509204 47.6274732 59.9203625 47.1597885L56.1860423 43.0928701C55.9706555 42.8577928 55.6681683 42.7215006 55.3493871 42.7158971 55.030606 42.7102935 54.7235156 42.8358704 54.5 43.0632326zM62.2057402 49.8535045L57.6712085 54.4637764C57.4619521 54.6754526 57.4619521 55.0160882 57.6712085 55.2277644L62.2419637 59.887432C62.4536399 60.0966884 62.7942755 60.0966884 63.0059517 59.887432L67.5404834 55.6064653C67.7554686 55.401298 67.7671697 55.0619662 67.5668278 54.8424773L63.0026586 49.8502115C62.8988807 49.7406253 62.7544128 49.6788218 62.6034869 49.6794455 62.4525611 49.6800691 62.3086089 49.7430645 62.2057402 49.8535045zM68.6337764 56.2650755L64.0992447 60.8753474C63.8899883 61.0870236 63.8899883 61.4276592 64.0992447 61.6393353L68.6667069 66.3187613C68.8783831 66.5280177 69.2190187 66.5280177 69.4306949 66.3187613L73.9652266 62.0377946C74.1802118 61.8326273 74.1919129 61.4932955 73.991571 61.2738066L69.4274018 56.2815408C69.3264478 56.1704162 69.1842333 56.1057039 69.034131 56.1025898 68.8840287 56.0994756 68.7392526 56.1582337 68.6337764 56.2650755zM75.8258006 63.4669789L71.2879758 68.0772508C71.0808805 68.2885302 71.0808805 68.6266661 71.2879758 68.8379456L75.852145 73.5206647C76.0645433 73.7281558 76.4037346 73.7281558 76.6161329 73.5206647L81.1506647 69.2396979C81.3683505 69.0362391 81.3815719 68.6954214 81.1803021 68.47571L76.6161329 63.4834441C76.5152645 63.3733646 76.3737598 63.3093334 76.2244873 63.3062236 76.0752149 63.3031137 75.9311662 63.3611959 75.8258006 63.4669789zM82.7906042 70.4251964L78.2560725 75.0354683C78.0468161 75.2471444 78.0468161 75.5877801 78.2560725 75.7994562L82.8202417 80.4788822C83.0337572 80.686772 83.3740071 80.686772 83.5875227 80.4788822L88.1187613 76.1979154C88.3364472 75.9944566 88.3496686 75.6536389 88.1483988 75.4339275L83.5842296 70.4416616C83.4832756 70.330537 83.3410611 70.2658248 83.1909588 70.2627106 83.0408565 70.2595965 82.8960804 70.3183545 82.7906042 70.4251964zM25.8438671 28.1951057L22.1918731 31.8964955C21.7470904 32.3488255 21.7470904 33.0742259 22.1918731 33.5265559L25.9097281 37.3366163C26.122975 37.5606316 26.4169032 37.6901361 26.7261262 37.6963206 27.0353491 37.7025051 27.3342204 37.5848565 27.5562538 37.3695468L31.2049547 33.9283082C31.6756094 33.4898232 31.7021359 32.7529756 31.2642296 32.2817825L27.5299094 28.2280363C27.3154831 27.9916504 27.0130806 27.8541319 26.6939912 27.8478996 26.3749018 27.8416674 26.0673601 27.967273 25.8438671 28.1951057zM33.0984592 35.4496979L29.4464653 39.1412085C29.0016826 39.5935385 29.0016826 40.3189389 29.4464653 40.7712689L33.1643202 44.5813293C33.3775671 44.8053446 33.6714954 44.9348491 33.9807183 44.9410336 34.2899412 44.947218 34.5888126 44.8295695 34.8108459 44.6142598L38.4595468 41.1730211C38.9284233 40.7337257 38.9548961 39.9983692 38.5188218 39.5264955L34.8042598 35.4661631C34.5870831 35.2255524 34.2790848 35.0868628 33.9549714 35.0837343 33.6308581 35.0806058 33.32024 35.2133242 33.0984592 35.4496979zM40.3530514 42.70429L36.7010574 46.3859215C36.2562747 46.8382515 36.2562747 47.5636519 36.7010574 48.0159819L40.4156193 51.8260423C40.629317 52.0492515 40.9230937 52.1781888 41.232045 52.1843679 41.5409962 52.1905469 41.8396935 52.0734591 42.062145 51.8589728L45.7108459 48.4177341C46.1797224 47.9784386 46.2061952 47.2430822 45.7701208 46.7712085L42.0555589 42.7075831C41.8360957 42.470667 41.5279666 42.3357255 41.2050224 42.3351009 40.8820782 42.3344762 40.5734294 42.4682247 40.3530514 42.70429zM47.6076435 49.9588822L43.9556495 53.6536858C43.5108669 54.1060158 43.5108669 54.8314162 43.9556495 55.2837462L47.6702115 59.0938066C47.8839091 59.3170159 48.1776859 59.4459532 48.4866371 59.4521322 48.7955883 59.4583112 49.0942856 59.3412234 49.3167372 59.1267372L52.9654381 55.6854985C53.4343146 55.246203 53.4607874 54.5108465 53.024713 54.0389728L49.3101511 49.9753474C49.0925257 49.7367156 48.7854331 49.599378 48.4624839 49.5962547 48.1395347 49.5931314 47.8298434 49.724504 47.6076435 49.9588822zM55.3199698 56.7491541L50.782145 61.3396677C50.5746539 61.552066 50.5746539 61.8912573 50.782145 62.1036556L55.3463142 66.7830816C55.5579903 66.9923379 55.898626 66.9923379 56.1103021 66.7830816L60.6448338 62.5021148C60.8625197 62.298656 60.8757411 61.9578383 60.6744713 61.7381269L56.1103021 56.742568C56.0067457 56.6346449 55.863281 56.5741824 55.7137157 56.5754288 55.5641504 56.5766752 55.4217132 56.6395201 55.3199698 56.7491541zM61.7414199 63.1804834L57.2035952 67.770997C56.996104 67.9833953 56.996104 68.3225866 57.2035952 68.5349849L61.7677644 73.2144109C61.9794405 73.4236672 62.3200761 73.4236672 62.5317523 73.2144109L67.066284 68.9334441C67.2839698 68.7299853 67.2971912 68.3891676 67.0959215 68.1694562L62.5350453 63.1804834C62.432304 63.0706462 62.288632 63.0083073 62.1382326 63.0083073 61.9878332 63.0083073 61.8441613 63.0706462 61.7414199 63.1804834zM68.9301511 70.3593353L64.3956193 74.9696073C64.1881282 75.1820056 64.1881282 75.5211968 64.3956193 75.7335952L68.9597885 80.4130211C69.1669253 80.6269072 69.5076171 80.6342497 69.7237764 80.4294864L74.2583082 76.1485196C74.475994 75.9450608 74.4892154 75.6042431 74.2879456 75.3845317L69.7204834 70.3922659C69.6219187 70.2799468 69.4816696 70.2128745 69.332365 70.2066535 69.1830604 70.2004325 69.0377178 70.2556051 68.9301511 70.3593353zM75.8982477 77.3406042L71.360423 81.9179456C71.1529318 82.1303439 71.1529318 82.4695352 71.360423 82.6819335L75.9245921 87.3613595C76.1317289 87.5752456 76.4724207 87.5825881 76.6885801 87.3778248L81.2231118 83.096858C81.4407976 82.8933992 81.454019 82.5525815 81.2527492 82.3328701L76.6951662 77.3406042C76.5928587 77.2287799 76.4482705 77.1650922 76.2967069 77.1650922 76.1451434 77.1650922 76.0005552 77.2287799 75.8982477 77.3406042zM89.7554079 77.3965861L85.2208761 82.006858C85.0116198 82.2185341 85.0116198 82.5591698 85.2208761 82.7708459L89.7883384 87.4502719C89.9954751 87.664158 90.3361669 87.6715005 90.5523263 87.4667372L95.086858 83.1857704C95.3018433 82.9806032 95.3135444 82.6412713 95.1132024 82.4217825L90.5490332 77.4295166C90.4503961 77.3161588 90.3094458 77.2484024 90.1593109 77.2421727 90.0091761 77.235943 89.863097 77.2917895 89.7554079 77.3965861zM96.7202115 84.3646828L92.1725076 88.9551964C91.9632512 89.1668725 91.9632512 89.5075082 92.1725076 89.7191843L96.7498489 94.3986103C96.9569857 94.6124964 97.2976775 94.6198389 97.5138369 94.4150755L102.048369 90.1341088C102.263354 89.9289415 102.275055 89.5896097 102.074713 89.3701208L97.5105438 84.377855C97.4097155 84.2673506 97.2677892 84.2033037 97.1182186 84.2008108 96.9686481 84.198318 96.8246662 84.2575998 96.7202115 84.3646828zM61.4351662 77.8576133L57.1541994 82.1813897C56.8751314 82.4657369 56.8751314 82.9211815 57.1541994 83.2055287L61.4648036 87.6248036C61.7437357 87.9094296 62.1992398 87.9182175 62.4889426 87.6445619L66.7699094 83.6171601C67.0500355 83.3466282 67.0702651 82.9044671 66.8160121 82.6094864L62.5054079 77.8938369C62.371679 77.7413435 62.1808351 77.6509497 61.978127 77.6440888 61.7754189 77.6372279 61.5788998 77.7145109 61.4351662 77.8576133zM68.3999698 84.8224169L64.119003 89.1461934C63.8399351 89.4305405 63.8399351 89.8859852 64.119003 90.1703323L68.4296073 94.5896073C68.7085393 94.8742332 69.1640435 94.8830211 69.4537462 94.6093656L73.734713 90.5819637C74.0250391 90.3085148 74.0426217 89.852832 73.7742296 89.5578248L69.4504532 84.8421752C69.3149574 84.6981323 69.1270929 84.6148256 68.9293718 84.6111067 68.7316506 84.6073878 68.5407864 84.6835711 68.3999698 84.8224169zM75.3779456 91.7872205L71.0969789 96.110997C70.8179109 96.3953441 70.8179109 96.8507888 71.0969789 97.135136L75.4075831 101.554411C75.6856063 101.839977 76.1411319 101.85023 76.4317221 101.577462L80.7126888 97.5467674C81.0047647 97.2741168 81.0224036 96.8169745 80.7522054 96.5226284L76.4416012 91.8102719C76.3071926 91.6599079 76.1164139 91.572062 75.9147808 91.5676922 75.7131477 91.5633225 75.5187423 91.6428208 75.3779456 91.7872205zM82.4678852 98.613716L77.9333535 103.207523C77.7258624 103.419921 77.7258624 103.759112 77.9333535 103.971511L82.5008157 108.650937C82.7124918 108.860193 83.0531275 108.860193 83.2648036 108.650937L87.7993353 104.36997C88.0160634 104.165587 88.0278144 103.824808 87.8256798 103.605982L83.2615106 98.613716C83.1582782 98.5047641 83.0147893 98.443051 82.8646979 98.443051 82.7146064 98.443051 82.5711176 98.5047641 82.4678852 98.613716zM11.5586103 14.0942598L7.66622356 18.0656798C7.44743307 18.2837848 7.32446007 18.5800104 7.32446007 18.8889426 7.32446007 19.1978748 7.44743307 19.4941004 7.66622356 19.7122054L18.5332931 30.4706042C18.9793547 30.9106692 19.6934993 30.919396 20.1501813 30.4903625L24.2072205 26.673716C24.4374425 26.4572163 24.5698993 26.1565225 24.574245 25.8405234 24.5785908 25.5245243 24.4544531 25.2203018 24.2302719 24.9975529L13.1985498 14.0843807C12.7423344 13.6358033 12.0093883 13.6402186 11.5586103 14.0942598zM82.6918127 84.3482175L77.9333535 89.1955891C77.7250622 89.4102202 77.7250622 89.751532 77.9333535 89.9661631L89.6599094 101.574169C89.8707816 101.779122 90.2064389 101.779122 90.4173112 101.574169L95.3766465 96.9079154C95.4833171 96.8054598 95.5436113 96.6639468 95.5436113 96.5160423 95.5436113 96.3681378 95.4833171 96.2266248 95.3766465 96.1241692L83.4459215 84.3218731C83.227823 84.1279396 82.895846 84.139537 82.6918127 84.3482175zM33.2268882 49.6196979L28.6857704 54.118006C28.5834083 54.2194267 28.5258221 54.3575489 28.5258221 54.5016465 28.5258221 54.6457442 28.5834083 54.7838664 28.6857704 54.885287L53.9731118 80.8048943C54.1855101 81.0123854 54.5247014 81.0123854 54.7370997 80.8048943L59.6766767 76.1452266C59.7823078 76.0428793 59.8419347 75.9020812 59.8419347 75.755 59.8419347 75.6079188 59.7823078 75.4671207 59.6766767 75.3647734L33.9908761 49.6098187C33.7758043 49.4050498 33.4365933 49.4094361 33.2268882 49.6196979z"/>
    </g>
    <path fill="#464A5F" fillRule="nonzero" d="M207.119164 107.349886L203.343632 111.112317C202.885456 111.571698 202.885456 112.308406 203.343632 112.767786L207.170047 116.637237C207.629351 117.107548 208.388142 117.12251 208.866153 116.670681L212.624724 113.172457C213.100262 112.729689 213.127447 111.992638 212.685784 111.516987L208.859369 107.390019C208.638831 107.148869 208.327287 107.007916 207.998036 107.000323 207.668786 106.99273 207.350898 107.119167 207.119164 107.349886zM213.103292 114.354833L209.343439 118.108671C208.88552 118.568228 208.88552 119.305219 209.343439 119.764776L213.167708 123.635713C213.387717 123.862488 213.69017 123.993486 214.008246 123.999764 214.326321 124.006041 214.63384 123.887083 214.862862 123.669169L218.619324 120.172948C219.102048 119.726633 219.129303 118.979527 218.68035 118.500114L214.84252 114.384944C214.620685 114.145044 214.308531 114.005879 213.979479 114.000182 213.650426 113.994485 213.333517 114.122759 213.103292 114.354833zM220.102736 121.369591L216.342148 125.122867C215.885951 125.582675 215.885951 126.317441 216.342148 126.777249L220.163774 130.637476C220.62291 131.107478 221.381423 131.12243 221.859259 130.670897L225.616456 127.17497C225.850025 126.961711 225.98777 126.665526 225.999224 126.351921 226.010679 126.038317 225.8949 125.733136 225.677494 125.503876L221.852478 121.379617C221.627514 121.139383 221.3115 121.001921 220.979816 121.00002 220.648132 120.998119 220.330518 121.131951 220.102736 121.369591zM228.104208 128.351277L224.348949 132.100535C223.883684 132.563006 223.883684 133.308856 224.348949 133.771327L228.175381 137.637541C228.634281 138.107458 229.392403 138.122408 229.869993 137.670957L233.621862 134.175659C234.099771 133.735006 234.1285 132.99705 233.686257 132.521575L229.842879 128.384693C229.621073 128.145519 229.309453 128.006541 228.980814 128.000225 228.652175 127.993909 228.335299 128.120807 228.104208 128.351277zM235.101564 136.363166L231.349996 140.108425C230.883335 140.56965 230.883335 141.316211 231.349996 141.777436L235.172668 145.636188C235.630171 146.106554 236.38757 146.122981 236.865614 145.672906L240.613796 142.181336C240.848306 141.969273 240.987056 141.673559 240.999139 141.360062 241.011223 141.046566 240.895637 140.741324 240.678128 140.512326L236.858842 136.393208C236.636303 136.148301 236.320322 136.005879 235.986852 136.000178 235.653382 135.994477 235.332581 136.126012 235.101564 136.363166zM242.601561 142.17948L238.152397 147.04254C237.949201 147.267007 237.949201 147.626249 238.152397 147.850717L242.633872 152.825732C242.837856 153.051109 243.170715 153.058877 243.383477 152.843225L247.832641 148.29504C248.045289 148.0779 248.056818 147.715849 247.858489 147.483364L243.377015 142.17948C243.275822 142.064845 243.13574 142 242.989288 142 242.842836 142 242.702754 142.064845 242.601561 142.17948zM249.601561 149.17934L245.152397 154.056099C244.949201 154.280392 244.949201 154.639355 245.152397 154.863649L249.633872 159.834796C249.842272 160.055068 250.175077 160.055068 250.383477 159.834796L254.832641 155.290146C255.045289 155.073175 255.056818 154.711406 254.858489 154.479101L250.377015 149.17934C250.275822 149.064794 250.13574 149 249.989288 149 249.842836 149 249.702754 149.064794 249.601561 149.17934zM256.603049 156.172354L252.152447 161.045963C251.949184 161.270112 251.949184 161.628843 252.152447 161.852991L256.632137 166.834903C256.840605 167.055032 257.173518 167.055032 257.381985 166.834903L261.832587 162.293188C262.045303 162.076357 262.056837 161.714821 261.858443 161.482667L257.378753 156.186328C257.279304 156.070012 257.14017 156.00272 256.993665 156.000081 256.847159 155.997441 256.706028 156.059684 256.603049 156.172354zM263.603018 163.175943L259.153983 168.047657C258.948672 168.2723 258.948672 168.633802 259.153983 168.858445L263.635327 173.824518C263.838558 174.051506 264.172827 174.059298 264.38491 173.841992L268.833945 169.298786C269.044876 169.081051 269.056357 168.720933 268.859792 168.487999L264.381679 163.186427C264.28173 163.069425 264.141698 163.002028 263.994433 163.000045 263.847168 162.998062 263.705628 163.061668 263.603018 163.175943zM270.604505 170.163571L266.154033 175.036065C265.948656 175.260744 265.948656 175.622303 266.154033 175.846982L270.633593 180.834823C270.842054 181.055059 271.174958 181.055059 271.383419 180.834823L275.833891 176.290889C276.044891 176.073119 276.056375 175.712944 275.859747 175.479972L271.367259 170.181047C271.268659 170.06856 271.132542 170.003413 270.989255 170.00013 270.845968 169.996847 270.707422 170.055701 270.604505 170.163571zM277.601561 178.17245L273.152397 183.061907C272.949201 183.285981 272.949201 183.644593 273.152397 183.868667L277.633872 188.834958C277.842272 189.055014 278.175077 189.055014 278.383477 188.834958L282.832641 184.294748C283.045289 184.077989 283.056818 183.716573 282.858489 183.484496L278.380246 178.189913C278.281192 178.072059 278.141655 178.003428 277.994379 178.000125 277.847102 177.996822 277.705052 178.059138 277.601561 178.17245zM284.607673 184.174011L280.152882 189.07066C279.949039 189.296252 279.949039 189.656512 280.152882 189.882104L284.627084 194.834715C284.835748 195.055095 285.168974 195.055095 285.377637 194.834715L289.832429 190.287827C290.045346 190.070749 290.05689 189.708801 289.85831 189.476382L285.374402 184.174011C285.273409 184.062709 285.135254 184 284.991038 184 284.846822 184 284.708667 184.062709 284.607673 184.174011zM200.098585 114.348573L196.343329 118.104848C195.885557 118.564703 195.885557 119.302172 196.343329 119.762028L200.169758 123.635476C200.389697 123.862399 200.692053 123.993482 201.010026 123.999763 201.328 124.006045 201.63542 123.887009 201.864368 123.668955L205.616235 120.170464C206.101619 119.725629 206.130438 118.976483 205.68063 118.496545L201.833865 114.385399C201.61262 114.14639 201.301991 114.00723 200.974201 114.000274 200.646411 113.993317 200.330018 114.119171 200.098585 114.348573zM185.112425 128.349715L181.350633 132.10289C180.883122 132.565089 180.883122 133.313228 181.350633 133.775427L185.180266 137.642334C185.635946 138.10451 186.383286 138.120887 186.859335 137.67913L190.617735 134.180181C191.10254 133.734769 191.129864 132.986281 190.678792 132.507644L186.849159 128.389856C186.629235 128.148841 186.318265 128.007921 185.989573 128.000324 185.660881 127.992727 185.343557 128.119125 185.112425 128.349715zM207.104683 120.369334L203.343556 124.117528C202.885481 124.576395 202.885481 125.312277 203.343556 125.771144L207.169121 129.63626C207.389205 129.862695 207.69176 129.993496 208.009944 129.999764 208.328128 130.006032 208.635751 129.887252 208.86485 129.669667L212.619195 126.17202C213.102083 125.726377 213.129347 124.980394 212.680241 124.501701L208.854676 120.382696C208.630679 120.141228 208.314697 120.002571 207.982639 120.000035 207.65058 119.9975 207.332454 120.131315 207.104683 120.369334zM214.098585 127.350249L210.343329 131.107915C209.885557 131.567531 209.885557 132.304617 210.343329 132.764233L214.169758 136.635666C214.389697 136.862471 214.692053 136.993485 215.010026 136.999764 215.328 137.006042 215.63542 136.887068 215.864368 136.669127L219.616235 133.172457C220.101619 132.727853 220.130438 131.979097 219.68063 131.499409L215.837255 127.38371C215.61494 127.145086 215.303492 127.006545 214.975161 127.000226 214.64683 126.993907 214.330149 127.12036 214.098585 127.350249zM221.104149 135.36165L217.343795 139.118109C216.885402 139.577577 216.885402 140.314426 217.343795 140.773894L221.175419 144.644084C221.632274 145.105297 222.379979 145.120185 222.85536 144.677534L226.615714 141.181987C227.101756 140.737527 227.130615 139.98901 226.680196 139.509476L222.851966 135.38172C222.627797 135.141943 222.313237 135.003879 221.98245 135.00008 221.651663 134.996282 221.333925 135.127085 221.104149 135.36165zM193.103292 135.356157L189.343439 139.10948C188.88552 139.568974 188.88552 140.305864 189.343439 140.765358L193.167708 144.635763C193.387717 144.862507 193.69017 144.993487 194.008246 144.999764 194.326321 145.00604 194.63384 144.887098 194.862862 144.669215L198.619324 141.173473C199.102048 140.72722 199.129303 139.980217 198.68035 139.500869L194.83913 135.382919C194.617425 135.14368 194.305566 135.005209 193.97706 135.000144 193.648555 134.995079 193.332464 135.123869 193.103292 135.356157zM200.098585 142.368282L196.343329 146.119464C195.885557 146.578287 195.885557 147.314101 196.343329 147.772924L200.169758 151.637678C200.628658 152.107418 201.386779 152.122362 201.864368 151.671081L205.616235 148.180444C206.101619 147.736607 206.130438 146.989143 205.68063 146.510282L201.85759 142.388323C201.633402 142.144567 201.316312 142.003882 200.982524 142.000079 200.648736 141.996276 200.32843 142.129698 200.098585 142.368282zM207.100893 149.35378L203.343522 153.120805C202.885493 153.579524 202.885493 154.315169 203.343522 154.773888L207.172106 158.63776C207.631264 159.107393 208.389812 159.122334 208.86767 158.671156L212.62165 155.177975C213.099827 154.737588 213.128573 154.00008 212.686081 153.524892L208.860888 149.403873C208.640889 149.156181 208.32601 149.010001 207.991994 149.000494 207.657977 148.990987 207.335051 149.119014 207.100893 149.35378zM229.096787 142.371324L225.343178 146.120784C224.885607 146.579396 224.885607 147.314871 225.343178 147.773484L229.167929 151.636462C229.387771 151.862771 229.689995 151.993499 230.007829 151.999764 230.325663 152.006029 230.632949 151.887315 230.861796 151.66985L234.615405 148.177477C234.849574 147.964906 234.987773 147.668878 234.999227 147.355316 235.010681 147.041755 234.894437 146.736698 234.676384 146.508083L230.855021 142.388018C230.630991 142.143895 230.313584 142.003226 229.979615 142.000055 229.645646 141.996884 229.325547 142.1315 229.096787 142.371324zM235.10364 149.361772L231.343468 153.114951C230.885511 153.574018 230.885511 154.310223 231.343468 154.769291L235.171452 158.636101C235.39148 158.862635 235.693959 158.993493 236.012061 158.999764 236.330164 159.006035 236.637709 158.887203 236.86675 158.669522L240.623531 155.173685C241.100647 154.732026 241.127874 153.993996 240.684562 153.519345L236.859969 149.395193C236.63821 149.149719 236.322612 149.006564 235.989213 149.00022 235.655814 148.993876 235.334846 149.124917 235.10364 149.361772zM243.603018 156.181124L239.153983 161.056446C238.948672 161.281094 238.948672 161.642604 239.153983 161.867252L243.635327 166.83344C243.843012 167.05552 244.177225 167.05552 244.38491 166.83344L248.833945 162.290129C249.044876 162.072389 249.056357 161.712262 248.859792 161.479323L244.381679 156.181124C244.280393 156.065495 244.13961 156 243.992348 156 243.845087 156 243.704303 156.065495 243.603018 156.181124zM249.603018 162.181124L245.153983 167.056446C244.948672 167.281094 244.948672 167.642604 245.153983 167.867252L249.635327 172.83344C249.843012 173.05552 250.177225 173.05552 250.38491 172.83344L254.833945 168.290129C255.044876 168.072389 255.056357 167.712262 254.859792 167.479323L250.381679 162.181124C250.280393 162.065495 250.13961 162 249.992348 162 249.845087 162 249.704303 162.065495 249.603018 162.181124zM256.605482 170.170916L252.15242 175.051472C251.949193 175.275939 251.949193 175.635182 252.15242 175.85965L256.631334 180.834668C256.839765 181.055111 257.17262 181.055111 257.381051 180.834668L261.830881 176.28648C262.044501 176.070321 262.057475 175.708229 261.859965 175.474803L257.381051 170.188409C257.282067 170.071458 257.143205 170.00343 256.996721 170.000126 256.850237 169.996822 256.708879 170.05853 256.605482 170.170916zM264.603109 177.181142L260.153986 182.056946C259.948671 182.281616 259.948671 182.643162 260.153986 182.867832L264.632188 187.834511C264.841682 188.055163 265.175523 188.055163 265.385017 187.834511L269.830908 183.290751C270.044494 183.074803 270.057466 182.713064 269.859987 182.479865L265.381786 177.181142C265.280498 177.065501 265.139712 177 264.992447 177 264.845183 177 264.704396 177.065501 264.603109 177.181142zM207.10133 134.352995L203.343275 138.107003C202.885575 138.566581 202.885575 139.303606 203.343275 139.763184L207.169104 143.634296C207.388544 143.861901 207.691009 143.993481 208.009212 143.999764 208.327416 144.006048 208.634967 143.886514 208.863448 143.667754L212.618115 140.171374C213.102439 139.725862 213.129735 138.977208 212.679111 138.498464L208.836339 134.386453C208.615685 134.146279 208.3045 134.006557 207.976144 134.000225 207.647787 133.993893 207.331314 134.121511 207.10133 134.352995zM214.10686 142.361221L210.351442 146.105536C210.126456 146.326563 210 146.626758 210 146.93983 210 147.252902 210.126456 147.553097 210.351442 147.774125L214.174586 151.63524C214.393872 151.862258 214.696125 151.993498 215.014105 151.999765 215.332085 152.006032 215.63942 151.886807 215.867741 151.668612L219.619773 148.181261C220.101928 147.736079 220.129151 146.990868 219.680727 146.512671L215.860969 142.39793C215.640517 142.151461 215.325401 142.007241 214.992088 142.000265 214.658775 141.99329 214.33773 142.124197 214.10686 142.361221zM222.103292 149.367975L218.343439 153.116698C217.88552 153.575629 217.88552 154.311616 218.343439 154.770547L222.167708 158.636209C222.387717 158.862676 222.69017 158.993495 223.008246 158.999764 223.326321 159.006033 223.63384 158.887237 223.862862 158.66962L227.619324 155.178162C228.102048 154.732456 228.129303 153.986368 227.68035 153.507608L223.856081 149.38468C223.632029 149.142566 223.315866 149.003224 222.983379 149.000055 222.650892 148.996886 222.332054 149.130176 222.103292 149.367975zM229.108251 156.356392L225.351561 160.105167C225.126498 160.326261 225 160.626546 225 160.939711 225 161.252877 225.126498 161.553162 225.351561 161.774256L229.172613 165.636528C229.392437 165.862796 229.694636 165.9935 230.012444 165.999764 230.330252 166.006028 230.637513 165.887335 230.866342 165.66991L234.619644 162.181514C235.101963 161.736198 235.129194 160.990765 234.680619 160.512424L230.859567 156.393112C230.638024 156.149466 230.323899 156.007227 229.991994 156.000268 229.66009 155.993309 229.34011 156.122252 229.108251 156.356392zM235.605508 163.173966L231.152703 168.048492C230.949099 168.273869 230.949099 168.633788 231.152703 168.859165L235.631359 173.824543C235.834615 174.051499 236.168924 174.05929 236.381033 173.842014L240.830607 169.299445C241.044602 169.082339 241.05756 168.719586 240.85969 168.485277L236.381033 163.187943C236.282094 163.070686 236.142827 163.002725 235.996058 163.00008 235.84929 162.997435 235.708006 163.060339 235.605508 163.173966zM242.605508 170.175963L238.152703 175.050816C237.949099 175.276371 237.949099 175.636572 238.152703 175.862126L242.631359 180.824405C242.834615 181.051539 243.168924 181.059336 243.381033 180.84189L247.830607 176.295757C248.044602 176.078481 248.05756 175.715443 247.85969 175.48095L243.384265 170.189951C243.285248 170.071478 243.14528 170.002731 242.997691 170.00008 242.850103 169.997429 242.708103 170.061112 242.605508 170.175963zM249.602407 177.170623L245.152707 182.06027C244.949098 182.28554 244.949098 182.645286 245.152707 182.870555L249.63149 187.833547C249.839207 188.055484 250.17347 188.055484 250.381186 187.833547L254.830886 183.29316C255.0445 183.077372 255.057474 182.715901 254.859969 182.482876L250.377954 177.188086C250.278973 177.071336 250.140115 177.003424 249.993636 177.000126 249.847156 176.996828 249.705802 177.05843 249.602407 177.170623zM257.605639 184.179536L253.152707 189.055228C252.949098 189.280822 252.949098 189.641085 253.152707 189.866678L257.63149 194.833308C257.839207 195.055564 258.17347 195.055564 258.381186 194.833308L262.830886 190.286393C263.0445 190.070295 263.057474 189.708304 262.859969 189.474944L258.387649 184.193527C258.289081 184.072938 258.148226 184.002739 257.999491 184.000078 257.850756 183.997418 257.707835 184.062539 257.605639 184.179536zM270.603018 184.170623L266.153983 189.06027C265.948672 189.284774 265.948672 189.646051 266.153983 189.870555L270.635327 194.833547C270.843012 195.055484 271.177225 195.055484 271.38491 194.833547L275.833945 190.29316C276.044876 190.07556 276.056357 189.715665 275.859792 189.482876L271.378448 184.188086C271.279482 184.071336 271.140645 184.003424 270.994187 184.000126 270.847729 183.996828 270.706396 184.05843 270.603018 184.170623zM277.603018 190.162558L273.153983 195.055847C272.948672 195.280518 272.948672 195.642065 273.153983 195.866735L277.635327 200.833423C277.843012 201.055526 278.177225 201.055526 278.38491 200.833423L282.833945 196.289655C283.044876 196.071893 283.056357 195.71173 282.859792 195.478767L278.378448 190.19751C278.281742 190.078296 278.144137 190.007107 277.997648 190.000504 277.851158 189.993901 277.708556 190.05246 277.603018 190.162558zM242.466362 184.213885L238.208187 188.450876C237.930604 188.729516 237.930604 189.175819 238.208187 189.454459L242.495841 193.785032C242.773289 194.063945 243.226368 194.072556 243.514528 193.804393L247.772703 189.857828C248.059769 189.589102 248.077203 189.143965 247.812009 188.854245L243.524355 184.233247C243.389194 184.088044 243.199516 184.003783 242.999571 184.000124 242.799627 183.996465 242.606903 184.073727 242.466362 184.213885zM249.467243 191.207402L245.208228 195.448593C244.930591 195.72751 244.930591 196.174255 245.208228 196.453171L249.506557 200.800958C249.787791 201.066347 250.231105 201.066347 250.512339 200.800958L254.771354 196.85048C255.060191 196.582254 255.077684 196.135275 254.810668 195.845902L250.512339 191.226783C250.377538 191.085491 250.190637 191.003775 249.99393 191.000128 249.797223 190.99648 249.607337 191.071208 249.467243 191.207402zM256.465188 198.21529L252.208132 202.451108C251.930623 202.729671 251.930623 203.175851 252.208132 203.454413L256.49466 207.783787C256.771276 208.064349 257.225685 208.072985 257.513079 207.803143L261.770136 203.857671C262.06058 203.590567 262.07812 203.142724 261.809431 202.854366L257.522903 198.234646C257.388276 198.088633 257.198479 198.003787 256.998285 198.000124 256.798091 197.99646 256.605227 198.074303 256.465188 198.21529zM263.601719 205.164252L259.152684 210.053383C258.949105 210.278628 258.949105 210.638336 259.152684 210.863582L263.634028 215.826049C263.838006 216.051016 264.170856 216.05877 264.383611 215.84351L268.832646 211.303603C269.045287 211.086859 269.056817 210.725467 268.858493 210.493405L264.38038 205.199175C264.283603 205.07896 264.14531 205.007105 263.998006 205.000499 263.850702 204.993893 263.707377 205.053117 263.601719 205.164252zM193.41827 120.340632L189.356625 124.301993C189.12832 124.519366 189 124.814596 189 125.122491 189 125.430385 189.12832 125.725616 189.356625 125.942988L200.696245 136.66525C201.161703 137.103836 201.906902 137.112534 202.383442 136.684942L206.6169 132.881115C206.857134 132.665343 206.99535 132.365659 206.999885 132.050721 207.00442 131.735784 206.874884 131.432583 206.640954 131.210582L195.129522 120.334068C194.654411 119.886096 193.889599 119.889029 193.41827 120.340632zM263.979277 190.16465L259.158272 195.146423C258.947243 195.366556 258.947243 195.716618 259.158272 195.936751L271.038962 207.842345C271.252606 208.052552 271.592675 208.052552 271.806319 207.842345L276.830841 203.056465C276.938913 202.951383 277 202.806242 277 202.654546 277 202.50285 276.938913 202.357709 276.830841 202.252627L264.743297 190.147762C264.525616 189.944378 264.187982 189.951841 263.979277 190.16465zM213.653612 156.158065L209.158334 160.58477C209.057005 160.684576 209 160.8205 209 160.962304 209 161.104108 209.057005 161.240031 209.158334 161.339837L234.190418 186.846859C234.400673 187.051047 234.73644 187.051047 234.946694 186.846859L239.83641 182.261363C239.940975 182.160645 240 182.022088 240 181.877348 240 181.732608 239.940975 181.594051 239.83641 181.493333L214.409888 156.148343C214.196988 155.946834 213.861201 155.95115 213.653612 156.158065z"/>
    <path fill="#000" fillRule="nonzero" d="M196.703707,158.869358 L176.867849,178.800694 C175.723589,179.952078 175.708997,181.820623 176.835133,182.990147 L213.523127,221.098941 C214.069624,221.666908 214.817393,221.991125 215.600903,221.999821 C216.384412,222.008516 217.139034,221.700972 217.69772,221.14527 L238.12247,200.823448 C238.681056,200.266561 238.996907,199.507274 238.999977,198.713964 C239.003048,197.920654 238.693086,197.158887 238.138828,196.597594 L200.861941,158.869358 C199.712731,157.710214 197.852917,157.710214 196.703707,158.869358 Z" opacity=".1"/>
    <path fill="#939498" fill-opacity=".028" fillRule="nonzero" d="M196.703707,158.859388 L176.867849,178.805193 C175.723589,179.956457 175.708997,181.824807 176.835133,182.994209 L213.523127,221.099035 C214.069624,221.666943 214.817393,221.991126 215.600903,221.999821 C216.384412,222.008515 217.139034,221.701003 217.69772,221.145359 L238.12247,200.825653 C238.681056,200.268825 238.996907,199.509616 238.999977,198.716389 C239.003048,197.923161 238.693086,197.161474 238.138828,196.600239 L200.861941,158.879241 C199.718149,157.714713 197.858319,157.705833 196.703707,158.859388 Z"/>
    <path fill="#69D5B1" fillRule="nonzero" d="M216.029923,54.0574132 L211,89.4644147 L304.199387,183 L308.944226,147.903123 C309.2026,145.982069 308.554013,144.049873 307.191126,142.680491 L218.097598,53.357983 C217.770351,53.0296533 217.286873,52.9158003 216.84894,53.0639393 C216.411008,53.2120784 216.093886,53.5967493 216.029923,54.0574132 Z"/>
    <ellipse cx="97.5" cy="225" fill="#179A6F" fillRule="nonzero" opacity=".1" rx="7.5" ry="1"/>
    <ellipse cx="67.5" cy="227" fill="#179A6F" fillRule="nonzero" opacity=".1" rx="7.5" ry="1"/>
    <ellipse cx="33.5" cy="223" fill="#179A6F" fillRule="nonzero" opacity=".1" rx="7.5" ry="1"/>
    <ellipse cx="80.5" cy="236" fill="#179A6F" fillRule="nonzero" opacity=".1" rx="5.5" ry="1"/>
    <ellipse cx="49.5" cy="236" fill="#179A6F" fillRule="nonzero" opacity=".1" rx="5.5" ry="1"/>
    <path fill="#C1FDE9" fillRule="nonzero" d="M68.6798757,228 C68.6798757,228 79.4424053,192.868388 66.992938,178.813759 C57.6948562,168.286839 47.1116467,169.556417 42.3762665,170.849139 C39.898135,171.506076 37.8344066,173.212674 36.7310026,175.517484 C35.0706308,179.074948 35.3761392,184.844256 47.0585148,191.578972 C66.6243355,202.856398 67.8397276,218.326078 67.8397276,218.326078 L68.6798757,228 Z"/>
    <path stroke="#69D5B1" d="M43 175C43 175 73.9178359 184.840598 66.9875299 227M62 179C62 179 57.9785345 182.194232 59.2476662 187M46 182C46 182 48.692092 178.74532 52 180.539771M59 195.199326C59 195.199326 63.7649044 192.027597 65 196M71 200.024304C71 200.024304 67.0703704 199.631967 67 202"/>
    <path fill="#C1FDE9" fillRule="nonzero" d="M68,228 C68,228 55.3944129,202.44994 51.9444627,203.009044 C50.3024191,203.273709 49.5460839,204.884854 49.2044061,206.505925 C48.7805876,208.599669 49.0193747,210.77301 49.8877616,212.725544 C51.6757647,216.814612 56.4758396,224.57921 68,228 Z"/>
    <path stroke="#69D5B1" d="M53 208C53 208 66.4084981 227.161141 69 228M51 210L54 210M55 218L60 218.31M58 212L57 214M63.145 219L63 221"/>
    <path fill="#C1FDE9" fillRule="nonzero" d="M68,228 C68,228 80.6055115,202.44994 84.0521238,203.009044 C85.7107437,203.273709 86.4538054,204.884854 86.7954811,206.505925 C87.2200336,208.599931 86.9800277,210.773826 86.1088125,212.725544 C84.3241374,216.814612 79.5240913,224.57921 68,228 Z"/>
    <path stroke="#69D5B1" d="M84 208C84 208 70.5909569 227.161141 68 228M85 210L82 210M82 218L77 218.31M78 212L79 214M73 219L73.14 221"/>
    <path fill="#69D5B1" fillRule="nonzero" d="M46.775359 233.757972C46.4190785 233.455074 46.1597078 233.045611 46.0319359 232.584345 45.9139968 232.107589 46.1305946 231.609456 46.5516437 231.389118 47.0300502 231.198314 47.5394327 231.543922 47.9283531 231.893129 48.3172735 232.242337 48.7612622 232.641946 49.2672029 232.569945 48.736878 232.068552 48.4976592 231.312417 48.6373584 230.5791 48.6582932 230.428978 48.7191124 230.288024 48.8128888 230.17229 49.0779054 229.877084 49.5563119 230.003087 49.872955 230.237092 50.8848364 230.978709 51.1636201 232.397141 51.1705036 233.703971 51.2269768 233.226091 51.2327481 232.743144 51.1877125 232.263938 51.1489974 231.780046 51.3408537 231.307301 51.7005367 231.000309 51.9407059 230.866824 52.2099702 230.801064 52.4818193 230.809505 52.9348504 230.734922 53.3967957 230.865869 53.7518337 231.169513 54.1373123 231.601523 54.0375009 232.321539 53.7002071 232.79675 53.3271493 233.240356 52.8834946 233.613066 52.3888914 233.898375 52.0117877 234.131684 51.6904556 234.45179 51.4492873 234.834396 51.4216013 234.887306 51.3985617 234.942735 51.3804518 235L48.537547 235C47.8995613 234.670521 47.3068498 234.252765 46.775359 233.757972zM94.7785767 223.771928C94.4218354 223.46761 94.1613289 223.057087 94.0313648 222.594424 93.9147516 222.11622 94.1310681 221.617322 94.5513141 221.395248 95.0299429 221.203814 95.5395621 221.550563 95.9286632 221.900925 96.3177644 222.251286 96.7585161 222.652216 97.2646919 222.576364 96.735308 222.072504 96.496205 221.31459 96.6345547 220.578942 96.6577948 220.430125 96.7184107 220.29049 96.8101667 220.1744 97.0753064 219.874606 97.5539352 220.004638 97.8741689 220.239416 98.8830771 220.983483 99.1654337 222.406601 99.1688771 223.714137 99.2267486 223.234828 99.2336779 222.75026 99.1895373 222.269346 99.1451707 221.782927 99.3381991 221.305944 99.7025998 221.001543 99.9420029 220.865179 100.212028 220.799046 100.484245 220.810108 100.936313 220.737276 101.396652 220.868493 101.751407 221.171306 102.137064 221.604743 102.037207 222.33075 101.703199 222.807531 101.327185 223.245133 100.882249 223.611669 100.387831 223.891123 100.013789 224.128372 99.694043 224.448977 99.4512336 224.830237 99.4221276 224.883857 99.3990188 224.940821 99.3823662 225L96.5346969 225C95.8997121 224.674662 95.3090954 224.261638 94.7785767 223.771928zM78.7756927 233.755268C78.4192589 233.452588 78.1597765 233.04342 78.0319497 232.582486 77.9139598 232.106073 78.1306509 231.608298 78.5518811 231.388119 79.0304935 231.197452 79.5400952 231.542811 79.929183 231.891767 80.3182708 232.240724 80.7624507 232.640046 81.2686091 232.568096 80.7380559 232.067064 80.4987343 231.311473 80.6384935 230.578683 80.6594374 230.42867 80.7202827 230.287817 80.8140995 230.172166 81.0792301 229.877172 81.5578425 230.003084 81.874622 230.236921 82.8834956 230.978005 83.1658425 232.395416 83.172729 233.701306 83.2292265 233.22377 83.2350003 232.741171 83.1899453 232.262309 83.151556 231.780626 83.3420456 231.309965 83.699547 231.003187 83.9398196 230.869797 84.2091997 230.804085 84.4811658 230.81252 84.934392 230.737991 85.396536 230.868843 85.7517268 231.172269 86.1373714 231.603968 86.037517 232.323466 85.700078 232.798335 85.3268597 233.241622 84.8830141 233.614064 84.388198 233.899168 84.0109319 234.132308 83.6894615 234.452185 83.4481894 234.834515 83.4204915 234.887387 83.397442 234.942776 83.3793243 235L80.5351959 235C79.8979449 234.669365 79.3061412 234.250703 78.7756927 233.755268zM33.2466179 213C33.2466179 213 32.2449205 214.283168 33.7086912 216.21901 35.172462 218.154851 36.3777301 219.792871 35.8898065 221 35.8898065 221 33.682841 217.400792 31.8862482 217.353267 30.0896554 217.305743 31.2690734 215.16396 33.2466179 213z"/>
    <path fill="#000" fillRule="nonzero" d="M33.2732113,213 C33.1855548,213.124228 33.116225,213.259715 33.0672308,213.402536 C31.2918756,215.421553 30.3469812,217.307448 32.0536763,217.354992 C33.6393987,217.396197 35.5455352,220.150555 36,220.841521 C35.9860217,220.895363 35.9685494,220.948294 35.9476875,221 C35.9476875,221 33.7145979,217.399366 31.8967388,217.351823 C30.0788796,217.304279 31.2722584,215.164818 33.2732113,213 Z" opacity=".1"/>
    <path fill="#FFD037" fillRule="nonzero" d="M31 214.522158C31 215.341272 31.08 216 31.18 216 31.28 216 31.36 215.341272 31.36 214.522158 31.36 213.703043 31.26 214.092552 31.16 214.092552 31.06 214.092552 31 213.703043 31 214.522158zM30.2375169 215.504888C30.6287719 215.854962 30.9699462 216.071185 30.9981165 215.978518 31.0262869 215.885851 30.7351932 215.535777 30.3439382 215.180554 29.9526833 214.825331 30.1060552 215.087887 30.0778849 215.180554 30.0497145 215.273221 29.8462619 215.175406 30.2375169 215.504888z"/>
    <path fill="#69D5B1" fillRule="nonzero" d="M38.7537116,213 C38.7537116,213 39.7523678,214.283168 38.2915504,216.21901 C36.8307329,218.154851 35.6220034,219.792871 36.1100198,221 C36.1100198,221 38.3174055,217.400792 40.1143403,217.353267 C41.9112751,217.305743 40.7284007,215.16396 38.7537116,213 Z"/>
    <path fill="#000" fillRule="nonzero" d="M38.728692,213 C38.8163046,213.124228 38.8855997,213.259715 38.9345694,213.402536 C40.7057683,215.421553 41.6501898,217.307448 39.9476167,217.354992 C38.3594199,217.396197 36.4575052,220.150555 36,220.841521 C36.0150721,220.895426 36.0336269,220.948356 36.0555542,221 C36.0555542,221 38.2875262,217.399366 40.1044756,217.351823 C41.921425,217.304279 40.7253756,215.164818 38.728692,213 Z" opacity=".1"/>
    <path fill="#FFD037" fillRule="nonzero" d="M40.355,214.522158 C40.355,215.341272 40.275,216 40.18,216 C40.085,216 40,215.341272 40,214.522158 C40,213.703043 40.1,214.092552 40.2,214.092552 C40.3,214.092552 40.355,213.703043 40.355,214.522158 Z"/>
    <path fill="#FFD037" fillRule="nonzero" d="M40.7670518,215.504888 C40.3752552,215.854962 40.0336086,216.071185 40.0022649,215.978518 C39.9709212,215.885851 40.2686866,215.535777 40.6604831,215.180554 C41.0522797,214.825331 40.8986954,215.087887 40.9269048,215.180554 C40.9551141,215.273221 41.1463108,215.175406 40.7670518,215.504888 Z"/>
    <path fill="#DDDCDC" fillRule="nonzero" d="M41,220.428772 C41,220.428772 38.0463653,220.346238 37.1561821,219.780729 C36.2659989,219.21522 32.6131782,218.533553 32.3812531,219.444481 C32.1493279,220.355408 27.9473904,223.974665 31.2796087,223.99912 C34.6118271,224.023574 39.0252258,223.534485 39.915409,223.048453 C40.8055922,222.562421 41,220.428772 41,220.428772 Z"/>
    <path fill="#000" fillRule="nonzero" d="M31.2193573,224.646372 C34.5580898,224.673762 38.9755947,224.12595 39.8631923,223.581563 C40.5459597,223.16728 40.8088251,221.684765 40.8873434,221 L41,221 C41,221 40.812239,223.396676 39.9246414,223.934216 C39.0370438,224.471757 34.616125,225.026416 31.2808064,224.999025 C30.3181044,224.999025 29.9835484,224.656643 30.0006176,224.139646 C30.137171,224.44779 30.5024516,224.639524 31.2193573,224.646372 Z" opacity=".2"/>
    <path fill="url(#startup-life-a)" fillRule="nonzero" d="M57.0016977,110.203251 C56.9492534,111.591664 58.1292516,113.43627 58.1292516,113.43627 C58.4898066,114.312293 62.911522,118.371748 62.911522,118.371748 L66.1892947,120.579986 C65.527132,121.072737 64.8328631,121.520021 64.1111868,121.918813 C62.5149115,122.741943 61.6430239,125.465877 61.6430239,125.465877 C61.6430239,125.465877 59.2240277,131.326964 64.1111868,132.150095 L64.2029645,132.166623 L64.642186,132.645956 C65.723851,133.822802 67.0447934,135.227743 67.5036816,135.541789 C68.3264026,136.107072 70.8470098,140.374789 70.8470098,140.374789 C70.8470098,140.374789 73.5183946,144.797876 77.074778,145.002832 C80.6311614,145.207789 80.6213281,141.095441 80.3525507,140.837593 C80.2457408,140.665463 80.1712942,140.474957 80.13294,140.275617 C80.9818831,141.654112 82.1389369,143.465661 82.512603,143.716897 C83.1288242,144.12681 85.1348211,147.353217 85.1348211,147.353217 C85.1348211,147.353217 87.6554284,153.161412 88.06515,153.779586 C88.4748716,154.397761 89.1959816,157.482021 89.1959816,157.482021 C89.1959816,157.482021 90.6382016,161.746432 91.3068672,162.315021 C91.9755329,162.883609 92.3328101,164.936477 92.3328101,164.936477 C92.3328101,164.936477 94.4404179,168.020737 94.8009729,168.533128 C95.2227351,169.281356 95.6003357,170.05404 95.9318045,170.847149 C95.9318045,170.847149 97.0626361,172.698367 97.0626361,173.419019 C97.0626361,174.139672 99.4291881,175.369409 99.4291881,175.369409 C99.4291881,175.369409 101.127074,177.375996 102.103851,177.736323 C103.080627,178.096649 104.004959,180.460257 104.159014,180.304887 C104.249931,180.261182 104.350125,180.240745 104.450736,180.245383 L104.850624,180.648684 C106.410844,182.215608 109.528006,185.339537 110.327782,186.063495 C111.409447,187.055219 113.87761,187.19406 115.932774,186.784148 C116.988217,186.57258 118.273104,185.564328 119.272824,184.632107 C119.7298,184.201068 119.992412,183.600508 119.999838,182.969521 C120.007264,182.338533 119.75886,181.731856 119.312157,181.289999 C118.328826,180.334638 117.191439,179.286717 116.689939,179.124736 C115.765607,178.813996 113.143389,176.966084 111.910947,175.422301 C111.255392,174.619005 110.104894,173.855378 109.137951,173.30993 L109.019951,173.240509 C108.872203,172.674877 108.772418,172.097597 108.721674,171.51491 C108.721674,171.51491 110.41956,167.660411 109.49195,167.455455 C108.564341,167.250498 105.070235,161.131564 105.070235,161.131564 C105.021068,156.50352 100.80913,152.596129 100.80913,152.596129 C100.80913,152.596129 98.7015225,147.558174 98.0853012,146.480501 C97.7105264,145.921308 97.7105264,145.188476 98.0853012,144.629283 C98.0853012,144.629283 96.9020253,143.703674 96.6988034,143.24087 C96.4955815,142.778066 95.5155274,139.273976 95.5155274,139.273976 C95.5155274,139.273976 94.3322514,137.16491 94.2798071,136.189715 C94.2273627,135.21452 91.9230885,132.493892 91.9230885,132.493892 C91.9230885,132.493892 90.9889233,127.912129 89.9564248,127.088998 C89.7564807,126.930323 89.7859807,126.325371 89.9564248,125.45596 L90.0055914,125.403068 L90.1629245,125.247698 L90.2088133,125.201418 C90.6812641,124.731448 91.1256375,124.233608 91.5395891,123.710527 L91.5592557,123.684081 C91.6248112,123.601437 91.6870888,123.522099 91.7460888,123.439456 C93.2374754,121.383282 94.1618073,116.49739 94.1618073,116.49739 C94.1618073,116.49739 94.4568068,116.358549 94.8403062,116.146981 C95.3792016,115.875511 95.8778681,115.529474 96.3218595,115.118895 C96.3430508,115.095144 96.360716,115.06842 96.3743039,115.039557 C96.3760698,115.030831 96.3760698,115.021836 96.3743039,115.013111 C96.3844258,114.992789 96.3931862,114.971805 96.400526,114.950302 C96.4018008,114.938215 96.4018008,114.926025 96.400526,114.913938 C96.4023778,114.889732 96.4023778,114.865418 96.400526,114.841212 C96.400526,114.841212 96.400526,114.818072 96.400526,114.804849 L96.400526,114.685842 C96.400526,114.642867 96.400526,114.599893 96.3841372,114.553612 C96.3838193,114.548107 96.3838193,114.542588 96.3841372,114.537083 C96.3841372,114.497414 96.3677483,114.457746 96.357915,114.414771 L96.357915,114.375102 C96.357915,114.338739 96.3382484,114.302375 96.3251373,114.262707 C96.3261312,114.248399 96.3261312,114.234039 96.3251373,114.219732 L96.285804,114.097419 C96.28457,114.087541 96.28457,114.077546 96.285804,114.067668 C96.2235263,113.90238 96.1481375,113.737093 96.0629155,113.558583 L95.9744156,113.38999 C95.8138047,113.082555 95.6466383,112.781733 95.4696386,112.520579 L95.4434164,112.48091 C95.8039714,111.456129 96.502137,109.651192 97.151136,109.003266 C98.0754679,108.077657 96.6365257,103.142179 96.6365257,103.142179 C96.6365257,103.142179 96.328415,99.6480064 95.9154157,98.6199196 C95.5024163,97.5918328 95.9154157,97.4430743 95.5876384,96.563746 C95.1910279,95.5720224 94.9025839,95.6381373 95.4139165,93.3770075 C95.607305,92.5241252 95.9055824,91.5852935 96.1743597,90.709271 L96.502137,91.0133996 C98.4032452,92.8216423 101.389296,95.175333 101.389296,95.175333 C101.389296,95.175333 107.249954,100.520723 107.764564,100.676093 C108.279174,100.831463 109.823005,106.074375 109.823005,106.074375 C109.823005,106.074375 109.46245,114.761874 114.192276,115.1222 C116.201551,115.274265 117.053772,113.707341 117.361883,111.85943 C117.823292,108.955583 116.973277,105.995761 115.044497,103.790105 L112.212502,100.543863 L109.691894,96.0216038 C108.087327,93.4685673 106.735832,90.76244 105.656956,87.9423622 C104.511812,85.1790008 102.831368,82.6739108 100.714075,80.5738558 L100.510853,80.3722054 L100.773075,80.1275802 C100.773075,80.1275802 100.360076,76.7358855 100.051965,76.3259731 C99.7438542,75.9160607 98.6130226,73.549147 98.6130226,73.0202278 C98.6130226,72.4913085 97.8919126,72.4053591 97.482191,71.7871848 C97.482191,71.7871848 96.761081,70.3491855 96.0924154,70.1343121 C95.9702724,70.0865159 95.8588313,70.0145849 95.7646381,69.9227444 C94.5921836,68.8774108 93.1206574,68.234925 91.5625335,68.0880557 L91.1528119,68.0483868 C90.2416193,68.0067977 89.3287784,68.0200442 88.4191494,68.0880557 L88.396205,68.0880557 C87.6980394,67.876488 87.170318,67.3277343 86.6294855,66.838484 C85.7584978,66.0525496 84.7926688,65.3805847 83.7548788,64.8385081 C82.6896027,64.2798371 81.4833823,63.8467845 80.2935508,64.0517407 C79.3626634,64.203805 78.5301091,64.7128897 77.622166,64.9806551 C76.3307236,65.3475928 74.7442816,65.2715607 73.9313939,66.3393164 C73.541339,66.8484012 73.4298947,67.526079 73.0660619,68.0516925 C72.5481738,68.798791 71.5976197,69.1458942 71.0633428,69.8830754 C70.7057351,70.4196018 70.5425057,71.064081 70.6011768,71.7078469 C70.5833097,72.2288979 70.6452224,72.7496117 70.7847321,73.2516299 C70.9208749,73.6831456 71.020655,74.1254823 71.0830094,74.5739281 C71.0758348,74.6473848 71.0637893,74.7202744 71.0469539,74.7921073 C70.9748429,75.1226818 70.8076765,75.4003644 70.7421211,75.7210217 C70.7089208,75.8953404 70.7033889,76.0738717 70.7257322,76.249941 C70.627399,77.0400141 71.132176,77.7904183 71.4730644,78.5242937 C71.7368198,79.0975344 71.9104373,79.7087088 71.9876747,80.3358422 C71.1346846,80.5902548 70.3028455,80.9119029 69.4998452,81.2978141 C68.4280135,81.8201218 67.3496263,82.5275513 66.733405,83.4333256 C65.7302396,84.85591 64.4744186,86.0787358 63.0295218,87.0398937 C62.584839,88.1440745 62.2071971,89.2745251 61.8986902,90.4249769 C61.5905796,91.7472751 61.2824689,93.9191498 60.358137,95.0530204 C59.4338051,96.1868911 59.0076947,99.5521398 59.0076947,99.5521398 C59.0076947,99.5521398 57.7719743,101.555421 57.7719743,101.96864 C57.7719743,102.381858 57.617919,104.282661 57.7719743,104.844638 C57.8626352,105.021168 57.983598,105.180097 58.1292516,105.314054 L58.0374739,105.644628 C57.6113635,107.155354 57.0344755,109.33384 57.0016977,110.203251 Z M85.9903198,87.0465052 C85.9640977,87.1622063 85.9345977,87.2712959 85.8985422,87.3770797 C85.8985422,87.2712959 85.9149311,87.1688178 85.9214866,87.0630339 L85.9903198,87.0465052 Z M74.2755601,130.986472 L74.1116714,130.834408 L74.0330049,130.761681 C74.0330049,130.722013 74.0526715,130.682344 74.0625048,130.636063 L74.2755601,130.986472 Z M65.753351,109.945403 L65.8189064,109.823091 L66.0614616,109.380121 L68.0281252,107.760305 L68.2805137,107.991708 C68.2805137,107.991708 68.0740141,110.150359 67.5626815,110.047881 C67.4446817,110.024741 67.3922373,110.520603 67.3791262,111.297453 C66.4515165,110.497463 65.7435176,109.945403 65.7435176,109.945403 L65.753351,109.945403 Z"/>
    <path fill="#464353" fillRule="nonzero" d="M84,69.4294947 C84,69.4294947 90.2381862,68.8743503 91.7217184,69.0263541 L92.1260143,69.0627028 C93.6739436,69.2185123 95.1312378,69.8586681 96.2859189,70.8900531 C96.3822347,70.9806716 96.4958148,71.0514378 96.6200477,71.0982323 C97.2883055,71.2998025 98,72.7174034 98,72.7174034 C98,72.7174034 96.4162291,85.1057147 96.4162291,85.2577185 C96.4162291,85.4097223 93.1417661,91.0206459 93.1417661,91.0206459 L89.9708831,92.2366765 L84.5011933,93 L84.347494,90.6670718 C84.347494,90.6670718 86.9804296,89.2395577 86.6863962,86.2887009 C86.3923628,83.3378442 84,69.4294947 84,69.4294947 Z"/>
    <path fill="#ECB4B6" fillRule="nonzero" d="M86.9128665,84.5101872 C86.9128665,84.5101872 85.5722712,90.5976019 86.9128665,92.5559562 C88.2534618,94.5143106 73.6811906,89.3605691 73.6811906,89.3605691 L71,84.5101872 C71,84.5101872 72.0054465,83.7922363 73.1382495,82.8653043 C74.733558,81.574341 76.6439063,79.8822689 76.6439063,79.1575767 C76.6606637,77.9070612 86.9128665,84.5101872 86.9128665,84.5101872 Z"/>
    <path fill="#FCCBB5" fillRule="nonzero" d="M86.9128665,84.5101872 C86.9128665,84.5101872 85.5722712,90.5976019 86.9128665,92.5559562 C88.2534618,94.5143106 73.6811906,89.3605691 73.6811906,89.3605691 L71,84.5101872 C71,84.5101872 72.0054465,83.7922363 73.1382495,82.8653043 C74.733558,81.574341 76.6439063,79.8822689 76.6439063,79.1575767 C76.6606637,77.9070612 86.9128665,84.5101872 86.9128665,84.5101872 Z" opacity=".1"/>
    <circle cx="84" cy="80" r="9" fill="#000" fillRule="nonzero" opacity=".1"/>
    <circle cx="84" cy="80" r="9" fill="#FCCBB5" fillRule="nonzero"/>
    <path fill="#FCCBB5" fillRule="nonzero" d="M94.0027404,90.3107241 C94.0355449,90.6430126 94.6588304,91.3308498 95.5051866,92.1449567 C97.3619215,93.9326688 100.278242,96.2620113 100.278242,96.2620113 C100.278242,96.2620113 106.002628,101.548722 106.511098,101.701574 C107.019567,101.854427 108.518733,107.041451 108.518733,107.041451 C108.518733,107.041451 108.167725,115.634431 112.783319,115.98998 C114.751589,116.13951 115.578262,114.594368 115.880064,112.763459 C116.329674,109.89728 115.501921,106.976663 113.619833,104.788535 L110.877377,101.555367 L108.417039,97.079441 C106.839886,94.5593919 105.511459,91.8882045 104.450975,89.1045168 C103.340791,86.3672483 101.702469,83.8819299 99.6319932,81.7941695 C99.1169625,81.2757995 98.785637,81 98.785637,81 L96.4893217,81.7110974 C96.4893217,81.7110974 93.9043269,89.2872755 94.0027404,90.3107241 Z"/>
    <path fill="#C17174" fillRule="nonzero" d="M104,178.996974 L104.897383,179.869568 C106.451062,181.384444 109.558419,184.410952 110.355349,185.098647 C111.4302,186.042606 113.891307,186.191823 115.940556,185.79283 C116.991968,185.591711 118.284467,184.615314 119.26891,183.716769 C119.728796,183.300572 119.992902,182.720228 119.999859,182.110587 C120.006816,181.500946 119.756019,180.915087 119.305743,180.489143 C118.334694,179.567891 117.196223,178.542836 116.70735,178.396863 C115.786527,178.098429 113.171392,176.314314 111.942512,174.828633 C111.302959,174.053354 110.144397,173.317001 109.183393,172.788254 C108.299404,172.304921 107.586185,172 107.586185,172 L104,178.996974 Z"/>
    <path fill="#C5A692" fillRule="nonzero" d="M105,179.000106 C105,179.000106 105.288079,179.297496 105.734764,179.748485 C107.013318,181.055697 109.567189,183.630906 110.224268,184.228956 C111.107927,185.036159 113.137429,185.163613 114.814115,184.823737 C115.571537,184.67014 116.474617,184.013266 117.238512,183.333515 C117.708013,182.918688 117.983944,182.324268 117.999321,181.694554 C118.014699,181.06484 117.768116,180.457414 117.319433,180.019731 C116.587906,179.310568 115.80459,178.607942 115.4453,178.487025 C114.687878,178.232118 112.532139,176.699411 111.528717,175.424879 C110.878808,174.714697 110.112274,174.123201 109.262925,173.676482 C108.537872,173.261443 107.952003,173 107.952003,173 L105,179.000106 Z" opacity=".1"/>
    <path fill="#C17174" fillRule="nonzero" d="M63,130.772487 C63,130.772487 63.6904103,131.519749 64.5287656,132.396286 C65.584107,133.502991 66.8794481,134.820948 67.3265709,135.114178 C68.1320496,135.647036 70.5978005,139.651355 70.5978005,139.651355 C70.5978005,139.651355 73.2279348,143.800713 76.6865614,143.993046 C80.145188,144.18538 80.1583387,140.326099 79.9051882,140.08647 C79.6520378,139.846842 79.303545,137.671267 78.8005318,136.078998 C78.4191623,134.874549 75.2991655,132.011619 73.8065643,130.690509 C73.3265648,130.264853 73.0142364,130 73.0142364,130 L63,130.772487 Z"/>
    <path fill="#C5A692" fillRule="nonzero" d="M64,131.716162 C64,131.716162 64.6045592,132.409843 65.3459398,133.225561 C66.2782338,134.253236 67.4205325,135.473602 67.815087,135.749789 C68.5278305,136.244359 70.7010618,139.963261 70.7010618,139.963261 C70.7010618,139.963261 73.0111145,143.817045 76.0752753,143.993677 C79.139436,144.170309 79.1362541,140.589501 78.9167037,140.364697 C78.6971532,140.139892 78.382146,138.116656 77.9398632,136.645794 C77.6025828,135.528197 74.8502473,132.869086 73.5329446,131.642297 C73.1097531,131.247285 72.8329286,131 72.8329286,131 L64,131.716162 Z" opacity=".1"/>
    <path fill="#000" fillRule="nonzero" d="M63,130.872051 C63,130.872051 63.7027685,131.715628 64.5561302,132.705139 C69.0538485,133.417018 71.1454214,132.616154 71.1454214,132.616154 C71.1454214,132.616154 73.2436873,131.633762 73.7055065,131.580371 C73.8226346,131.580371 73.9062975,131.256466 74,130.779507 C73.5114086,130.298989 73.1934895,130 73.1934895,130 L63,130.872051 Z" opacity=".1"/>
    <path fill="#5E5A6B" fillRule="nonzero" d="M69.2900403,119 C69.2900403,119 66.5361067,121.354788 64.9759804,122.197987 C63.4158541,123.041186 62.5818243,125.810718 62.5818243,125.810718 C62.5818243,125.810718 60.2301874,131.791948 64.9825218,132.628292 C69.7348562,133.464635 71.9425821,132.628292 71.9425821,132.628292 C71.9425821,132.628292 73.9933141,131.685691 74.4446714,131.634276 C74.8960287,131.582862 74.892758,127.068662 76.544464,125.704461 C78.1961701,124.340261 82,121.248531 82,121.248531 L69.2900403,119 Z"/>
    <path fill="#000" fillRule="nonzero" d="M69.2900403,119 C69.2900403,119 66.5361067,121.354788 64.9759804,122.197987 C63.4158541,123.041186 62.5818243,125.810718 62.5818243,125.810718 C62.5818243,125.810718 60.2301874,131.791948 64.9825218,132.628292 C69.7348562,133.464635 71.9425821,132.628292 71.9425821,132.628292 C71.9425821,132.628292 73.9933141,131.685691 74.4446714,131.634276 C74.8960287,131.582862 74.892758,127.068662 76.544464,125.704461 C78.1961701,124.340261 82,121.248531 82,121.248531 L69.2900403,119 Z" opacity=".1"/>
    <path fill="#5E5A6B" fillRule="nonzero" d="M95.5078333,112 C95.5078333,112 97.498421,114.737592 96.8813388,115.394346 C96.2642566,116.051099 94.75141,116.768168 94.75141,116.768168 C94.75141,116.768168 93.8357396,121.640209 92.3627047,123.69089 C90.8896698,125.741571 88,128 88,128 L90.0270818,116.56377 L95.5078333,112 Z"/>
    <path fill="#000" fillRule="nonzero" d="M88 128C88.903822 127.279306 89.7702518 126.512075 90.5958428 125.701361 91.2379257 125.081032 91.8285595 124.408624 92.3618126 123.69089 93.8356671 121.640209 94.7518469 116.768168 94.7518469 116.768168 94.7518469 116.768168 96.2754938 116.051099 96.8829608 115.394346 97.2547439 114.995602 96.6671938 113.83288 96.1493531 112.978429 95.8174039 112.422199 95.5120106 112 95.5120106 112L92.6340109 114.392461 90.0248902 116.56377 89.2580875 120.993508 88 128zM104 179.052675L104.918521 179.931401C105.497738 179.931401 106.361422 180 106.361422 180 106.361422 180 110.60787 175.14904 109.925834 174.299714 109.617209 173.841484 109.406407 173.329751 109.305489 172.793793 108.400677 172.307064 107.670658 172 107.670658 172L104 179.052675z" opacity=".1"/>
    <path fill="#5E5A6B" fillRule="nonzero" d="M72,127.336937 C72,128.201676 78.8833359,138.788078 78.8833359,138.788078 C78.8833359,138.788078 81.5658854,143.367869 82.1745033,143.776957 C82.7831212,144.186045 84.7545139,147.388906 84.7545139,147.388906 C84.7545139,147.388906 87.2352933,153.13942 87.6421411,153.75139 C88.0489889,154.363359 88.7535303,157.409901 88.7535303,157.409901 C88.7535303,157.409901 90.1725361,161.633819 90.8307696,162.192573 C91.489003,162.751328 91.8429276,164.790116 91.8429276,164.790116 C91.8429276,164.790116 93.9168591,167.84331 94.2707837,168.352176 C94.686231,169.092505 95.0584273,169.856544 95.3854806,170.640409 C95.3854806,170.640409 96.5001774,172.47299 96.5001774,173.188063 C96.5001774,173.903136 98.8155716,175.120422 98.8155716,175.120422 C98.8155716,175.120422 100.469424,177.115974 101.445198,177.448566 C102.420971,177.781158 103.320667,180.145887 103.469514,179.992894 C103.61836,179.839902 105.344983,179.992894 105.344983,179.992894 C105.344983,179.992894 109.443231,175.05723 108.784997,174.192491 C108.126764,173.327752 107.974609,171.288963 107.974609,171.288963 C107.974609,171.288963 109.628462,167.474133 108.735381,167.271252 C107.842301,167.068371 104.398979,161.028501 104.398979,161.028501 C104.349363,156.44871 100.198193,152.580666 100.198193,152.580666 C100.198193,152.580666 98.1209533,147.591787 97.5156431,146.524167 C97.1453724,145.970035 97.1453724,145.245716 97.5156431,144.691585 C97.5156431,144.691585 96.3513307,143.776957 96.1495606,143.31798 C95.9477906,142.859003 94.9852481,139.400047 94.9852481,139.400047 C94.9852481,139.400047 93.8209357,137.31137 93.7680124,136.343527 C93.7150891,135.375684 91.4526183,132.685016 91.4526183,132.685016 C91.4526183,132.685016 90.533076,128.151787 89.520918,127.336937 C89.3224557,127.177293 89.3555327,126.581953 89.520918,125.717214 C89.9873046,123.438959 91.4724645,119.321471 92.4978533,116.62415 C93.0833173,115.080924 93.5166267,114 93.5166267,114 L91.5584649,114.492236 L74.8876272,118.682895 C74.8876272,118.682895 73.9846235,121.120794 73.1907741,123.419004 C72.5590023,125.228304 72,126.954456 72,127.336937 Z"/>
    <path fill="#000" fillRule="nonzero" d="M104.724844 168.806889C104.724844 168.806889 109.811151 166.64394 107.306725 169.400639 104.8023 172.157338 100 171.998298 100 171.998298L104.724844 168.806889zM96 158C96 158 93.6032584 159.849307 94.0572072 161.638229 94.511156 163.42715 96 158 96 158zM93 146C92.4910601 147.317172 91.501252 148.092625 90.4584774 147.991123 88.5981877 147.928113 93 146 93 146zM65.5 123C65.5 123 66.625 126.716255 65.5 126.987567 64.375 127.258878 65.5 123 65.5 123zM94.0024507 90.1885442C94.031642 90.5167064 94.5862765 91.1960024 95.3394119 92 95.7656048 90.4576372 96.1626063 89.0465394 95.9232377 88.5805489 95.567104 87.8782816 96.9624478 86.3720167 96.7114026 85.3678401 96.5187401 84.5999403 98.2001586 82.6539379 99 81.7843079 98.5416967 81.2723747 98.2468646 81 98.2468646 81L96.2034741 81.7022673C96.2034741 81.7022673 93.9148768 89.1778043 94.0024507 90.1885442zM74 123C75.9316911 122.896501 80.4367538 121.538077 80.4367538 121.538077 80.4367538 121.538077 85.6599668 121.369891 89.0811546 120.690679 90.7435394 120.367245 91.9537555 119.904734 91.9537555 119.293443 91.9537555 118.475154 92.6419828 117.378712 93.4233036 116.382535 93.9574833 115.724399 94.5279651 115.094934 95.1322352 114.496913 95.4498688 114.180223 95.691686 113.7992 95.8404111 113.381064 95.8869578 113.248456 95.9434789 113.099677 96 112.944428 95.667523 112.407527 95.3616442 112 95.3616442 112L92.4790691 114.309321 75.7222306 118.384593C75.7222306 118.384593 74.7846456 120.765069 74 123z" opacity=".1"/>
    <path fill="#464353" fillRule="nonzero" d="M67.5930513,120.311651 C67.5930513,120.311651 71.3257198,122.538591 72.4369471,122.942286 C73.5481744,123.345981 79.5,121.499573 79.5,121.499573 C79.5,121.499573 90.9057423,121.12235 90.9057423,119.18329 C90.9057423,117.69756 93.0688435,115.308479 94.0580666,114.295933 C94.3738453,113.97125 94.6137482,113.580182 94.760415,113.151027 C95.1066431,112.158334 95.8056941,110.315235 96.4552839,109.663367 C97.3653691,108.753398 95.9507801,103.892513 95.9507801,103.892513 C95.9507801,103.892513 95.6474184,100.447869 95.2451343,99.4353226 C94.8428502,98.4227761 95.2451343,98.2738721 94.9153933,97.4102295 C94.5262989,96.4406996 94.2559112,96.4969522 94.7472253,94.2700115 C95.2385395,92.0430708 96.4618787,89.2072786 96.0661895,88.4958488 C95.6705002,87.784419 97.2400676,86.2689081 96.9564903,85.2563615 C96.672913,84.2438149 100,81.2061752 100,81.2061752 C100,81.2061752 99.5845263,77.8938905 99.284462,77.4703416 C98.9843976,77.0467927 97.8731703,74.7371276 97.8731703,74.2308543 C97.8731703,73.724581 97.1642271,73.6220028 96.7619431,73.0164602 C96.359659,72.4109177 91.7004182,88.7142412 91.7004182,88.7142412 L84.9110503,90.2496059 L84.5351456,90.3323303 C84.5351456,90.3323303 80.6738781,90.514324 78.1678462,89.1179362 C78.1678462,89.1179362 73.8383465,88.4098154 72.4237574,81.2194111 C71.341906,81.4919711 70.2902059,81.8733301 69.2846228,82.3576988 C68.2327489,82.87059 67.1775776,83.5687839 66.5708541,84.4588984 C65.5919715,85.85906 64.3619821,87.0641891 62.9437028,88.0127383 C62.5076304,89.1003018 62.1365629,90.2129889 61.8324755,91.3448769 C61.5324111,92.6684672 61.2290494,94.7895207 60.3189641,95.9046455 C59.4088789,97.0197703 59,100.358527 59,100.358527 L68.0975551,108.667365 C68.0975551,108.667365 67.8964131,110.795036 67.3919093,110.692458 C66.8874055,110.58988 67.5930513,120.311651 67.5930513,120.311651 Z"/>
    <path fill="#000" fillRule="nonzero" d="M70,83.1247398 L75.0228824,93.1883739 C75.0228824,93.1883739 77.1112003,94.5000238 77.8448414,93.7884537 C78.5784825,93.0768836 81.3424328,93.086721 81.3424328,93.086721 L81.7075472,93.7884537 L87,92.5882941 L86.1708149,90.9487316 L85.7818145,91.0339889 C85.7818145,91.0339889 81.7860297,91.2143408 79.1926937,89.8305501 C79.1926937,89.8305501 74.7123645,89.1255382 73.2484946,82 C72.1290801,82.2690469 71.040745,82.6458658 70,83.1247398 Z" opacity=".1"/>
    <path fill="#464353" fillRule="nonzero" d="M70,83.1278687 L75.0228824,93.1868837 C75.0228824,93.1868837 77.1112003,94.498359 77.8448414,93.7901623 C78.5784825,93.0819657 81.3424328,93.0885231 81.3424328,93.0885231 L81.7075472,93.7901623 L87,92.5868838 L86.1708149,90.9475398 L85.7818145,91.029507 C85.7818145,91.029507 81.7860297,91.2098348 79.1926937,89.8262284 C79.1926937,89.8262284 74.7123645,89.1245892 73.2484946,82 C72.128954,82.2700652 71.0406152,82.6479336 70,83.1278687 Z"/>
    <path fill="#000" fillRule="nonzero" d="M72 112C72 112 82.2073063 115.514419 82.9646834 115.95802 83.7220605 116.401621 72.0471397 113.210446 72 112zM79 117C79 117 76.1580944 118.387436 75.1398003 117.893801 74.1215063 117.400166 79 117 79 117zM87.1823131 98C87.1823131 98 89.6552426 112.698555 86 117L87.1823131 98zM92.1874008 76.4708014C93.2277989 75.3723123 93.2745307 73.6879866 92.2965795 72.5357448 91.9458844 72.1467771 91.4860105 71.8518099 91.1981758 71.4142212 91.0508176 71.1092287 90.8711765 70.8202401 90.6622077 70.5520094 90.1394734 70.026903 89.259427 70.1662831 88.5414945 69.9523509 87.8235619 69.7384186 87.3372205 69.219795 86.8045609 68.7497924 85.9495773 67.9866985 84.999052 67.333181 83.9758404 66.8049538 82.9237549 66.2668818 81.7360232 65.8584657 80.5648337 66.0464668 79.6483944 66.1955711 78.8312085 66.6947463 77.9346199 66.9443339 76.6641771 67.2976463 75.0992826 67.2263355 74.2953305 68.2570999 73.9148593 68.746551 73.8056806 69.3980719 73.4450601 69.9069713 72.9355596 70.6265616 71.9992697 70.9636669 71.4599932 71.673533 70.8677815 72.4741582 70.930642 73.572992 71.1853922 74.5292043 71.3541229 75.1483112 71.592331 75.7836251 71.4434509 76.4059735 71.3706651 76.7106649 71.2085513 76.9926664 71.1456909 77.3005992 70.9802686 78.1044658 71.5096198 78.8661943 71.8636234 79.6117157 72.2446716 80.4184791 72.4325198 81.2998821 72.4128253 82.1886268 72.3879823 82.3879095 72.4164863 82.5900961 72.4955364 82.7753197 72.595735 82.9240463 72.733691 83.0446851 72.8958583 83.1253907L74.417743 84.065396C74.48934 84.115104 74.5703137 84.150363 74.655951 84.1691207 74.953711 84.2145003 75.1356755 83.8806363 75.31764 83.6569799 75.8271405 83.0605627 76.7965149 83.1059423 77.5144474 83.4430477 78.23238 83.780153 78.8212832 84.334432 79.5425242 84.6553304 81.2331396 85.410576 83.1818137 84.7396067 85.0113837 84.3927771 85.637834 84.3043588 86.2562148 84.1677989 86.8608045 83.9843611 87.4307376 83.7577988 87.9742251 83.4720019 88.4819425 83.1318735 88.9969502 82.847922 89.4644641 82.4882681 89.8681809 82.0654537 90.3126396 81.5925358 90.4853515 80.9327314 90.3280548 80.3086162 90.1791747 79.7867512 89.7027587 79.3167485 89.7987036 78.7365384 89.9905934 77.7317051 91.5224034 77.1320465 92.1874008 76.4708014z" opacity=".1"/>
    <path fill="#464353" fillRule="nonzero" d="M92.1870569,76.461484 C93.2279187,75.363246 93.2746425,73.6798154 92.2962338,72.5279081 C91.9455444,72.1426443 91.485678,71.8447933 91.1978479,71.4109668 C91.0497515,71.1057147 90.8701655,70.8160717 90.6618886,70.5465514 C90.1391627,70.0253121 89.2591307,70.1645251 88.5412098,69.9508493 C87.8232889,69.7371736 87.3369553,69.2159343 86.8043043,68.7464952 C85.9502864,67.9831544 84.9996177,67.3303114 83.9756298,66.8039886 C82.9235614,66.2665618 81.7358489,65.8586354 80.5646784,66.0464111 C79.6482541,66.1953366 78.8310814,66.6939133 77.9345074,66.9432016 C76.6640851,67.2960903 75.0992161,67.2216276 74.295277,68.238206 C73.914812,68.7303077 73.8056351,69.3810474 73.4450204,69.8893366 C72.9355282,70.6080641 71.9992535,70.9447652 71.4599857,71.6537801 C70.8677837,72.4534453 70.9306431,73.5509616 71.1853892,74.5060273 C71.3541172,75.1211544 71.5923213,75.7589441 71.4434437,76.3805462 C71.3706591,76.6848722 71.208548,76.9665357 71.1456885,77.2740992 C70.980269,78.0770019 71.5096116,78.837817 71.8636094,79.579207 C72.256323,80.3954993 72.4499865,81.2898743 72.4293443,82.1918784 C72.4045292,82.3919808 72.4330217,82.5949623 72.5120541,82.7811054 C72.614109,82.9280714 72.751601,83.0481623 72.9123695,83.1307566 L74.4342294,84.0663973 C74.505559,84.1171928 74.5865482,84.1535175 74.6724336,84.1732352 C74.9701888,84.2153228 75.1521503,83.8850967 75.3341119,83.6584709 C75.8436041,83.0627689 76.8129627,83.1113315 77.5308837,83.4447952 C78.2488046,83.7782588 78.8376982,84.3351107 79.5589275,84.6556243 C81.2495154,85.4099644 83.1981579,84.7397996 85.0276982,84.3966234 C85.6539248,84.3056608 86.2721723,84.1682096 86.877089,83.9854595 C87.4468708,83.7601952 87.9903441,83.4758291 88.4982007,83.1372316 C89.0133118,82.8524639 89.4808056,82.492159 89.8844166,82.068853 C90.328842,81.5977946 90.5016244,80.9397184 90.344283,80.3173596 C90.1954054,79.7928828 89.718997,79.3234437 89.8149404,78.7471667 C89.9902851,77.7176382 91.5220703,77.1186987 92.1870569,76.461484 Z"/>
    <path fill="#FCCBB5" fillRule="nonzero" d="M58.0017254,111.005768 C57.949578,112.36712 59.0968197,114.183354 59.0968197,114.183354 C59.4455551,115.040379 63.7346748,119.025546 63.7346748,119.025546 L67.1275118,121.332921 C67.1275118,121.332921 71.6675905,124.157808 72.7398704,124.662134 C73.27764,124.915946 73.85452,125.980635 74.3010317,127.02225 C74.7475434,128.063865 75.0571683,129 75.0571683,129 C77.0792097,128.699572 78.6409222,127.048132 78.8476289,124.991759 C78.9747381,123.693037 79.0594775,122.526164 78.9486644,122.50309 C78.6977053,122.453646 75.9045628,120.334157 75.9045628,120.334157 C75.9045628,120.334157 72.6649086,118.214668 71.6154432,116.098475 C70.5659777,113.982283 66.4789291,110.751957 66.4789291,110.751957 L66.5441133,110.629996 L66.7787764,110.194891 L67.2774354,108.530284 L59.4553328,105 C59.4553328,105 59.2630394,105.642769 59.0153395,106.522868 C58.5916423,108.00618 58.0310583,110.158632 58.0017254,111.005768 Z"/>
    <path fill="#000" fillRule="nonzero" d="M59,106.587002 C60.4293925,108.120723 61.9578728,109.540759 63.5736801,110.836184 C64.0433412,111.135035 65.6887313,110.949541 66.2907801,110.867099 L66.5177305,110.41367 L67,108.67896 L59.4349882,105 C59.4349882,105 59.2364066,105.662968 59,106.587002 Z" opacity=".1"/>
    <path fill="#464353" fillRule="nonzero" d="M67.1688176,100.992429 C67.1688176,100.992429 71.193312,103.430828 70.9927449,104.495761 C70.7921777,105.560694 69.0857132,109.243174 69.0857132,109.243174 L67.1688176,110.842232 C67.1688176,110.842232 64.7028284,111.19721 64.097839,110.842232 C63.4928497,110.487254 59.2184684,106.934159 59.067221,106.376811 C58.9159737,105.819463 59.067221,103.938413 59.067221,103.533672 C59.067221,103.128931 60.2739118,101.145036 60.2739118,101.145036 L62.036272,98 L67.1688176,100.992429 Z"/>
    <polygon fill="#000" fillRule="nonzero" points="79.805 122 81 125.108 78.985 126.953 78.892 127.509 74.421 130 73 126.526" opacity=".1"/>
    <polygon fill="#5E5A6B" fillRule="nonzero" points="79.805 122 81 125.105 78.985 126.953 78.892 127.509 74.421 130 73 126.526"/>
    <g fill="#000" fillRule="nonzero" opacity=".1" transform="translate(71 72)">
      <path d="M18.8083582 5.51368421C18.738676 5.33987511 18.7160778 5.15188333 18.7426866 4.96736842 18.9068657 3.97894737 20.4271642 3.38842105 21.0871642 2.75684211 21.5177264 2.32560175 21.7908539 1.77143961 21.8653731 1.17789474 21.9938666 2.03913661 21.7074155 2.90976658 21.0871642 3.54315789 20.4797015 4.11473684 19.1465672 4.65789474 18.8083582 5.51368421zM.239701493 4.27578947C.414046695 4.811336.64625973 5.32784005.932537313 5.81684211 1.31185243 6.60256552 1.49941456 7.46127367 1.48089552 8.32736842 1.45492778 8.5222781 1.4820843 8.72033228 1.55970149 8.90210526 1.66078503 9.04563059 1.79729608 9.16281125 1.95701493 9.24315789L3.46746269 10.1557895C3.53848967 10.2069469 3.6203083 10.2425177 3.70716418 10.26 3.99940299 10.3010526 4.18 9.97894737 4.3638806 9.76105263 4.86955224 9.18 5.83492537 9.22421053 6.5441791 9.54947368 7.25343284 9.87473684 7.84119403 10.4178947 8.55701493 10.7336842 10.238209 11.4663158 12.1689552 10.8157895 13.9847761 10.4778947 14.6066008 10.3906827 15.2203328 10.2565852 15.8202985 10.0768421 16.3861869 9.85789798 16.9256698 9.5804812 17.4292537 9.24947368 17.9416935 8.97201884 18.4068115 8.62055755 18.8083582 8.20736842 19.0334452 7.95530396 19.193232 7.65553812 19.2746269 7.33263158 19.4034882 7.92223394 19.2300271 8.53547889 18.8083582 8.98105263 18.4059107 9.39329686 17.940952 9.74463782 17.4292537 10.0231579 16.9256698 10.3541654 16.3861869 10.6315822 15.8202985 10.8505263 15.219918 11.0287822 14.6063067 11.1628533 13.9847761 11.2515789 12.1722388 11.5863158 10.238209 12.24 8.55701493 11.5042105 7.84119403 11.1884211 7.24358209 10.6515789 6.5441791 10.3231579 5.84477612 9.99473684 4.86955224 9.95052632 4.3638806 10.5315789 4.17343284 10.7526316 3.99283582 11.0747368 3.70716418 11.0336842 3.62077335 11.0148504 3.53923738 10.9794025 3.46746269 10.9294737L1.95701493 10.0168421C1.79870805 9.93454724 1.66263799 9.81774511 1.55970149 9.67578947 1.48237594 9.49394187 1.45522957 9.29596168 1.48089552 9.10105263 1.49941456 8.23495788 1.31185243 7.37624973.932537313 6.59052632.58119403 5.86736842.0558208955 5.12526316.22 4.34210526.225046351 4.31960804.231627756 4.29745484.239701493 4.27578947zM.262686567.868421053C.42358209 1.45578947.653432836 2.06526316.525373134 2.65894737.466268657 2.31789474.354626866 1.97684211.262686567 1.64210526.105475411 1.11089098.0498470848.556641205.0985074627.00631578947.127853063.297623176.182775333.586020279.262686567.868421053z"/>
    </g>
    <circle cx="7" cy="44" r="7" fill="#179A6F" fillRule="nonzero" opacity=".1"/>
    <circle cx="200" cy="14" r="7" fill="#179A6F" fillRule="nonzero" opacity=".1"/>
    <circle cx="314" cy="42" r="7" fill="#179A6F" fillRule="nonzero" opacity=".1"/>
    <circle cx="21" cy="83" r="12" fill="#179A6F" fillRule="nonzero" opacity=".1"/>
    <circle cx="167" cy="260" r="12" fill="#179A6F" fillRule="nonzero" opacity=".1"/>
    <circle cx="326" cy="254" r="12" fill="#179A6F" fillRule="nonzero" opacity=".1"/>
  </g>
</svg>
