<?xml version="1.0" encoding="UTF-8"?>
<svg width="80px" height="80px" viewBox="0 0 80 80" version="1.1" xmlns="http://www.w3.org/2000/svg" xmlns:xlink="http://www.w3.org/1999/xlink">
    <!-- Generator: Sketch 52.6 (67491) - http://www.bohemiancoding.com/sketch -->
    <title>cc-logo</title>
    <desc>Created with Sketch.</desc>
    <g id="cc-logo" stroke="none" stroke-width="1" fill="none" fill-rule="evenodd">
        <g id="Group-8-Copy" transform="translate(9.000000, 22.000000)" fill="#179A6F">
            <polygon id="Path" points="40 4.95406785 52.7061331 18.5 40 32.0459322 44.6469335 37 62 18.5 44.6469335 0"></polygon>
            <path d="M39,32.0459322 L26.1651549,18.5 L39,4.95406785 L34.3002127,0 L21.4495611,13.5459322 L16.7655803,18.5 L13.8045035,21.6212849 C12.6033592,22.9039689 10.786116,23.2947066 9.20433756,22.6103977 C7.62255916,21.9260888 6.58966091,20.302323 6.58966091,18.5 C6.58966091,16.697677 7.62255916,15.0739112 9.20433756,14.3896023 C10.786116,13.7052934 12.6033592,14.0960311 13.8045035,15.3787151 L15.2692354,16.9226959 L19.9690227,11.968628 L18.5042908,10.4246473 C15.4052635,7.15561788 10.7430564,6.17670602 6.69223871,7.94450044 C2.64142099,9.71229486 0,13.8785417 0,18.5 C0,23.1214583 2.64142099,27.2877051 6.69223871,29.0554996 C10.7430564,30.823294 15.4052635,29.8443821 18.5042908,26.5753527 L21.4653676,23.4540678 L34.3160192,37 L39,32.0459322 Z" id="Path"></path>
        </g>
    </g>
</svg>