<?xml version="1.0" encoding="UTF-8"?>
<svg width="80px" height="80px" viewBox="0 0 80 80" version="1.1" xmlns="http://www.w3.org/2000/svg" xmlns:xlink="http://www.w3.org/1999/xlink">
    <!-- Generator: Sketch 52.6 (67491) - http://www.bohemiancoding.com/sketch -->
    <title>messages-grey</title>
    <desc>Created with Sketch.</desc>
    <g id="messages-grey" stroke="none" stroke-width="1" fill="none" fill-rule="evenodd">
        <g id="mail-(7)-copy" transform="translate(19.000000, 19.000000)">
            <polygon id="Path" fill="#898889" points="8.08676997 10.1176471 0.843137255 15.2675537 8.43137255 24.4509804"></polygon>
            <polygon id="Path" fill="#898889" points="34.91323 10.1176471 34.5686275 24.4509804 42.1568627 15.2675537"></polygon>
            <path d="M35.4117647,1.26946638 L35.4117647,32.4560238 C35.4117647,33.1670096 34.8553784,33.7254902 34.1470588,33.7254902 L8.85294118,33.7254902 C8.14462157,33.7254902 7.58823529,33.1670096 7.58823529,32.4560238 L7.58823529,1.26946638 C7.58823529,0.558480577 8.14462157,0 8.85294118,0 L34.1470588,0 C34.8553784,0 35.4117647,0.558480577 35.4117647,1.26946638 Z" id="Path" fill="#DDDCDC"></path>
            <path d="M35.4117647,1.26946638 L35.4117647,32.4560238 C35.4117647,33.1670096 34.8385182,33.7254902 34.1087344,33.7254902 L21.0784314,33.7254902 L21.0784314,0 L34.1087344,0 C34.8385182,0 35.4117647,0.558480577 35.4117647,1.26946638 Z" id="Path" fill="#DDDCDC"></path>
            <g id="Group" transform="translate(13.490196, 8.431373)" fill="#BFBFBF">
                <path d="M17.7058824,1.18039216 C17.7058824,1.84149046 17.1494961,2.36078431 16.4411765,2.36078431 L1.26470588,2.36078431 C0.556386275,2.36078431 0,1.84149046 0,1.18039216 C0,0.519293856 0.556386275,0 1.26470588,0 L16.4411765,0 C17.1494961,0 17.7058824,0.519293856 17.7058824,1.18039216 Z" id="Path"></path>
                <path d="M17.7058824,5.90196078 C17.7058824,6.56305908 17.1494961,7.08235294 16.4411765,7.08235294 L1.26470588,7.08235294 C0.556386275,7.08235294 0,6.56305908 0,5.90196078 C0,5.24086248 0.556386275,4.72156863 1.26470588,4.72156863 L16.4411765,4.72156863 C17.1494961,4.72156863 17.7058824,5.24086248 17.7058824,5.90196078 Z" id="Path"></path>
                <path d="M10.1176471,10.6235294 C10.1176471,11.2846277 9.56126078,11.8039216 8.85294118,11.8039216 L1.26470588,11.8039216 C0.556386275,11.8039216 0,11.2846277 0,10.6235294 C0,9.96243111 0.556386275,9.44313725 1.26470588,9.44313725 L8.85294118,9.44313725 C9.56126078,9.44313725 10.1176471,9.96243111 10.1176471,10.6235294 Z" id="Path"></path>
            </g>
            <g id="Group" transform="translate(21.921569, 8.431373)" fill="#9B9B9B">
                <path d="M0,11.8039216 L0,9.44313725 C0.742049113,9.44313725 1.32492997,9.96243111 1.32492997,10.6235294 C1.32492997,11.2846277 0.742049113,11.8039216 0,11.8039216 Z" id="Path"></path>
                <path d="M7.94957983,7.08235294 L0,7.08235294 L0,4.72156863 L7.94957983,4.72156863 C8.69162894,4.72156863 9.2745098,5.24086248 9.2745098,5.90196078 C9.2745098,6.56305908 8.69162894,7.08235294 7.94957983,7.08235294 Z" id="Path"></path>
                <path d="M7.94957983,2.36078431 L0,2.36078431 L0,0 L7.94957983,0 C8.69162894,0 9.2745098,0.519293856 9.2745098,1.18039216 C9.2745098,1.84149046 8.69162894,2.36078431 7.94957983,2.36078431 Z" id="Path"></path>
            </g>
            <path d="M42.5464844,15.7751837 C42.5212891,15.7751837 41.7402344,15.1764706 41.7402344,15.1764706 L39.6489395,16.7231462 L22.2558594,29.5706151 C22.0291855,29.7450735 21.7519531,29.8450253 21.5,29.8450253 C21.2480469,29.8450253 20.9708145,29.7451566 20.7441406,29.5706151 L3.35106055,16.7231462 L1.25976562,15.1764706 C1.25976562,15.1764706 0.478710937,15.7751837 0.453515625,15.7751837 C0.176367187,15.9997843 0,16.3488673 0,16.7231462 L0,39.258043 C0,41.3286757 1.68800195,43 3.77929688,43 L39.2207031,43 C41.311998,43 43,41.3286757 43,39.258043 L43,16.7231462 C43,16.3488673 42.8236328,15.9997843 42.5464844,15.7751837 Z" id="Path" fill="#BFBFBF"></path>
            <path d="M43,16.7231462 L43,39.258043 C43,41.3286757 41.2789,43 39.1465993,43 L21.0784314,43 L21.0784314,29.8449422 C21.3352391,29.8449422 21.6179931,29.7450735 21.8491115,29.570532 L39.5832324,16.7231462 L41.7155331,15.1764706 C41.7155331,15.1764706 42.5119026,15.7751837 42.5375919,15.7751837 C42.8201746,15.9997843 43,16.3488673 43,16.7231462 Z" id="Path" fill="#9B9B9B"></path>
        </g>
    </g>
</svg>