<?xml version="1.0" encoding="UTF-8"?>
<svg width="80px" height="80px" viewBox="0 0 80 80" version="1.1" xmlns="http://www.w3.org/2000/svg" xmlns:xlink="http://www.w3.org/1999/xlink">
    <!-- Generator: Sketch 52.6 (67491) - http://www.bohemiancoding.com/sketch -->
    <title>notifications</title>
    <desc>Created with Sketch.</desc>
    <g id="notifications" stroke="none" stroke-width="1" fill="none" fill-rule="evenodd">
        <g id="Group-3-Copy" transform="translate(19.000000, 19.000000)">
            <g id="mail-(7)" transform="translate(0.000000, 3.526316)">
                <polygon id="Path" fill="#68544F" points="7.97612537 8.64942529 0.693548387 13.3109788 8.32258065 21.6235632"></polygon>
                <polygon id="Path" fill="#53433F" points="35.0238746 8.64942529 34.6774194 21.6235632 42.3064516 13.3109788"></polygon>
                <path d="M35.3709677,1.11625492 L35.3709677,28.5389175 C35.3709677,29.1640947 34.8162131,29.6551724 34.1099707,29.6551724 L8.89002933,29.6551724 C8.1837869,29.6551724 7.62903226,29.1640947 7.62903226,28.5389175 L7.62903226,1.11625492 C7.62903226,0.491077748 8.1837869,0 8.89002933,0 L34.1099707,0 C34.8162131,0 35.3709677,0.491077748 35.3709677,1.11625492 Z" id="Path" fill="#F7F0EB"></path>
                <path d="M35.3709677,1.11625492 L35.3709677,28.5389175 C35.3709677,29.1640947 34.7884754,29.6551724 34.0469208,29.6551724 L20.8064516,29.6551724 L20.8064516,0 L34.0469208,0 C34.7884754,0 35.3709677,0.491077748 35.3709677,1.11625492 Z" id="Path" fill="#EFE2DD"></path>
                <g id="Group" transform="translate(13.177419, 7.413793)" fill="#E1D3CE">
                    <path d="M18.0322581,1.05028736 C18.0322581,1.6385183 17.4656158,2.10057471 16.7442396,2.10057471 L1.28801843,2.10057471 C0.566642243,2.10057471 0,1.6385183 0,1.05028736 C0,0.462056418 0.566642243,0 1.28801843,0 L16.7442396,0 C17.4656158,0 18.0322581,0.462056418 18.0322581,1.05028736 Z" id="Path"></path>
                    <path d="M18.0322581,5.25143678 C18.0322581,5.83966772 17.4656158,6.30172414 16.7442396,6.30172414 L1.28801843,6.30172414 C0.566642243,6.30172414 0,5.83966772 0,5.25143678 C0,4.66320584 0.566642243,4.20114943 1.28801843,4.20114943 L16.7442396,4.20114943 C17.4656158,4.20114943 18.0322581,4.66320584 18.0322581,5.25143678 Z" id="Path"></path>
                    <path d="M10.3041475,9.45258621 C10.3041475,10.0408171 9.73750522,10.5028736 9.01612903,10.5028736 L1.28801843,10.5028736 C0.566642243,10.5028736 0,10.0408171 0,9.45258621 C0,8.86435527 0.566642243,8.40229885 1.28801843,8.40229885 L9.01612903,8.40229885 C9.73750522,8.40229885 10.3041475,8.86435527 10.3041475,9.45258621 Z" id="Path"></path>
                </g>
                <g id="Group" transform="translate(21.500000, 7.413793)" fill="#CDBFBA">
                    <path d="M0,10.5028736 L0,8.40229885 C0.776866667,8.40229885 1.38709677,8.86435527 1.38709677,9.45258621 C1.38709677,10.0408171 0.776866667,10.5028736 0,10.5028736 Z" id="Path"></path>
                    <path d="M8.32258065,6.30172414 L0,6.30172414 L0,4.20114943 L8.32258065,4.20114943 C9.09944731,4.20114943 9.70967742,4.66320584 9.70967742,5.25143678 C9.70967742,5.83966772 9.09944731,6.30172414 8.32258065,6.30172414 Z" id="Path"></path>
                    <path d="M8.32258065,2.10057471 L0,2.10057471 L0,0 L8.32258065,0 C9.09944731,0 9.70967742,0.462056418 9.70967742,1.05028736 C9.70967742,1.6385183 9.09944731,2.10057471 8.32258065,2.10057471 Z" id="Path"></path>
                </g>
                <path d="M42.5464844,14.1237264 C42.5212891,14.1237264 41.7402344,13.591954 41.7402344,13.591954 L39.6489395,14.9656993 L22.2558594,26.3767219 C22.0291855,26.5316745 21.7519531,26.6204509 21.5,26.6204509 C21.2480469,26.6204509 20.9708145,26.5317483 20.7441406,26.3767219 L3.35106055,14.9656993 L1.25976563,13.591954 C1.25976563,13.591954 0.478710938,14.1237264 0.453515625,14.1237264 C0.176367188,14.3232149 0,14.6332677 0,14.9656993 L0,34.9810204 C0,36.8201404 1.68800195,38.3045977 3.77929688,38.3045977 L39.2207031,38.3045977 C41.311998,38.3045977 43,36.8201404 43,34.9810204 L43,14.9656993 C43,14.6332677 42.8236328,14.3232149 42.5464844,14.1237264 Z" id="Path" fill="#69D5B1"></path>
                <path d="M43,14.9656993 L43,34.9810204 C43,36.8201404 41.2575464,38.3045977 39.0987903,38.3045977 L20.8064516,38.3045977 L20.8064516,26.620377 C21.0664456,26.620377 21.3527077,26.5316745 21.5866935,26.376648 L39.5408407,14.9656993 L41.6995968,13.591954 C41.6995968,13.591954 42.5058468,14.1237264 42.5318548,14.1237264 C42.8179435,14.3232149 43,14.6332677 43,14.9656993 Z" id="Path" fill="#179A6F"></path>
            </g>
            <g id="Group-2" transform="translate(26.980392, 0.000000)">
                <ellipse id="Oval" fill="#EA7A71" fill-rule="nonzero" cx="5.67053659" cy="5.60048326" rx="5.67053659" ry="5.60048326"></ellipse>
                <text id="3" font-family="Lato-Bold, Lato" font-size="6" font-weight="bold" fill="#FFFFFF">
                    <tspan x="4.46520867" y="8">3</tspan>
                </text>
            </g>
        </g>
    </g>
</svg>