<svg id="2ac90306-8fdf-4414-8dd0-aa8ee602b7f9" data-name="Layer 1" xmlns="http://www.w3.org/2000/svg" xmlns:xlink="http://www.w3.org/1999/xlink" width="892.65" height="718.78" viewBox="0 0 892.65 718.78"><defs><linearGradient id="19a6f5cc-0c1a-48f8-8d3e-d712f2b585f2" x1="778.13" y1="826.39" x2="778.13" y2="223.09" gradientUnits="userSpaceOnUse"><stop offset="0" stop-color="gray" stop-opacity="0.25"/><stop offset="0.54" stop-color="gray" stop-opacity="0.12"/><stop offset="1" stop-color="gray" stop-opacity="0.1"/></linearGradient><linearGradient id="f9a8e7fe-52e2-4609-9562-f073258bad87" x1="438.15" y1="323" x2="438.15" y2="212" xlink:href="#19a6f5cc-0c1a-48f8-8d3e-d712f2b585f2"/><linearGradient id="03542ad7-8635-408d-a0dc-033ae17e7be0" x1="311.15" y1="111" x2="311.15" y2="0" xlink:href="#19a6f5cc-0c1a-48f8-8d3e-d712f2b585f2"/><linearGradient id="c2451584-855d-4ef8-8bdc-f81b7dc4287b" x1="59.15" y1="113" x2="59.15" y2="2" xlink:href="#19a6f5cc-0c1a-48f8-8d3e-d712f2b585f2"/><linearGradient id="0447cb83-49bf-4176-b41b-4f3359e6e789" x1="831.15" y1="114" x2="831.15" y2="3" xlink:href="#19a6f5cc-0c1a-48f8-8d3e-d712f2b585f2"/><linearGradient id="204aca18-3c02-4da2-8785-dae214211316" x1="226.86" y1="468.27" x2="226.86" y2="371.35" xlink:href="#19a6f5cc-0c1a-48f8-8d3e-d712f2b585f2"/><linearGradient id="2c3c4cb2-e8ad-4f15-a5c6-4d937b7750c2" x1="271.06" y1="636.86" x2="271.06" y2="501.01" xlink:href="#19a6f5cc-0c1a-48f8-8d3e-d712f2b585f2"/><linearGradient id="2c9b66ef-6bd0-4871-81de-6c7d48fe61ec" x1="236.47" y1="808.17" x2="236.47" y2="680.41" xlink:href="#19a6f5cc-0c1a-48f8-8d3e-d712f2b585f2"/><linearGradient id="09be4d88-9ff6-4aed-88a8-483555179374" x1="236.47" y1="714.55" x2="236.47" y2="680.41" xlink:href="#19a6f5cc-0c1a-48f8-8d3e-d712f2b585f2"/><linearGradient id="a3215504-05a2-49e2-b5b6-2515a1fedf37" x1="219.18" y1="625.65" x2="219.18" y2="464.27" xlink:href="#19a6f5cc-0c1a-48f8-8d3e-d712f2b585f2"/><linearGradient id="001f0174-5997-458a-8083-65a6cb58800a" x1="259.05" y1="791.09" x2="259.05" y2="625.65" xlink:href="#19a6f5cc-0c1a-48f8-8d3e-d712f2b585f2"/><linearGradient id="7782b2d5-fc56-4adc-97b4-2f080a8d54c8" x1="285.46" y1="816.81" x2="285.46" y2="788.95" xlink:href="#19a6f5cc-0c1a-48f8-8d3e-d712f2b585f2"/><linearGradient id="664145c9-0a4f-49bb-ae7e-3209b274042d" x1="225.91" y1="481.56" x2="225.91" y2="418.16" xlink:href="#19a6f5cc-0c1a-48f8-8d3e-d712f2b585f2"/><linearGradient id="0dc13a13-d3a0-453a-b276-a6d7d8476bb1" x1="72.29" y1="384.52" x2="72.29" y2="356.77" xlink:href="#19a6f5cc-0c1a-48f8-8d3e-d712f2b585f2"/><linearGradient id="56f987fb-55a8-4084-a281-5854b6cf7bf5" x1="225.91" y1="452.74" x2="225.91" y2="421.04" xlink:href="#19a6f5cc-0c1a-48f8-8d3e-d712f2b585f2"/><linearGradient id="3b266069-8000-470a-a147-ed0a3d16c860" x1="78.06" y1="342.25" x2="78.06" y2="238.51" xlink:href="#19a6f5cc-0c1a-48f8-8d3e-d712f2b585f2"/><linearGradient id="8ef6ab61-c691-4200-b7b5-1da18746e270" x1="219" y1="490.8" x2="219" y2="331.7" xlink:href="#19a6f5cc-0c1a-48f8-8d3e-d712f2b585f2"/><linearGradient id="e71b79ad-30b4-4684-9eca-bc77f8e1f994" x1="219" y1="488.71" x2="219" y2="329.61" xlink:href="#19a6f5cc-0c1a-48f8-8d3e-d712f2b585f2"/><linearGradient id="2ca5798a-0a53-4b36-8a83-150811acbb2a" x1="196.07" y1="424.59" x2="196.07" y2="403.83" gradientTransform="translate(508.01 78.5) rotate(68.23)" xlink:href="#19a6f5cc-0c1a-48f8-8d3e-d712f2b585f2"/><linearGradient id="7c9d44a0-4c16-475f-bac5-f85460c7951d" x1="173.65" y1="518.04" x2="173.65" y2="404.34" xlink:href="#19a6f5cc-0c1a-48f8-8d3e-d712f2b585f2"/><linearGradient id="35fd32aa-af91-4147-abae-9a60ea28e4ce" x1="241.07" y1="598.36" x2="241.07" y2="503.76" xlink:href="#19a6f5cc-0c1a-48f8-8d3e-d712f2b585f2"/><linearGradient id="5e1b93b1-54d3-40b0-8216-d49e7f7c5724" x1="315.81" y1="597.79" x2="315.81" y2="566.11" xlink:href="#19a6f5cc-0c1a-48f8-8d3e-d712f2b585f2"/></defs><title>meeting</title><path d="M1005,725s2.51-354.58-129.54-454.28c7.24-14.5,10.62-33.27-15.25-39.52-20.61-5-32.27,4.3-38.85,15.62a128.25,128.25,0,0,0-22.12-1.9H794.7a106.12,106.12,0,0,0-11,3.07c-5.2-7.86-20.46-28.11-37.73-24.41-16.84,3.61-7.1,32.83-2.25,45-20.9,15.88-39.59,41.49-36.41,81.74-1.55.81-2.49,1.28-2.49,1.28a22.23,22.23,0,0,0-6.36,8.69h0c-4.11,9.25-4.68,21.7-4.58,29.14-.07,5.54.28,9.42.28,9.42,7.62,21.34,29,21.34,29,21.34,2.35.13,4.61.21,6.85.27l.85,1.61q-.34,2-.7,3.87c-7.89,4.41-35.32,20.18-40.53,29.3-6.1,10.67-50.29-38.1-50.29-38.1s-3-19.81-22.86-19.81c-7.53,0-13.3-4.84-17.56-10.85-10.24-14.44-33.07-10.59-36.85,6.7-.1.44-.17.89-.24,1.33a34.83,34.83,0,0,0-9.36,7.39s-3-45.72-24.39,0a76,76,0,0,0-7.22,32.46c-.4,28.92,17.52,54.63,58.13,49.49a35.75,35.75,0,0,0,10.06,9.5c20,12.24,34.35,29.33,40.64,37.68A207.93,207.93,0,0,0,602,572.24c-21,5.24-55.73,29.18-40.44,132.9,0,0-32,3-3,21.34,0,0,26.74,17,55.25,8.7a99.84,99.84,0,0,0,27.1,16.19c-1.83,10.57-3.39,22.06-4.63,34.56,0,0-22.07,10.25-20.3,16.57-.76,3.19,2.9,5.77,15.65,6.29,0,.12,0,.24,0,.37-.23,2.29-.19,14.6,27.48,11.83,0,0,0,12.19,53.34,0,46.73-10.68,161.32-71.67,189-86.61,15.68,27.42,45.88,47.42,102.11,42.41V766.11s16.76,6.1,19.81,1.52,0-13.72,0-13.72,12.19,3,12.19-1.52S1035.5,731.05,1005,725Z" transform="translate(-147.85 -107.61)" fill="url(#19a6f5cc-0c1a-48f8-8d3e-d712f2b585f2)"/><path d="M887.21,613.89S847.34,782.23,996.49,768.94V758.6s16.24,5.91,19.2,1.48,0-13.29,0-13.29,11.81,3,11.81-1.48,0-20.67-29.53-26.58c0,0,3.3-465.16-199.36-465.16h-4.43s-140.29,28.06-60.55,174.25c0,0-35.44,19.2-41.35,29.53s-48.73-36.92-48.73-36.92-3-19.2-22.15-19.2c-7.3,0-12.89-4.69-17-10.51-9.92-14-32-10.26-35.7,6.49a18.77,18.77,0,0,0-.44,4c0,17.72,0,76.79,26.58,93s42.82,41.35,42.82,41.35l-16.24,34s-73.84-10.34-53.16,130c0,0-31,3-3,20.67,0,0,32.49,20.67,63.5,4.43l266.55.74Z" transform="translate(-147.85 -107.61)" fill="#926b5a"/><rect x="389.65" y="212" width="97" height="111" fill="url(#f9a8e7fe-52e2-4609-9562-f073258bad87)"/><rect x="391.65" y="214" width="93" height="107" fill="#fff"/><g opacity="0.2"><rect x="398.65" y="239" width="46" height="4" fill="#38d39f"/></g><rect x="398.65" y="254" width="76" height="4" fill="#eee"/><rect x="398.65" y="264" width="64" height="4" fill="#eee"/><rect x="398.65" y="274" width="56" height="4" fill="#eee"/><rect x="398.65" y="284" width="72" height="4" fill="#eee"/><rect x="398.65" y="294" width="31" height="4" fill="#eee"/><g opacity="0.2"><rect x="446.65" y="304" width="24" height="4" fill="#38d39f"/></g><rect x="391.65" y="214" width="93" height="17" fill="#38d39f"/><path d="M871.71,500.92s19.2,84.17,5.91,124" transform="translate(-147.85 -107.61)" fill="none" stroke="#000" stroke-miterlimit="10" opacity="0.1"/><g opacity="0.1"><path d="M801.56,371.71s78.27,34,4.43,153.58c0,0-94.51,84.17-104.85,128.47s-48.73,93-48.73,93-84.62-20.61-62.31-126.94a200.77,200.77,0,0,1,68.43-113,246.31,246.31,0,0,1,61.81-37.68s22.15-56.11,11.81-97.46Z" transform="translate(-147.85 -107.61)"/></g><path d="M803,371.71s78.27,34,4.43,153.58c0,0-94.51,84.17-104.85,128.47s-48.73,93-48.73,93-84.62-20.61-62.31-126.94a200.77,200.77,0,0,1,68.43-113,246.31,246.31,0,0,1,61.81-37.68s22.15-56.11,11.81-97.46Z" transform="translate(-147.85 -107.61)" fill="#c5a692"/><path d="M811.9,283.1s3-53.16,45.78-42.82,3,56.11,3,56.11Z" transform="translate(-147.85 -107.61)" fill="#926b5a"/><path d="M817.7,280.37s2.43-43.76,37.68-35.25,2.43,46.19,2.43,46.19Z" transform="translate(-147.85 -107.61)" fill="#c5a692"/><path d="M785.32,259.48s-17.72-31-38.39-26.58,0,48.73,0,48.73Z" transform="translate(-147.85 -107.61)" fill="#926b5a"/><g opacity="0.1"><path d="M817.81,359.89s13.29,69.41-93,63.5c0,0-20.67,0-28.06-20.67,0,0-3-32.49,10.34-42.82,0,0,32.49-16.24,32.49-23.63S817.81,359.89,817.81,359.89Z" transform="translate(-147.85 -107.61)"/></g><path d="M817.81,356.94s13.29,69.41-93,63.5c0,0-20.67,0-28.06-20.67,0,0-3-32.49,10.34-42.82,0,0,32.49-16.24,32.49-23.63S817.81,356.94,817.81,356.94Z" transform="translate(-147.85 -107.61)" fill="#926b5a"/><path d="M700.89,365.36s25.36-5.47,40.13,6.34c0,0-10.06,22.85-22.75,22.5S700.89,365.36,700.89,365.36Z" transform="translate(-147.85 -107.61)" fill="#c5a692"/><g opacity="0.1"><path d="M757.26,639S659.8,584.35,640.6,777.8c0,0-41.35,19.2-4.43,20.67,0,0-3,14.77,26.58,11.81,0,0,0,11.81,51.68,0s189-87.13,189-87.13Z" transform="translate(-147.85 -107.61)"/></g><path d="M757.26,640.47S659.8,585.83,640.6,779.28c0,0-41.35,19.2-4.43,20.67,0,0-3,14.77,26.58,11.81,0,0,0,11.81,51.68,0s189-87.13,189-87.13L900.64,718a130.63,130.63,0,0,0-143.37-77.53Z" transform="translate(-147.85 -107.61)" fill="#926b5a"/><g opacity="0.1"><path d="M559.38,405.67s-3-44.3-23.63,0,3,106.32,90.08,65c0,0-4.43-32.49-10.34-35.44s0-23.63-10.34-26.58S586,423.39,586,423.39s0-25.1-8.86-26.58S559.38,405.67,559.38,405.67Z" transform="translate(-147.85 -107.61)"/></g><path d="M559.38,407.15s-3-44.3-23.63,0,3,106.32,90.08,65c0,0-4.43-32.49-10.34-35.44s0-23.63-10.34-26.58S586,424.87,586,424.87s0-25.1-8.86-26.58S559.38,407.15,559.38,407.15Z" transform="translate(-147.85 -107.61)" fill="#926b5a"/><path d="M721.08,468.43s57.59-11.81,85.65,56.11" transform="translate(-147.85 -107.61)" fill="none" stroke="#000" stroke-miterlimit="10" opacity="0.1"/><rect x="274.65" y="16" width="93" height="107" opacity="0.1"/><rect x="262.65" width="97" height="111" fill="url(#03542ad7-8635-408d-a0dc-033ae17e7be0)"/><rect x="264.65" y="2" width="93" height="107" fill="#fff"/><rect x="273.65" y="15" width="14" height="15" fill="#3ad29f"/><rect x="298.65" y="20" width="46" height="4" fill="#eee"/><rect x="287.65" y="43" width="46" height="4" fill="#eee"/><rect x="287.65" y="52" width="46" height="4" fill="#eee"/><rect x="287.65" y="61" width="46" height="4" fill="#eee"/><rect x="287.65" y="70" width="46" height="4" fill="#eee"/><rect x="287.65" y="79" width="46" height="4" fill="#eee"/><rect x="287.65" y="88" width="46" height="4" fill="#eee"/><rect x="22.65" y="19" width="93" height="107" opacity="0.1"/><rect x="10.65" y="2" width="97" height="111" fill="url(#c2451584-855d-4ef8-8bdc-f81b7dc4287b)"/><rect x="12.65" y="4" width="93" height="107" fill="#fff"/><rect x="48.65" y="29" width="46" height="4" fill="#eee"/><rect x="48.65" y="56" width="46" height="4" fill="#eee"/><rect x="48.65" y="83" width="46" height="4" fill="#eee"/><rect x="22.65" y="23.5" width="16" height="16" fill="#38d39f"/><rect x="22.65" y="49.5" width="16" height="16" fill="#38d39f"/><rect x="22.65" y="75.5" width="16" height="16" fill="#38d39f"/><rect x="799.65" y="20" width="93" height="107" opacity="0.1"/><rect x="782.65" y="3" width="97" height="111" fill="url(#0447cb83-49bf-4176-b41b-4f3359e6e789)"/><rect x="784.65" y="5" width="93" height="107" fill="#fff"/><rect x="810.65" y="23" width="46" height="4" fill="#38d39f"/><rect x="810.65" y="81" width="46" height="4" fill="#eee"/><rect x="810.65" y="90" width="46" height="4" fill="#eee"/><rect x="835.65" y="42" width="34" height="4" fill="#eee"/><rect x="835.65" y="51" width="34" height="4" fill="#eee"/><rect x="835.65" y="60" width="34" height="4" fill="#eee"/><path d="M954.5,147.61a14,14,0,1,0,14,14h-14Z" transform="translate(-147.85 -107.61)" fill="#3ad29f"/><path d="M956.5,144.61v14h14A14,14,0,0,0,956.5,144.61Z" transform="translate(-147.85 -107.61)" fill="#3ad29f" opacity="0.25"/><path d="M174.11,411.6l25.09,49.13s55.4,14.63,77.35,3.14c0,0,7.32-88.85,0-92S168.89,379.19,174.11,411.6Z" transform="translate(-147.85 -107.61)" fill="url(#204aca18-3c02-4da2-8785-dae214211316)"/><path d="M292,633.66,273,636.86,250.15,501.41l.82-.14a18.38,18.38,0,0,1,21.18,15.06Z" transform="translate(-147.85 -107.61)" fill="url(#2c3c4cb2-e8ad-4f15-a5c6-4d937b7750c2)"/><path d="M320,711.47V777.1A31.07,31.07,0,0,1,289,808.17H184A31.07,31.07,0,0,1,152.9,777.1V711.47A31,31,0,0,1,184,680.41H289A31,31,0,0,1,320,711.47Z" transform="translate(-147.85 -107.61)" fill="url(#2c9b66ef-6bd0-4871-81de-6c7d48fe61ec)"/><path d="M318.16,700.79c-61.45,31-163.38,0-163.38,0A31.09,31.09,0,0,1,184,680.41H289A31.09,31.09,0,0,1,318.16,700.79Z" transform="translate(-147.85 -107.61)" fill="url(#09be4d88-9ff6-4aed-88a8-483555179374)"/><path d="M276.82,625.65H161.55V513.1a48.83,48.83,0,0,1,48.83-48.83h31.06c27,0,35.38,21.86,35.38,48.83Z" transform="translate(-147.85 -107.61)" fill="url(#a3215504-05a2-49e2-b5b6-2515a1fedf37)"/><path d="M311,625.65H161.55c0,24.93,20.21,54.75,45.15,54.75h95.1L236.47,789h0c55.71,0,1,4.8,55.71,0l59.65-100.61a33.66,33.66,0,0,0,4.71-17.17h0A45.53,45.53,0,0,0,311,625.65Z" transform="translate(-147.85 -107.61)" fill="url(#001f0174-5997-458a-8083-65a6cb58800a)"/><path d="M334.46,816.81h-98V789h71.33a26.65,26.65,0,0,1,26.65,26.65Z" transform="translate(-147.85 -107.61)" fill="url(#7782b2d5-fc56-4adc-97b4-2f080a8d54c8)"/><path d="M219,481.56h-9.41v-63.4h32.66v40.15A23.25,23.25,0,0,1,219,481.56Z" transform="translate(-147.85 -107.61)" fill="url(#664145c9-0a4f-49bb-ae7e-3209b274042d)"/><polygon points="59.3 356.77 93.43 379.72 71.33 384.52 51.16 381.64 59.3 356.77" fill="url(#0dc13a13-d3a0-453a-b276-a6d7d8476bb1)"/><g opacity="0.1"><path d="M209.58,450.11a51.86,51.86,0,0,0,32.66,0V421H209.58Z" transform="translate(-147.85 -107.61)" fill="url(#56f987fb-55a8-4084-a281-5854b6cf7bf5)"/></g><circle cx="78.06" cy="290.38" r="51.87" fill="url(#3b266069-8000-470a-a147-ed0a3d16c860)"/><g opacity="0.1"><path d="M228.47,386.51s32.41,13.59,61.67,0c0,0-12.54-60.63-62.72-54.36s-113.94,80.49-57.49,121.26L219,490.8l-8.3-28S168.89,423.1,228.47,386.51Z" transform="translate(-147.85 -107.61)" fill="url(#8ef6ab61-c691-4200-b7b5-1da18746e270)"/></g><path d="M228.47,384.42s32.41,13.59,61.67,0c0,0-12.54-60.63-62.72-54.36s-113.94,80.49-57.49,121.26L219,488.71l-8.3-28S168.89,421,228.47,384.42Z" transform="translate(-147.85 -107.61)" fill="url(#e71b79ad-30b4-4684-9eca-bc77f8e1f994)"/><ellipse cx="196.07" cy="414.21" rx="10.98" ry="5.23" transform="translate(-409.17 335.05) rotate(-68.23)" fill="url(#2ca5798a-0a53-4b36-8a83-150811acbb2a)"/><polygon points="142.29 423.16 150.1 518.04 205.01 496.33 196.65 404.34 142.29 423.16" fill="url(#7c9d44a0-4c16-475f-bac5-f85460c7951d)"/><path d="M175.5,517.64c6.72,18.25,38.3,87,130.78,80.26a1.13,1.13,0,0,0,1-1.35l-3.58-17s-54.25-1.64-76.07-41.42a76.43,76.43,0,0,0-23.9-26.8c-9.18-6.22-19.49-10.59-25.7-5A10.38,10.38,0,0,0,175.5,517.64Z" transform="translate(-147.85 -107.61)" fill="url(#35fd32aa-af91-4147-abae-9a60ea28e4ce)"/><path d="M303.72,579.54s22.09-22.09,28.82-9.61-18.25,24-25.94,27.86L298,588.19Z" transform="translate(-147.85 -107.61)" fill="url(#5e1b93b1-54d3-40b0-8216-d49e7f7c5724)"/><path d="M177.5,418.61l24,47s53,14,74,3c0,0,7-85,0-88S172.5,387.61,177.5,418.61Z" transform="translate(-147.85 -107.61)" fill="#fdd835"/><path d="M261,502.08h0a18.38,18.38,0,0,1,18.38,18.38v113a0,0,0,0,1,0,0H261a0,0,0,0,1,0,0V502.08A0,0,0,0,1,261,502.08Z" transform="matrix(0.99, -0.17, 0.17, 0.99, -238.61, -54.69)" fill="#fdb797"/><path d="M317.1,705.48v62.78A29.72,29.72,0,0,1,287.39,798H186.93a29.72,29.72,0,0,1-29.72-29.72V705.48a29.68,29.68,0,0,1,29.72-29.72H287.39a29.68,29.68,0,0,1,29.72,29.72Z" transform="translate(-147.85 -107.61)" fill="#3ad29f"/><path d="M315.3,695.26c-58.78,29.61-156.29,0-156.29,0a29.75,29.75,0,0,1,27.92-19.5H287.39A29.75,29.75,0,0,1,315.3,695.26Z" transform="translate(-147.85 -107.61)" fill="#fff" opacity="0.5"/><path d="M275.75,623.38H165.48V515.71A46.71,46.71,0,0,1,212.19,469H241.9c25.8,0,33.85,20.91,33.85,46.71Z" transform="translate(-147.85 -107.61)" fill="#38d39f"/><path d="M308.47,623.38h-143c0,23.85,19.34,52.38,43.19,52.38h91L237.16,779.6h0c53.3,0,.92,4.59,53.3,0l57.07-96.25a32.2,32.2,0,0,0,4.5-16.42h0A43.55,43.55,0,0,0,308.47,623.38Z" transform="translate(-147.85 -107.61)" fill="#0e0d15"/><path d="M89.3,672h67.08A26.65,26.65,0,0,1,183,698.64v0a0,0,0,0,1,0,0H89.3a0,0,0,0,1,0,0V672A0,0,0,0,1,89.3,672Z" fill="#0e0d15"/><path d="M65.07,318.78H96.32a0,0,0,0,1,0,0v37.4a23.25,23.25,0,0,1-23.25,23.25h-8a0,0,0,0,1,0,0V318.78A0,0,0,0,1,65.07,318.78Z" fill="#fdb797"/><polygon points="61.25 361.49 93.9 383.44 72.76 388.04 53.47 385.28 61.25 361.49" fill="#38d39f"/><path d="M211.43,455.44a49.61,49.61,0,0,0,31.24,0v-27.8H211.43Z" transform="translate(-147.85 -107.61)" opacity="0.1"/><circle cx="80.7" cy="299.48" r="49.62" fill="#fdb797"/><path d="M229.5,394.61s31,13,59,0c0,0-12-58-60-52s-109,77-55,116l46.94,35.76-7.94-26.76S172.5,429.61,229.5,394.61Z" transform="translate(-147.85 -107.61)" opacity="0.1"/><path d="M229.5,392.61s31,13,59,0c0,0-12-58-60-52s-109,77-55,116l46.94,35.76-7.94-26.76S172.5,427.61,229.5,392.61Z" transform="translate(-147.85 -107.61)" fill="#fdd835"/><ellipse cx="200" cy="422.61" rx="10.5" ry="5" transform="translate(-414.5 343.98) rotate(-68.23)" fill="#fdb797"/><polygon points="140.65 425 148.12 515.77 200.65 495 192.65 407 140.65 425" fill="#e0e0e0"/><path d="M180.33,521.55C186.75,539,217,604.81,305.43,598.32a1.08,1.08,0,0,0,1-1.29L303,580.77s-51.89-1.57-72.77-39.63a73.11,73.11,0,0,0-22.86-25.64c-8.79-5.95-18.65-10.13-24.58-4.74A9.93,9.93,0,0,0,180.33,521.55Z" transform="translate(-147.85 -107.61)" fill="#fdb797"/><path d="M301.48,579.27s21.14-21.14,27.57-9.19-17.46,23-24.81,26.65L296,587.54Z" transform="translate(-147.85 -107.61)" fill="#fdb797"/></svg>