<svg xmlns="http://www.w3.org/2000/svg" width="538" height="285" viewBox="0 0 538 285">
  <defs>
    <linearGradient id="community-a" x1="49.998%" x2="49.998%" y1="99.996%" y2=".001%">
      <stop offset="0%" stop-color="gray" stop-opacity=".25"/>
      <stop offset="54%" stop-color="gray" stop-opacity=".12"/>
      <stop offset="100%" stop-color="gray" stop-opacity=".1"/>
    </linearGradient>
    <linearGradient id="community-b" x1="-5%" x2="-5%" y1="65%" y2="0%">
      <stop offset="0%" stop-color="gray" stop-opacity=".25"/>
      <stop offset="54%" stop-color="gray" stop-opacity=".12"/>
      <stop offset="100%" stop-color="gray" stop-opacity=".1"/>
    </linearGradient>
    <linearGradient id="community-c" x1="-2%" x2="-2%" y1="68%" y2="0%">
      <stop offset="0%" stop-color="gray" stop-opacity=".25"/>
      <stop offset="54%" stop-color="gray" stop-opacity=".12"/>
      <stop offset="100%" stop-color="gray" stop-opacity=".1"/>
    </linearGradient>
  </defs>
  <g fill="none" fillRule="evenodd" transform="translate(-22 -76)">
    <path fill="#179A6F" fillRule="nonzero" d="M44.8127225,114.961877 C45.6843712,120.483062 47.9119178,125.815696 47.9312878,131.399732 C48.0039251,149.645751 25.8301516,160.8525 22.4355643,178.779432 C20.4210874,189.415691 25.6412944,200.284014 33.0018831,208.217696 C40.3624718,216.151379 49.7472225,221.870785 58.3910717,228.397581 C82.3070794,246.489207 100.741639,270.83589 111.653648,298.741931 C113.837612,304.35014 115.716499,310.132397 116.336338,316.11771 C116.78669,320.468907 116.57362,324.921632 117.595386,329.171301 C121.638867,346.039441 142.141981,352.585575 159.478104,353.678209 C187.399302,355.408682 215.347518,350.748807 241.190324,340.054128 C247.001315,337.636797 253.001164,334.890708 259.238294,335.572395 C264.226061,336.118712 268.676312,338.81162 273.053925,341.262794 C285.945821,348.486333 299.665858,354.125863 313.914878,358.058414 C321.808141,360.234013 330.093645,361.887467 338.156396,360.475746 C362.368858,356.211573 375.235361,326.894175 398.99263,320.483411 C415.42805,316.050025 432.531733,323.795156 447.272281,332.299328 C462.012828,340.803501 477.22794,350.598529 494.244459,350.622702 C516.946064,350.65171 535.60903,333.498325 551.008157,316.847745 C554.238099,313.352283 557.521309,309.697278 559.061222,305.196206 C562.18463,296.058693 557.124225,285.794703 549.642574,279.65468 C542.160923,273.514658 532.727747,270.46882 523.715869,266.958855 C508.441045,261.009122 493.863986,253.408947 480.244813,244.293953 C471.431476,238.395664 462.894162,231.723829 456.865259,223.021435 C451.678949,215.518038 448.565226,206.820479 445.088317,198.388826 C437.466233,179.925247 426.686845,161.161919 408.6873,152.498202 C393.990335,145.420255 376.920549,146.21314 360.606191,146.024588 C336.568058,145.758682 311.919771,142.872388 290.607961,131.772001 C272.608416,122.397589 257.824286,107.598685 239.558404,98.7367471 C210.503449,84.6533731 177.288792,87.4139658 145.982077,87.9457788 C130.936453,88.2020159 113.053128,89.7007615 98.6031301,84.7790744 C87.915749,81.1385729 82.4146774,73.6980262 70.1389587,76.6955174 C53.3500369,80.7808079 42.1299816,97.9293584 44.8127225,114.961877 Z" opacity=".1"/>
    <path fill="url(#community-a)" fillRule="nonzero" d="M488.46404,247.778484 C487.704705,245.253175 487.784515,242.548227 488.691405,240.072512 C490.142673,236.302124 493.67893,233.581226 494.922184,229.72824 C497.234538,222.571306 491.003759,215.871094 487.182086,209.384667 C483.67645,203.366457 482.087976,196.415059 482.629941,189.463806 C483.224961,182.000771 486.267787,174.863272 486.49999,167.380802 C486.708005,160.4085 484.458539,153.62569 482.238099,147.017794 C480.404663,141.556563 478.537365,136.032168 475.436488,131.183139 C469.573365,122.014684 459.158096,116.25221 448.447737,115.299896 C443.392485,114.848032 438.448498,116.500006 433.480323,115.853793 C426.581962,114.959783 420.06093,113.162047 413.027116,112.938545 C406.346445,112.739336 398.959489,113.589617 394.407344,118.506668 C390.929138,122.272197 389.816499,127.709135 386.633384,131.732177 C382.115102,137.441204 374.215365,139.399279 369.218165,144.685596 C364.825286,149.438903 363.256546,156.168031 365.091726,162.38601 C365.783497,164.640469 366.915486,166.734589 367.650795,168.974471 C370.741997,178.332417 366.683283,188.341435 364.23064,197.884014 C363.954355,198.663696 363.90403,199.506118 364.085513,200.313387 C364.472518,201.479486 365.691583,202.091689 366.702633,202.781631 C370.011525,205.045807 371.699834,209.146589 372.02395,213.155055 C372.348067,217.163521 371.424093,221.157411 370.514631,225.073561 C368.19744,235.029133 365.299741,245.694082 357.661232,252.316554 C356.274228,248.9944 354.634273,245.784594 352.755946,242.71567 C348.082862,235.106873 344.624006,225.710056 344.565955,216.716516 C344.562565,216.689089 344.562565,216.661345 344.565955,216.633917 C344.565955,216.148043 344.590143,215.662168 344.619168,215.176293 C345.223863,204.564791 349.790521,194.327411 349.688932,183.764496 C349.688932,182.909356 349.664744,182.052597 349.616369,181.194219 C349.021349,172.152091 344.696569,163.790188 339.738069,156.220261 C336.037335,150.569538 331.867358,145.113166 326.526691,140.997807 C318.268974,134.686295 307.776305,131.945962 297.467463,130.498055 C287.158621,129.050149 277.77859,127.6897 267.387509,126.99004 C256.212744,126.236934 243.915664,125.814223 235.082278,132.723361 C223.564046,141.731478 222.925488,159.13065 214.145315,170.840229 C208.920749,177.807672 200.600144,183.191164 197.847572,191.106062 C197.102966,189.163772 196.482498,187.175746 195.989949,185.154097 C195.960924,185.018052 195.931898,184.886866 195.902873,184.750821 C199.222521,175.200559 199.994723,164.943757 198.142664,155.000715 C198.361179,153.39037 198.47269,151.767197 198.476455,150.141968 C198.530502,148.373337 198.340022,146.605723 197.910461,144.889663 C196.667207,140.157244 193.237377,136.37228 189.923648,132.781666 C188.717236,131.410854 187.407197,130.135689 186.005223,128.96755 C168.094386,107.172476 137.099619,101.619749 112.790784,115.85115 C88.4819495,130.08255 78.0181382,159.906849 88.0736417,186.300762 C87.6479364,189.614427 86.3708203,192.835776 84.0246033,195.172833 C82.9555024,196.236899 81.57196,197.568195 81.8041629,198.928644 C81.7321207,199.316062 81.7864087,199.716485 81.9589648,200.07045 C82.1966431,200.494468 82.527552,200.8584 82.926477,201.134515 C86.3107999,203.73217 90.5256231,204.99403 94.7736635,204.681401 C98.3582772,215.262772 105.385871,224.323639 114.723764,230.403606 C114.723764,230.727522 114.712477,231.041721 114.689901,231.346203 C114.689901,231.885523 114.646363,232.419986 114.622176,232.964165 C114.622176,233.085634 114.622176,233.207103 114.622176,233.328571 C114.622176,233.284843 114.622176,233.236255 114.622176,233.187668 C114.622176,233.13908 97.7777888,255.241519 82.210518,256.062647 C73.8995885,256.499934 66.6480848,262.131222 61.1526156,268.569061 C54.5541827,276.294469 50.4809564,285.176258 50.1326521,287.634784 C49.4892565,292.143701 45,314.056648 45,314.056648 L174.327352,314.056648 C172.798682,321.947253 170.737881,332 170.737881,332 L380.102677,332 C379.618921,325.241483 379.081952,318.993135 378.583683,313.70196 L404.904851,313.70196 L404.875826,313.862298 L526.298603,313.862298 L534,302.254752 C532.089163,268.433016 512.226139,249.838593 488.46404,247.778484 Z M186.164863,209.996869 C188.896436,211.47302 191.830905,212.534055 194.872472,213.145337 C196.193127,213.417427 197.668583,213.587483 198.795734,212.844095 C199.542782,212.27737 200.095653,211.49113 200.377617,210.594495 L200.435667,210.740258 C203.701021,219.000127 206.724496,227.522369 207.309841,236.39444 C207.363054,237.230145 207.396917,238.065849 207.401755,238.906413 C207.414852,243.967305 206.375143,248.975131 204.349254,253.60898 C193.411974,247.832066 182.864344,241.339758 172.774494,234.173993 L172.092398,233.882468 C172.092398,233.935915 172.329439,234.543258 172.610017,235.568454 C172.677743,235.81625 172.750307,236.088339 172.82287,236.379864 C172.131099,234.135123 171.502216,231.841795 170.950734,229.504738 C170.887846,229.227789 170.824957,228.95084 170.762069,228.673892 C177.349777,223.817653 182.640823,217.40187 186.164863,209.996869 Z"/>
    <path fill="url(#community-b)" fillRule="nonzero" d="M115,233.325 L115,233 L115,233.325 Z"/>
    <path fill="url(#community-c)" fillRule="nonzero" d="M115,233.34 L115,233 L115,233.34 Z"/>
    <path fill="#BB9484" fillRule="nonzero" d="M411.76217,115.026379 C405.182142,114.827664 397.90005,115.666145 393.421369,120.493471 C389.993363,124.186666 388.899113,129.527743 385.761616,133.477814 C381.311987,139.08546 373.531188,141.004759 368.602219,146.195588 C364.273763,150.862645 362.727575,157.470071 364.535093,163.575899 C365.217789,165.786 366.331407,167.845853 367.057679,170.041414 C370.103182,179.250168 366.12805,189.055067 363.668408,198.423763 C363.394052,199.192036 363.345325,200.022909 363.527995,200.818039 C363.905657,201.961863 365.111269,202.562855 366.103841,203.241395 C369.362384,205.466036 371.027969,209.488807 371.323319,213.419491 C371.61867,217.350175 370.732618,221.276012 369.836882,225.119455 C367.45955,235.297552 364.457624,246.255969 356.202327,252.66817 C352.716219,255.406562 348.058391,257.626357 347.14813,261.988398 C346.08293,267.096833 350.953798,271.439488 355.626151,273.75137 C369.343016,280.536767 385.267751,280.633701 400.27254,283.65805 C413.485857,286.323742 426.665281,291.374017 440.038378,289.648587 C445.998654,288.882806 451.697472,286.78418 457.338188,284.70494 L492.460724,271.749677 C493.452892,271.446219 494.386181,270.975824 495.22056,270.358671 C497.336434,268.594467 497.409061,265.240542 496.256708,262.734792 C495.104356,260.229041 493.012691,258.309743 491.172801,256.254737 C487.163777,251.761835 484.113433,245.417488 486.301934,239.804995 C487.754479,236.102106 491.216378,233.431568 492.441357,229.626898 C494.717011,222.599165 488.567904,216.017329 484.839705,209.648749 C481.390761,203.746077 479.826383,196.929243 480.356183,190.11165 C480.942043,182.783421 483.939128,175.775075 484.157009,168.427458 C484.360366,161.5839 482.147655,154.924517 479.959154,148.434769 C478.153157,143.074305 476.313267,137.650833 473.25808,132.886515 C467.481793,123.88617 457.221984,118.230056 446.666825,117.289794 C441.684596,116.848743 436.81857,118.467545 431.923494,117.837472 C425.120742,116.998991 418.690809,115.234788 411.76217,115.026379 Z"/>
    <path fill="#FFECE3" fillRule="nonzero" d="M423.032284,307 C423.032284,307 382.727561,281.983083 398.400531,253.142789 C402.027172,246.476139 403.629755,240.168538 403.958113,234.409213 C404.044505,232.891741 404.044505,231.370656 403.958113,229.853184 C403.958113,229.780404 403.958113,229.707624 403.958113,229.634844 C403.905837,228.852054 403.835592,228.082203 403.747376,227.325291 C401.880146,212.099712 392,202.17737 392,202.17737 C392,202.17737 458.852714,182.861554 447.659136,200.275386 C442.464218,208.358819 444.017793,216.286989 447.497408,224.491723 C447.864972,225.355379 448.257042,226.228739 448.663814,227.097247 C452.682524,235.748365 458.259709,244.710011 459.818185,254.428569 C463.01355,274.379997 423.032284,307 423.032284,307 Z"/>
    <path fill="#000" fillRule="nonzero" d="M446.755885,200.159091 C441.645271,208.110965 443.173634,215.910102 446.596781,223.981302 C433.697739,232.214408 417.420415,233.275459 403.542272,226.787846 C401.719808,211.790974 392,202.03012 392,202.03012 C392,202.03012 457.772632,183.0239 446.755885,200.159091 Z" opacity=".1"/>
    <circle cx="422" cy="187" r="45" fill="#FFECE3" fillRule="nonzero"/>
    <path fill="#000" fillRule="nonzero" d="M403 229.315C403 229.24 403 229.165 403 229.09L403.055 229C403.025 229.11 403.005 229.215 403 229.315zM421.713824 307C421.713824 307 382.175474 281.958718 397.550431 253.090335 401.108113 246.417193 402.680224 240.103448 403.002338 234.338514 403.901374 241.468188 408.771553 250.331714 417.636912 262.599806 421.483055 267.942205 423.136897 275.41185 423.660934 282.876639L424.540739 283.522584 428.86765 280.880525C429.348418 272.624089 431.002259 264.280233 434.915709 258.36474 445.199334 242.823215 447.641635 235.052453 446.882022 227 450.824318 235.659543 456.295457 244.629917 457.824298 254.357941 460.934867 274.348227 421.713824 307 421.713824 307z" opacity=".1"/>
    <path fill="#69D5B1" fillRule="nonzero" d="M486.388965,247.138968 C462.612999,245.415537 447.571062,227 447.571062,227 C448.837496,235.626837 446.780147,243.348388 435.692784,259.919467 C431.767324,265.79656 430.103006,274.099043 429.617782,282.348274 L425.250768,284.981832 L424.362809,284.337966 C423.833915,276.902039 422.169597,269.446748 418.282955,264.126381 C407.200444,248.959221 402.27057,239.005923 403.556413,231.105251 C403.556413,231.105251 391.362739,250.85209 367.611035,252.435129 C343.859331,254.018168 323.906929,270.763527 322,301.412519 L329.598604,311.840244 L404.551122,311.840244 L524.372282,312 L532,300.608896 C530.093071,267.147226 510.16493,248.862399 486.388965,247.138968 Z"/>
    <path fill="#000" fillRule="nonzero" d="M453.253279,164.58344 C451.314249,169.386494 447.872471,173.442405 444.110753,177.003457 C438.914152,181.927799 432.379621,186.265102 425.234295,185.930344 C429.129833,182.298398 431.949405,177.661829 433.383069,172.53031 C428.874824,175.159861 425.466979,179.322507 421.162332,182.286815 C416.857685,185.251124 410.773978,186.779368 406.566283,183.684067 C414.208798,179.8387 420.557463,173.835643 424.827099,166.417333 C414.60841,169.071142 409.363334,180.588766 400.157789,185.760539 C395.843447,188.186323 390.797121,189.098418 385.852595,188.991684 C382.338103,188.91891 378.421262,188.098995 376.462842,185.17835 C375.318814,183.480301 375.052197,181.345611 375.008569,179.293397 C374.795276,169.988088 378.581232,160.857436 384.412865,153.614043 C390.244498,146.370651 397.986075,140.86412 406.265734,136.589888 C409.213059,135.066495 412.286422,133.678947 415.56823,133.19379 C419.649888,132.601898 423.809108,133.470329 427.813205,134.392127 C433.019501,135.585613 438.254882,136.895537 443.049134,139.243696 C453.282365,144.313586 457.751829,153.502457 453.253279,164.58344 Z" opacity=".1"/>
    <path fill="#BB9484" fillRule="nonzero" d="M453.253279,164.58344 C451.314249,169.386494 447.872471,173.442405 444.110753,177.003457 C438.914152,181.927799 432.379621,186.265102 425.234295,185.930344 C429.129833,182.298398 431.949405,177.661829 433.383069,172.53031 C428.874824,175.159861 425.466979,179.322507 421.162332,182.286815 C416.857685,185.251124 410.773978,186.779368 406.566283,183.684067 C414.208798,179.8387 420.557463,173.835643 424.827099,166.417333 C414.60841,169.071142 409.363334,180.588766 400.157789,185.760539 C395.843447,188.186323 390.797121,189.098418 385.852595,188.991684 C382.338103,188.91891 378.421262,188.098995 376.462842,185.17835 C375.318814,183.480301 375.052197,181.345611 375.008569,179.293397 C374.795276,169.988088 378.581232,160.857436 384.412865,153.614043 C390.244498,146.370651 397.986075,140.86412 406.265734,136.589888 C409.213059,135.066495 412.286422,133.678947 415.56823,133.19379 C419.649888,132.601898 423.809108,133.470329 427.813205,134.392127 C433.019501,135.585613 438.254882,136.895537 443.049134,139.243696 C453.282365,144.303883 457.751829,153.502457 453.253279,164.58344 Z"/>
    <circle cx="144.5" cy="165.5" r="56.5" fill="#926B5A" fillRule="nonzero"/>
    <path fill="#FCCBB5" fillRule="nonzero" d="M196,275.789072 C196,275.789072 143.968211,289.075651 142.679574,290.331114 C141.390936,291.586577 98.8804785,293.81151 111.256264,267.868506 C115.802967,258.343469 117.69459,245.405898 118.268398,232.846421 C118.292712,232.313213 118.317026,231.784852 118.336477,231.256491 C119.119385,210.204461 116.337873,190.669651 116.337873,190.669651 C116.337873,190.669651 176.636394,166.917649 172.196672,203.010998 C171.087958,211.988285 172.007024,221.009199 174.020216,229.492057 C174.691281,232.322908 175.479052,235.090743 176.354353,237.776173 C183.395664,259.414732 196,275.789072 196,275.789072 Z"/>
    <path fill="#000" fillRule="nonzero" d="M173,229.426806 C156.816999,241.51347 134.887333,242.215681 117.974962,231.188764 C118.748609,210.16628 116,190.658887 116,190.658887 C116,190.658887 175.58523,166.94022 171.198027,202.982913 C170.107233,211.952441 171.015427,220.960694 173,229.426806 Z" opacity=".1"/>
    <circle cx="146" cy="189" r="49" fill="#FCCBB5" fillRule="nonzero"/>
    <path fill="#000" fillRule="nonzero" d="M196,275.829243 C196,275.829243 143.968211,289.080733 142.679574,290.332881 C141.390936,291.585028 98.8804785,293.804085 111.256264,267.929595 C115.802967,258.429712 117.69459,245.526309 118.268398,233 C118.754677,239.545975 122.518471,255.398452 122.999887,260.672941 C123.030516,260.981323 123.092426,261.285836 123.184673,261.581836 C123.889776,263.926591 126.403836,266.629102 129.43335,269.191411 L129.613273,269.341282 C137.345887,275.789599 148.386383,276.522791 156.912942,271.154237 C161.237977,268.445249 165.389105,265.471081 169.342218,262.249003 C175.002499,257.603004 176.767689,251.342267 176.986515,245.811547 C177.077107,243.156624 176.865035,240.50004 176.354353,237.892561 C183.395664,259.498146 196,275.829243 196,275.829243 Z" opacity=".1"/>
    <path fill="#69D5B1" fillRule="nonzero" d="M262,312 L50,312 C50,312 54.4372996,290.599646 55.0684254,286.192272 C55.4131172,283.781237 59.4377576,275.101508 65.9577723,267.56461 C71.3854539,261.295916 78.5463039,255.774644 86.7557937,255.34548 C102.121279,254.545016 118.758725,233 118.758725,233 C119.127691,239.268693 123.021251,255.639626 123.511587,261.011414 C123.542166,261.319 123.603975,261.622728 123.69607,261.917964 C124.400018,264.256668 126.909957,266.952207 129.934506,269.507905 C137.832376,276.092086 148.85584,276.825408 157.369057,271.470488 C161.68624,268.767366 165.830495,265.800921 169.777961,262.588232 C175.428964,257.954221 177.191261,251.709638 177.409728,246.193188 C177.521023,242.532543 177.07418,238.876235 176.084364,235.348349 C175.807639,234.345358 175.598882,233.757065 175.569754,233.704022 L176.244573,233.988525 C176.244573,233.988525 204.951085,254.723433 231.249611,263.200635 C234.331646,264.197299 237.240039,265.661207 239.87176,267.540499 C242.003463,269.071174 243.966035,270.821697 245.726665,272.762803 C249.28637,276.761319 252.231118,281.260772 254.465329,286.115119 C260.562975,298.951474 262,312 262,312 Z"/>
    <path fill="#000" fillRule="nonzero" d="M169.131962,172.608526 C170.403615,177.427325 172.066547,182.78101 176.434189,185.291604 C177.01943,185.567992 177.558691,185.930318 178.033538,186.366196 C179.109553,187.517889 178.781857,189.315301 178.620455,190.876592 C178.062884,196.235096 180.40077,201.665882 184.235296,205.506464 C188.069821,209.347047 193.259146,211.693802 198.614765,212.773213 C199.925547,213.038246 201.397731,213.206904 202.527546,212.479266 C203.291066,211.907588 203.852381,211.113448 204.131786,210.209612 C205.623534,206.301566 204.992598,201.911641 203.745399,197.921675 C202.4982,193.93171 200.659193,190.124859 199.715235,186.052974 C197.470277,176.391283 200.44399,166.406732 201.784118,156.581202 C202.229196,153.314057 202.488418,149.945717 201.632497,146.760491 C200.39508,142.144082 196.981179,138.443244 193.684661,134.939978 C191.909237,133.055827 190.094685,131.137946 187.81549,129.904333 C181.095289,126.285415 172.443152,129.499554 165.26809,126.863671 C162.397087,125.808354 159.95649,123.880835 157.222435,122.526753 C151.416846,119.635473 144.535243,119.476453 138.172083,120.791985 C131.808923,122.107517 125.846823,124.810863 119.943415,127.490115 L115.429044,129.504373 C109.070776,132.395652 102.257646,135.662797 98.8339628,141.71039 C95.1901856,148.148305 96.2026176,156.38845 92.5588405,162.826365 C91.4534799,164.753885 89.9128224,166.604303 89.6242548,168.820951 C89.4286158,170.420792 89.9274954,172.020633 90.3921381,173.567467 C91.5268445,177.330949 92.5148217,181.200444 92.4267841,185.132584 C92.3387466,189.064723 91.0670928,193.093239 88.2401086,195.859229 C87.0467105,197.025379 85.4522523,198.519206 86.1858987,200.008215 C86.4265992,200.42451 86.7612999,200.780652 87.1640939,201.049076 C91.8827989,204.579722 98.1059964,205.48861 103.661356,203.458475 C105.803604,202.653736 107.828468,201.362297 109.04143,199.458872 C109.847776,198.064494 110.431733,196.55626 110.772835,194.987027 C112.318384,189.315301 113.873714,183.547199 113.75144,177.673084 C113.682966,174.299925 113.056921,170.897853 113.555801,167.553607 C114.05468,164.20936 116.035526,160.763919 119.336934,159.843529 C121.782422,159.154441 124.399095,159.988093 126.952184,159.963999 C130.630198,159.935086 135.139678,155.916208 138.548688,157.096814 C141.483274,158.118399 143.806488,163.65038 146.232412,165.770651 C152.38526,171.182162 160.973813,174.010797 169.131962,172.608526 Z" opacity=".1"/>
    <path fill="#926B5A" fillRule="nonzero" d="M169.133836,171.63262 C170.406117,176.451419 172.06987,181.805104 176.439666,184.315698 C177.016722,184.58637 177.549461,184.940447 178.020231,185.366196 C179.096777,186.517889 178.76892,188.315301 178.607438,189.876592 C178.049592,195.235096 180.388632,200.665882 184.225049,204.506464 C188.061467,208.347047 193.253353,210.693802 198.611614,211.773213 C199.923043,212.038246 201.395953,212.206904 202.526326,211.479266 C203.290223,210.907588 203.851815,210.113448 204.131358,209.209612 C205.623841,205.301566 204.992594,200.911641 203.74478,196.921675 C202.496966,192.93171 200.657051,189.124859 199.712627,185.052974 C197.466561,175.391283 200.441742,165.406732 201.782531,155.581202 C202.227829,152.314057 202.487179,148.945717 201.630836,145.760491 C200.392808,141.144082 196.977222,137.443244 193.679078,133.939978 C191.902777,132.055827 190.08733,130.137946 187.80701,128.904333 C181.083493,125.285415 172.427087,128.499554 165.248485,125.863671 C162.376065,124.808354 159.934264,122.880835 157.198859,121.526753 C151.390406,118.635473 144.505407,118.476453 138.139107,119.791985 C131.772807,121.107517 125.807765,123.810863 119.901444,126.490115 L115.443566,128.51401 C109.08216,131.40529 102.265668,134.672435 98.8402957,140.720027 C95.1947205,147.157942 96.2076521,155.398088 92.5620769,161.836003 C91.4561709,163.763522 89.9147532,165.613941 89.6260432,167.830588 C89.4303077,169.430429 89.9294334,171.03027 90.3943054,172.577105 C91.5295718,176.340587 92.5180364,180.210082 92.4299554,184.142221 C92.3418744,188.074361 91.0695931,192.102877 88.241214,194.868867 C87.047227,196.035016 85.451982,197.528844 86.1859904,199.017853 C86.4268098,199.434148 86.7616755,199.79029 87.1646683,200.058713 C91.8857018,203.589359 98.1119701,204.498248 103.670071,202.468112 C105.813376,201.663373 107.839239,200.371935 109.0528,198.46851 C109.859543,197.074132 110.443789,195.565898 110.785059,193.996665 C112.331371,188.324939 113.887468,182.556837 113.765134,176.682721 C113.696626,173.309562 113.070272,169.90749 113.569398,166.563244 C114.068524,163.218998 116.050347,159.773557 119.353384,158.853166 C121.800079,158.164078 124.418043,158.99773 126.972392,158.973636 C130.652221,158.944724 135.163926,154.925846 138.574618,156.106451 C141.510652,157.128037 143.835012,162.660017 146.262133,164.780289 C152.37887,170.211075 160.971662,173.039709 169.133836,171.63262 Z"/>
    <rect width="111" height="95" x="220" y="193" fill="#463A3E" fillRule="nonzero"/>
    <rect width="111" height="95" x="220" y="193" fill="#000" fillRule="nonzero" opacity=".05"/>
    <path fill="#C17174" fillRule="nonzero" d="M315,330 L220,330 C221.226276,323.080009 224.81301,315.495661 231.802296,307.319694 C237.320994,300.892406 241.83462,293.665736 245.189541,285.885666 C246.091071,283.80692 246.898895,281.723326 247.61301,279.634882 C249.712433,273.433657 251.140761,267.024962 251.873469,260.518832 C251.873469,260.334558 251.917092,260.150283 251.93648,259.966009 C252.426371,255.47047 252.623896,250.947842 252.527806,246.426686 C252.527806,246.101781 252.527806,245.786574 252.527806,245.45682 C252.188347,234.362985 250.354197,223.365708 247.075,212.762652 L246.953827,212.384405 C245.921429,209.130506 245.165306,207.302309 245.165306,207.302309 C245.165306,207.302309 247.050765,206.279101 250.1625,204.77096 L250.424235,204.644878 C261.867857,199.14574 288.957398,187.672231 300.900255,195.848197 L301.094133,195.979129 C305.272194,198.956616 307.521173,204.421809 306.464541,213.523997 C306.464541,213.557942 306.464541,213.596737 306.464541,213.630682 C306.464541,213.800409 306.425765,213.965286 306.411224,214.115615 C305.771464,220.389272 305.468902,226.692775 305.504847,232.998897 C305.504847,233.314103 305.504847,233.62931 305.504847,233.968763 C305.504847,235.446191 305.521003,236.943017 305.553316,238.45924 C305.553316,238.662912 305.553316,238.866584 305.553316,239.070255 C305.650255,243.968076 305.868367,249.025925 306.173724,254.156514 C306.595408,261.270478 307.196429,268.515374 307.889541,275.624488 C308.185204,278.665016 308.505102,281.686148 308.858929,284.658786 C308.897704,285.007937 308.93648,285.366787 308.975255,285.71109 C309.382398,289.333538 309.804082,292.883245 310.235459,296.326268 L310.264541,296.549337 C311.9125,310.224441 313.734949,322.163486 315,330 Z"/>
    <path fill="#000" fillRule="nonzero" d="M305.740858,213.498581 C305.740858,213.532487 305.740858,213.571237 305.740858,213.605143 C305.052796,220.040465 304.726756,226.508819 304.764255,232.980127 C304.764255,233.29497 304.764255,233.609814 304.764255,233.948876 C291.580241,249.127855 270.037768,254.150845 251.417302,246.387615 C251.417302,246.063084 251.417302,245.748241 251.417302,245.418866 C251.073185,234.204893 249.183839,223.090359 245.801833,212.38452 C244.761751,209.134366 244,207.308274 244,207.308274 C244,207.308274 245.899493,206.286244 249.03439,204.779839 C260.450882,199.306406 288.30849,187.487666 300.330476,195.973909 C304.534753,198.947969 306.800472,204.40687 305.740858,213.498581 Z" opacity=".1"/>
    <circle cx="270" cy="203" r="46" fill="#C17174" fillRule="nonzero"/>
    <path fill="#000" fillRule="nonzero" d="M274,329 L175,329 C175,329 179.449766,307.531766 180.082665,303.110413 C180.428326,300.691729 184.464273,291.984469 191.002606,284.423664 C199.400623,277.767211 209.80204,274.100227 220.544382,274.008813 C239.477797,273.728246 244.988886,280.20548 246.483501,284.994474 C247.005631,286.60014 247.139072,288.305568 246.872978,289.972124 L250.456159,295.128757 L274,329 Z" opacity=".1"/>
    <path fill="#69D5B1" fillRule="nonzero" d="M272,330 L173,330 C173,330 177.449766,308.531766 178.082665,304.110413 C178.428326,301.691729 182.464273,292.984469 189.002606,285.423664 C197.400623,278.767211 207.80204,275.100227 218.544382,275.008813 C237.477797,274.728246 242.988886,281.20548 244.483501,285.994474 C245.005631,287.60014 245.139072,289.305568 244.872978,290.972124 L248.456159,296.128757 L272,330 Z"/>
    <path fill="#000" fillRule="nonzero" d="M381,329 L277,329 C281.959354,318.472244 294.958134,290.40472 295.680559,283.91374 C295.958791,281.401103 298.643481,279.044288 302.197034,277.042943 C303.319331,276.401967 304.474517,275.820082 305.657843,275.299679 L305.872618,275.20229 C306.523452,274.916616 307.182421,274.652042 307.849526,274.408569 C316.845419,271.123342 326.729897,271.201188 335.672674,274.627695 C344.209988,277.865881 355.197691,282.22891 363.749648,286.31438 L363.817986,286.348467 C366.01455,287.400268 368.059795,288.427723 369.860978,289.416222 C373.463344,291.38835 376.09434,293.190047 377.104759,294.631405 C377.568478,295.293651 378.08101,298.278625 378.642354,302.909474 C379.389186,309.17159 380.204356,318.462505 381,329 Z" opacity=".1"/>
    <path fill="#69D5B1" fillRule="nonzero" d="M381,330 L277,330 C281.959354,319.472244 294.958134,291.40472 295.680559,284.91374 C295.958791,282.401103 298.643481,280.044288 302.197034,278.042943 C303.319331,277.401967 304.474517,276.820082 305.657843,276.299679 C306.523452,275.916616 307.182421,275.652042 307.849526,275.408569 C316.845419,272.123342 326.729897,272.201188 335.672674,275.627695 C344.209988,278.865881 355.197691,283.22891 363.749648,287.31438 C366.01455,288.400268 368.059795,289.427723 369.860978,290.416222 C373.463344,292.38835 376.09434,294.190047 377.104759,295.631405 C377.568478,296.293651 378.08101,299.278625 378.642354,303.909474 C379.394067,310.17159 380.204356,319.467375 381,330 Z"/>
    <path fill="#000" fillRule="nonzero" d="M365,278.341787 C365,279.830927 364.959546,281.321682 364.878638,282.814052 C364.833329,283.540856 364.778311,284.26766 364.713585,284.994463 C364.669894,285.517762 364.616495,286.036215 364.563096,286.554668 L364.495133,287.155493 C363.70385,294.200642 362.242648,301.207029 362.067886,308.286097 C362.067886,308.620426 362.067886,308.954756 362.067886,309.289086 C362.033905,315.936916 363.111602,322.482994 364.572805,329 L305.008176,329 C304.911086,327.793506 304.862541,326.577321 304.877105,325.380518 C304.877105,324.300003 304.945068,323.219488 305.056721,322.134128 C305.97422,313.213825 310.542298,304.865274 311.231636,296.003115 L311.260763,295.596105 C311.304453,294.932291 311.328726,294.263632 311.319017,293.594973 C311.319017,293.536828 311.319017,293.478684 311.319017,293.415694 C311.243553,290.485551 310.79163,287.57719 309.974322,284.761886 C309.935486,284.621371 309.89665,284.480855 309.857814,284.34034 C309.025438,281.547779 308.053319,278.798626 306.945119,276.103232 L306.731521,275.565397 C305.114975,271.53406 303.415902,267.53664 302.265387,263.529529 C301.350824,260.545424 300.878179,257.443914 300.862439,254.32335 C300.862439,253.766134 300.89642,253.208918 300.940111,252.651702 C300.978947,252.196238 301.032346,251.740775 301.100309,251.280466 C301.206397,250.561443 301.348979,249.848258 301.527505,249.143663 C302.498403,245.325521 304.571272,241.744802 306.556759,238.198 C308.765554,234.249034 310.872403,230.343676 311.251054,226.191204 C311.298904,225.666116 311.316733,225.138732 311.304453,224.611618 C311.289344,223.932672 311.224444,223.255742 311.110274,222.586259 C310.600552,219.640281 309.081096,216.989871 307.833491,214.271625 C307.707274,213.99544 307.581057,213.719254 307.459695,213.438224 C307.459695,213.394615 307.420859,213.351007 307.406296,213.307399 C304.979049,207.711011 303.571246,201.741531 302.090626,195.801122 C302.027517,195.544318 301.964409,195.287514 301.896446,195.035556 C301.532359,193.581949 301.158563,192.128341 300.760495,190.674734 C298.585682,182.747729 295.488515,174.738353 289.595161,169.015986 C283.701806,163.293619 274.303508,160.396095 266.924679,164.039804 C260.54102,167.213513 257.084621,174.316807 255.526329,181.255359 C253.968037,188.193911 253.84182,195.43772 251.817497,202.259984 C251.671862,202.75744 251.510045,203.253282 251.332047,203.747509 C251.244666,203.999467 251.157286,204.232044 251.069905,204.50823 C250.20095,206.979362 249.128108,209.426268 247.972738,211.858637 L247.851376,212.115441 C244.161961,219.950384 239.875444,227.649657 239.739518,235.523363 L239.739518,235.625116 C239.739518,235.838311 239.739518,236.046662 239.739518,236.259857 C239.764725,238.131146 240.048976,239.989975 240.5842,241.783565 C241.555098,245.010573 243.312425,247.825726 245.361021,250.505208 C245.765562,251.031737 246.179812,251.553421 246.603771,252.070259 C248.642658,254.570463 250.856307,256.993142 252.79325,259.570872 L252.856358,259.653243 C254.329218,261.557107 255.572431,263.627398 256.560336,265.821384 C258.925956,271.372572 258.960933,277.639066 256.657426,283.216217 C256.107631,284.4922 255.476885,285.731896 254.769028,286.927761 C253.521424,289.0791 252.147602,291.172294 251.06505,293.410849 C250.700963,294.16188 250.375712,294.927446 250.094152,295.702703 C247.666905,301.943524 247.14262,308.848158 245.161987,315.287638 C243.627982,320.231728 241.240952,324.870544 238.108408,328.995155 L175,328.995155 C175.733028,325.414435 179.369044,307.675582 179.941874,303.692698 C180.286543,301.270019 184.310917,292.548376 190.830502,284.975082 C190.281944,285.406319 189.752804,285.842401 189.243082,286.278483 C185.131711,289.775611 181.569312,293.868662 178.674851,298.420949 C178.815631,297.984867 178.961266,297.543939 179.106901,297.107857 C179.995273,294.462292 180.956463,291.840953 181.932216,289.253532 C184.757531,281.801373 187.903242,274.199007 193.534454,268.54932 C196.714147,265.361075 200.583178,262.904478 203.612382,259.575718 C208.952324,253.71768 211.161118,245.601707 211.09801,237.64563 C211.09801,236.821919 211.064028,236.003053 211.010629,235.184188 C210.432944,226.462545 207.447431,218.113994 204.214339,209.988329 C202.47643,205.627507 200.631723,201.043799 200.714249,196.421328 C200.719497,195.772936 200.766521,195.125552 200.85503,194.483185 C202.190015,184.903913 211.899001,179.16701 217.729247,171.438665 C226.399371,159.940631 227.030456,142.851055 238.404533,134.022814 C247.14262,127.239314 259.278852,127.656014 270.313115,128.392509 C280.575513,129.080549 289.837885,130.413023 300.022612,131.837558 C310.207338,133.262093 320.542553,135.93673 328.712665,142.201778 C333.989499,146.242806 338.106109,151.596926 341.761542,157.14486 C346.654871,164.577638 350.931679,172.785674 351.519073,181.657524 C351.562763,182.292266 351.587036,182.922162 351.587036,183.547213 C351.68898,193.916278 347.179156,203.96555 346.582054,214.378223 C346.557781,214.862759 346.538363,215.347294 346.533509,215.83183 C346.530452,215.857582 346.530452,215.883604 346.533509,215.909356 C346.42671,224.936257 349.897672,234.413776 354.621094,242.074286 C361.331878,252.991534 364.92117,265.533766 365,278.341787 Z" opacity=".1"/>
    <path fill="#463A3E" fillRule="nonzero" d="M362.999613,278.500021 C362.999613,279.775322 362.951105,281.055453 362.878344,282.325923 C362.83307,283.050526 362.778095,283.775129 362.713418,284.499731 C362.648741,285.224334 362.57598,285.942496 362.495133,286.654217 C361.704459,293.678032 360.244379,300.663203 360.069751,307.720833 C360.069751,308.26187 360.069751,308.807737 360.069751,309.348774 C360.103706,315.971643 361.229084,322.502729 362.713418,329 L303.107218,329 C302.99565,327.797159 302.92774,326.584658 302.918038,325.391478 C302.905338,324.100969 302.965258,322.810764 303.097516,321.526931 C304.014311,312.63364 308.578881,304.31037 309.267689,295.475047 C309.316197,294.827735 309.350152,294.180424 309.355003,293.542773 C309.355003,293.393022 309.355003,293.23844 309.355003,293.088689 C309.292979,289.961967 308.805066,286.858097 307.904625,283.862081 C307.072887,281.077977 306.101515,278.337149 304.994166,275.649917 C303.315801,271.452052 301.516167,267.283171 300.313177,263.090136 C299.465473,260.309995 298.994024,257.42965 298.911306,254.525332 C298.897702,253.758046 298.923607,252.99057 298.988919,252.225926 C299.027725,251.771842 299.081083,251.317757 299.148994,250.858842 C299.255001,250.141997 299.397473,249.430972 299.575861,248.72851 C300.546014,244.92193 302.617291,241.352054 304.601254,237.815993 C306.813202,233.874154 308.928136,229.970961 309.301645,225.826233 C309.330749,225.512239 309.345302,225.193414 309.355003,224.860096 C309.377951,223.97188 309.31296,223.083573 309.160973,222.20805 C308.651642,219.270994 307.133353,216.628609 305.886706,213.918595 C305.760586,213.643246 305.634467,213.367897 305.513197,213.087717 C303.05386,207.474462 301.632585,201.494074 300.148251,195.504025 C299.721384,193.793962 299.284815,192.0839 298.823993,190.388329 C296.65085,182.485329 293.556062,174.500207 287.667233,168.795168 C281.778404,163.090129 272.401876,160.259348 265.033564,163.911346 C258.654808,167.075444 255.201063,174.157228 253.643968,181.074769 C252.086872,187.99231 251.960752,195.214183 249.937983,202.015788 C249.714848,202.764544 249.452907,203.5133 249.205518,204.257225 C248.303275,206.802996 247.177898,209.329445 245.994311,211.841401 C242.205864,219.855507 237.796518,227.739184 237.888683,235.811259 L237.888683,235.912703 C237.91387,237.778325 238.197903,239.631525 238.732716,241.419684 C239.702869,244.63692 241.458846,247.443548 243.505869,250.114917 C243.910099,250.639851 244.324031,251.159955 244.747665,251.675228 C246.80924,254.196845 249.045442,256.636341 250.99545,259.23525 C252.467179,261.133348 253.709437,263.19737 254.696584,265.384711 C257.060387,270.91909 257.095337,277.166607 254.793599,282.72687 C254.244226,283.998989 253.613965,285.234931 252.906651,286.427175 C251.660005,288.571999 250.287238,290.658854 249.205518,292.890631 C248.84171,293.639387 248.516709,294.402635 248.235365,295.175545 C245.809982,301.397467 245.2861,308.281193 243.306987,314.701173 C241.693199,319.883864 239.140007,324.728435 235.773749,328.995169 L173,328.995169 C173,328.995169 177.433599,307.55659 178.064199,303.141344 C178.379498,300.933721 181.779885,293.479974 187.358264,286.412682 C187.843341,285.765371 188.396328,285.118059 188.944464,284.480409 C184.382954,288.070735 180.429457,292.366677 177.234718,297.204432 L176.803,297.880728 C177.811959,294.793921 178.922784,291.745759 180.062714,288.741073 C182.885859,281.311479 186.029155,273.732135 191.656042,268.099556 C194.833293,264.920966 198.699353,262.471808 201.72623,259.153128 C206.906847,253.467412 209.147901,245.62721 209.20611,237.898115 C209.20611,236.864348 209.20611,235.835412 209.118796,234.811307 C208.541555,226.116074 205.558334,217.792804 202.327725,209.691746 C200.673614,205.527696 198.93219,201.189741 198.830323,196.774495 C198.807809,195.923509 198.854855,195.072111 198.970996,194.228724 C200.309807,184.731597 210.011337,179.03622 215.837105,171.307124 C224.500572,159.843909 225.131171,142.806084 236.496513,134.004576 C245.22789,127.241617 257.354803,127.657056 268.380592,128.39132 C278.635109,129.077277 287.890368,130.405716 298.067273,131.825937 C308.244178,133.246158 318.586009,135.907866 326.740145,142.134618 C332.012926,146.187563 336.126375,151.501316 339.779001,157.037281 C344.668572,164.447552 348.942096,172.630732 349.529039,181.475716 C349.587248,182.316255 349.609885,183.155184 349.596949,183.992503 C349.514486,194.103126 345.177903,203.928739 344.595811,214.102161 C344.557005,214.788118 344.537602,215.469245 344.547303,216.160033 C344.544249,216.185707 344.544249,216.21165 344.547303,216.237324 C344.605512,225.048493 348.020451,234.236456 352.628678,241.680541 C359.451796,252.756547 363.042912,265.505931 362.999613,278.500021 Z"/>
  </g>
</svg>
