<svg version="1.0" xmlns="http://www.w3.org/2000/svg" width="234px" height="216px" viewBox="0 0 2640 3360" preserveAspectRatio="xMidYMid meet">
<g id="layer101" fill="#309573" stroke="none">
 <path d="M0 1680 l0 -1680 1320 0 1320 0 0 1680 0 1680 -1320 0 -1320 0 0 -1680z"/>
 </g>
<g id="layer102" fill="#34a57f" stroke="none">
 <path d="M0 1680 l0 -1680 1320 0 1320 0 0 1680 0 1680 -1320 0 -1320 0 0 -1680z m1463 -770 c8 -7 -50 -70 -63 -70 -14 0 -70 67 -70 83 0 8 124 -4 133 -13z m-387 -15 c35 -30 39 -30 71 -5 14 11 33 20 42 20 18 0 101 -107 101 -130 0 -19 -63 -60 -91 -60 -12 0 -49 20 -83 43 -33 24 -86 61 -116 82 -30 21 -58 43 -62 49 -11 16 12 26 63 26 35 0 53 -6 75 -25z"/>
 </g>
<g id="layer103" fill="#449e7f" stroke="none">
 <path d="M0 1680 l0 -1680 1320 0 1320 0 0 1680 0 1680 -1320 0 -1320 0 0 -1680z m1644 97 c16 -12 18 -23 12 -88 -10 -104 -26 -123 -26 -32 0 39 -3 78 -6 87 -5 14 -50 16 -395 16 -339 0 -389 2 -389 15 0 13 50 15 393 15 312 0 397 -3 411 -13z m-875 -144 c-1 -47 -1 -48 -11 -16 -6 18 -8 39 -5 47 11 29 17 17 16 -31z m441 -343 c-181 -3 -262 -9 -277 -18 -22 -12 -23 -18 -23 -162 0 -81 3 -155 6 -164 5 -12 21 -16 65 -16 52 0 63 -4 91 -30 37 -35 42 -36 75 -10 45 36 50 33 122 -70 l39 -56 -49 -32 c-27 -17 -54 -32 -60 -32 -9 0 -211 134 -260 172 -37 30 -46 70 -52 233 -3 97 -2 167 4 178 9 16 32 17 292 15 l282 -2 -255 -6z m270 -382 c0 -14 -12 -31 -30 -43 -16 -11 -30 -23 -30 -27 0 -12 -20 -9 -34 5 -17 17 -56 74 -56 81 0 3 34 6 75 6 71 0 75 -1 75 -22z"/>
 </g>
<g id="layer104" fill="#3ab68d" stroke="none">
 <path d="M0 1680 l0 -1680 1320 0 1320 0 0 1680 0 1680 -1320 0 -1320 0 0 -1680z m1643 99 c18 -10 19 -17 13 -87 -10 -105 -25 -127 -26 -35 0 39 -3 78 -6 87 -5 14 -52 16 -420 16 -351 0 -414 2 -414 14 0 8 4 16 10 18 27 9 824 -4 843 -13z m-875 -161 l-4 -33 -8 37 c-5 21 -5 50 0 65 l8 28 4 -32 c2 -18 2 -48 0 -65z m441 -328 c-235 -5 -259 -7 -278 -24 -20 -19 -21 -27 -19 -170 l3 -151 65 -3 c57 -3 67 -7 90 -33 32 -34 43 -36 77 -9 14 11 33 20 42 20 15 -1 104 -108 115 -140 4 -10 -11 -26 -44 -47 -27 -18 -55 -33 -61 -33 -9 0 -211 134 -260 172 -37 30 -46 70 -52 233 -3 97 -2 167 4 178 9 16 32 17 292 15 l282 -2 -256 -6z m196 -350 c24 0 50 -3 59 -6 26 -10 19 -47 -14 -69 -16 -11 -30 -23 -30 -27 0 -23 -35 -2 -70 43 -48 60 -52 83 -14 69 14 -6 45 -10 69 -10z"/>
 </g>
<g id="layer105" fill="#6db496" stroke="none">
 <path d="M0 1680 l0 -1680 1320 0 1320 0 0 1680 0 1680 -1320 0 -1320 0 0 -1680z m1836 849 c11 -9 14 -73 14 -340 l0 -329 -30 -128 c-17 -70 -39 -165 -50 -212 -11 -47 -20 -100 -20 -118 0 -45 35 -110 71 -130 l29 -17 0 -516 c0 -387 -3 -518 -12 -527 -8 -8 -54 -12 -139 -12 l-128 0 -17 29 c-36 61 -48 63 -341 61 l-267 -1 -32 -24 c-18 -14 -36 -34 -39 -45 -6 -19 -15 -20 -134 -20 -85 0 -131 4 -139 12 -9 9 -12 123 -12 449 l0 438 107 68 c58 37 123 83 144 102 89 77 70 214 -35 262 -58 26 -102 23 -163 -10 l-53 -29 0 37 c0 35 4 40 70 85 39 27 82 63 95 80 27 34 27 34 29 -54 l1 -55 415 0 415 0 0 75 0 75 -412 3 -413 2 0 59 c0 67 -23 111 -80 149 -26 18 -46 23 -77 20 l-43 -3 0 40 c0 38 3 42 60 79 99 64 126 121 96 201 -20 50 -52 77 -114 97 l-42 13 0 59 c0 37 5 65 14 75 13 14 79 16 616 14 435 -2 606 -6 616 -14z"/>
 <path d="M952 1270 c-12 -5 -27 -21 -32 -35 -11 -28 -14 -243 -4 -269 5 -12 19 -14 75 -9 62 5 69 4 69 -12 0 -27 39 -65 59 -58 9 4 28 15 43 25 14 10 29 18 32 18 3 0 37 -43 76 -95 39 -52 76 -95 83 -95 20 0 57 30 57 46 0 8 -25 48 -55 88 -30 40 -55 78 -55 84 0 6 -6 17 -12 24 -36 38 -78 98 -69 98 5 0 23 -17 38 -37 56 -75 58 -77 141 -84 42 -5 81 -4 85 0 4 4 6 72 5 152 -3 142 -3 144 -28 156 -30 15 -471 17 -508 3z"/>
 </g>
<g id="layer106" fill="#64c6a5" stroke="none">
 <path d="M0 1680 l0 -1680 1320 0 1320 0 0 1680 0 1680 -1320 0 -1320 0 0 -1680z m710 869 c0 -7 174 -10 565 -8 311 1 569 -1 572 -5 3 -3 6 -167 6 -364 -1 -297 -4 -369 -17 -427 -10 -39 -26 -108 -37 -155 -11 -47 -24 -101 -29 -121 -21 -79 -3 -141 51 -181 l29 -22 0 -521 c0 -392 -3 -524 -12 -533 -8 -8 -54 -12 -139 -12 l-128 0 -17 29 c-36 61 -48 63 -341 61 l-267 -1 -32 -24 c-18 -14 -36 -34 -39 -45 -6 -19 -15 -20 -134 -20 -95 0 -131 4 -140 13 -7 10 -11 149 -11 457 l-1 444 68 43 c37 24 96 62 131 84 72 47 94 82 94 151 -1 38 -7 58 -27 84 -55 71 -125 83 -211 33 l-54 -30 0 34 c0 20 -2 41 -5 49 -3 8 17 28 53 51 111 73 142 112 142 182 0 91 -77 172 -156 163 l-34 -4 0 51 c0 49 1 51 47 80 91 57 116 100 105 176 -6 43 -58 91 -117 110 l-50 15 3 70 c2 38 7 73 12 78 6 6 31 13 58 17 26 3 50 7 55 8 4 0 7 -4 7 -10z"/>
 <path d="M787 1733 c-2 -5 -3 -39 -3 -78 l1 -70 415 0 415 0 0 75 0 75 -412 3 c-226 1 -413 -1 -416 -5z"/>
 <path d="M950 1267 c-25 -12 -25 -14 -28 -164 l-3 -152 71 6 c63 5 70 4 70 -12 0 -10 9 -29 21 -41 l21 -22 44 24 c43 24 45 24 69 7 13 -10 25 -23 25 -29 0 -7 12 -25 28 -42 15 -16 34 -42 42 -57 23 -43 43 -52 74 -32 33 22 33 50 1 75 -14 11 -25 23 -25 27 0 4 -16 25 -35 46 -19 22 -35 47 -35 57 0 9 -14 33 -31 52 -38 44 -53 70 -40 70 6 0 23 -17 38 -37 56 -75 58 -77 141 -84 42 -5 81 -4 85 0 4 4 6 72 5 152 -3 142 -3 144 -28 156 -35 18 -475 18 -510 0z"/>
 </g>
<g id="layer107" fill="#6cbba1" stroke="none">
 <path d="M0 1680 l0 -1680 1320 0 1320 0 0 1680 0 1680 -1320 0 -1320 0 0 -1680z m710 873 c0 -5 252 -7 560 -6 490 2 561 0 575 -13 13 -13 15 -63 14 -357 0 -299 -3 -351 -19 -417 -10 -41 -28 -115 -40 -165 -11 -49 -25 -106 -30 -126 -21 -80 -4 -139 53 -183 l32 -25 3 -523 3 -523 -22 -17 c-18 -15 -42 -18 -145 -18 l-125 0 -20 34 c-38 66 -40 66 -330 66 l-262 0 -34 -26 c-19 -14 -38 -37 -43 -50 -9 -24 -12 -24 -133 -24 -95 0 -128 3 -145 16 l-23 16 1 448 1 449 82 52 c212 135 219 143 219 231 -1 38 -7 58 -27 84 -54 71 -128 83 -210 34 -27 -16 -53 -30 -58 -30 -4 0 -7 22 -6 48 2 47 4 49 58 85 110 73 141 113 141 182 0 91 -77 172 -156 163 -39 -5 -50 13 -40 65 5 24 18 39 53 62 91 57 116 100 105 176 -6 43 -58 91 -117 110 l-50 15 3 70 c2 38 7 73 12 78 6 6 31 13 58 17 26 3 50 7 55 8 4 0 7 -2 7 -6z"/>
 <path d="M785 1669 c-4 -40 -3 -75 2 -80 5 -5 178 -8 419 -7 l409 3 0 75 0 75 -411 3 -412 2 -7 -71z"/>
 <path d="M1113 1269 c-6 -6 -43 -9 -92 -7 -62 2 -81 0 -81 -10 0 -7 -5 -10 -10 -7 -7 5 -10 -41 -9 -142 1 -142 2 -149 21 -150 11 -1 18 1 14 4 -3 3 20 22 52 41 31 19 82 51 112 70 67 44 94 44 153 4 25 -18 48 -32 52 -32 4 0 25 -13 48 -28 23 -16 50 -31 60 -35 9 -4 17 -11 17 -16 0 -6 7 -8 15 -5 12 5 15 31 15 143 0 134 -1 138 -25 159 -23 21 -35 22 -178 22 -96 0 -157 -4 -164 -11z"/>
 <path d="M1192 1061 c-8 -4 -12 -12 -10 -16 1 -4 -8 -15 -22 -24 -20 -13 -23 -13 -15 -1 8 13 6 13 -8 1 -9 -7 -14 -17 -12 -22 7 -10 -30 -31 -40 -21 -3 4 -6 3 -5 -3 1 -5 2 -17 1 -25 -1 -13 -2 -13 -11 0 -8 12 -9 10 -7 -7 2 -12 11 -31 21 -42 18 -19 18 -19 62 5 43 24 45 24 69 7 13 -10 25 -23 25 -29 0 -7 13 -26 29 -43 17 -18 33 -41 36 -52 4 -11 9 -18 12 -15 4 3 12 -2 18 -11 12 -16 14 -16 39 0 31 21 33 38 6 62 -11 10 -20 22 -20 28 0 5 -16 27 -35 48 -19 22 -35 47 -35 57 -1 19 -27 58 -38 55 -4 -2 -7 2 -7 9 0 7 -11 18 -23 24 -17 8 -20 13 -10 17 7 3 9 6 3 6 -5 0 -16 -3 -23 -8z"/>
 </g>
<g id="layer108" fill="#fd8979" stroke="none">
 <path d="M0 1680 l0 -1680 1320 0 1320 0 0 1680 0 1680 -1320 0 -1320 0 0 -1680z m1276 869 c486 1 555 -1 568 -15 14 -13 16 -58 17 -307 1 -380 2 -369 -21 -464 -11 -46 -29 -122 -40 -170 -12 -49 -25 -104 -30 -124 -22 -81 -4 -140 56 -185 l34 -26 0 -524 0 -523 -22 -15 c-17 -12 -50 -16 -146 -16 l-123 0 -20 34 c-38 66 -40 66 -330 66 l-262 0 -34 -26 c-19 -14 -38 -37 -43 -50 -9 -24 -12 -24 -133 -24 -95 0 -128 4 -145 16 l-22 15 0 449 0 448 83 53 c212 135 219 143 219 231 -1 38 -7 58 -27 84 -54 71 -128 83 -210 34 -27 -16 -53 -30 -57 -30 -5 0 -8 21 -8 48 0 46 1 48 58 85 111 73 142 112 142 182 0 95 -78 173 -161 162 l-39 -5 0 48 c0 47 1 49 52 81 97 62 121 103 110 180 -6 43 -58 91 -117 110 l-50 15 3 70 c2 38 7 73 12 78 11 11 98 25 119 19 8 -2 263 -4 567 -4z"/>
 <path d="M785 1669 c-4 -40 -3 -75 2 -80 5 -5 178 -8 419 -7 l409 3 0 75 0 75 -411 3 -412 2 -7 -71z"/>
 <path d="M932 1240 c-15 -25 -17 -266 -2 -275 6 -4 54 20 107 52 177 107 163 104 240 52 23 -16 45 -29 48 -29 4 0 19 -8 33 -19 39 -27 101 -61 112 -61 15 0 13 273 -2 288 -9 9 -82 12 -268 12 -244 0 -256 -1 -268 -20z"/>
 <path d="M1142 1005 c-70 -53 -77 -66 -53 -97 l19 -22 40 28 c23 15 46 25 51 21 6 -3 39 -43 73 -88 33 -45 65 -86 69 -91 9 -10 59 19 59 34 0 5 -28 47 -62 93 -35 46 -76 102 -93 125 -16 23 -33 42 -37 42 -3 0 -33 -20 -66 -45z"/>
 </g>
<g id="layer109" fill="#6eedaf" stroke="none">
 <path d="M0 1680 l0 -1680 1320 0 1320 0 0 1680 0 1681 -205 -1 -205 -1 0 -85 0 -84 -590 0 -590 0 0 85 0 84 -525 1 -525 0 0 -1680z m1276 869 c486 1 555 -1 568 -15 14 -13 16 -58 17 -307 1 -380 2 -369 -21 -464 -11 -46 -29 -122 -40 -170 -12 -49 -25 -104 -30 -124 -22 -81 -4 -140 56 -185 l34 -26 0 -524 0 -523 -22 -15 c-17 -12 -50 -16 -146 -16 l-123 0 -20 34 c-38 66 -40 66 -330 66 l-262 0 -34 -26 c-19 -14 -38 -37 -43 -50 -9 -24 -12 -24 -133 -24 -95 0 -128 4 -145 16 l-22 15 0 449 0 448 83 53 c212 135 219 143 219 231 -1 38 -7 58 -27 84 -54 71 -128 83 -210 34 -27 -16 -53 -30 -57 -30 -5 0 -8 21 -8 48 0 46 1 48 58 85 111 73 142 112 142 182 0 95 -78 173 -161 162 l-39 -5 0 48 c0 47 1 49 52 81 97 62 121 103 110 180 -6 43 -58 91 -117 110 l-50 15 3 70 c2 38 7 73 12 78 11 11 98 25 119 19 8 -2 263 -4 567 -4z"/>
 <path d="M785 1669 c-4 -40 -3 -75 2 -80 5 -5 178 -8 419 -7 l409 3 0 75 0 75 -411 3 -412 2 -7 -71z"/>
 <path d="M932 1240 c-15 -25 -17 -266 -2 -275 6 -4 54 20 107 52 177 107 163 104 240 52 23 -16 45 -29 48 -29 4 0 19 -8 33 -19 39 -27 101 -61 112 -61 15 0 13 273 -2 288 -9 9 -82 12 -268 12 -244 0 -256 -1 -268 -20z"/>
 <path d="M1142 1005 c-70 -53 -77 -66 -53 -97 l19 -22 40 28 c23 15 46 25 51 21 6 -3 39 -43 73 -88 33 -45 65 -86 69 -91 9 -10 59 19 59 34 0 5 -28 47 -62 93 -35 46 -76 102 -93 125 -16 23 -33 42 -37 42 -3 0 -33 -20 -66 -45z"/>
 </g>
<g id="layer110" fill="#f6988b" stroke="none">
 <path d="M0 1680 l0 -1680 1320 0 1320 0 0 1680 0 1681 -205 -1 -205 -1 0 -85 0 -84 -590 0 -590 0 0 85 0 84 -525 1 -525 0 0 -1680z m1276 869 c486 1 555 -1 568 -15 14 -13 16 -58 17 -307 1 -380 2 -369 -21 -464 -11 -46 -29 -122 -40 -170 -12 -49 -25 -104 -30 -124 -22 -81 -4 -140 56 -185 l34 -26 0 -524 0 -523 -22 -15 c-17 -12 -50 -16 -146 -16 l-123 0 -20 34 c-38 66 -40 66 -330 66 l-262 0 -34 -26 c-19 -14 -38 -37 -43 -50 -9 -24 -12 -24 -133 -24 -95 0 -128 4 -145 16 l-22 15 0 449 0 448 83 53 c212 135 219 143 219 231 -1 38 -7 58 -27 84 -54 71 -128 83 -210 34 -27 -16 -53 -30 -57 -30 -5 0 -8 21 -8 48 0 46 1 48 58 85 111 73 142 112 142 182 0 95 -78 173 -161 162 l-39 -5 0 48 c0 47 1 49 52 81 97 62 121 103 110 180 -6 43 -58 91 -117 110 l-50 15 3 70 c2 38 7 73 12 78 11 11 98 25 119 19 8 -2 263 -4 567 -4z"/>
 <path d="M932 1240 c-15 -25 -17 -266 -2 -275 6 -4 54 20 107 52 177 107 163 104 240 52 23 -16 45 -29 48 -29 4 0 19 -8 33 -19 39 -27 101 -61 112 -61 15 0 13 273 -2 288 -9 9 -82 12 -268 12 -244 0 -256 -1 -268 -20z"/>
 <path d="M1142 1005 c-70 -53 -77 -66 -53 -97 l19 -22 40 28 c23 15 46 25 51 21 6 -3 39 -43 73 -88 33 -45 65 -86 69 -91 9 -10 59 19 59 34 0 5 -28 47 -62 93 -35 46 -76 102 -93 125 -16 23 -33 42 -37 42 -3 0 -33 -20 -66 -45z"/>
 </g>
<g id="layer111" fill="#d2b6a8" stroke="none">
 <path d="M0 1680 l0 -1680 1320 0 1320 0 0 1680 0 1681 -200 -1 -199 -2 -3 -86 -3 -87 -595 0 -595 0 -3 87 -3 87 -519 1 -520 0 0 -1680z m1276 869 c486 1 555 -1 568 -15 14 -13 16 -58 17 -307 1 -380 2 -369 -21 -464 -11 -46 -29 -122 -40 -170 -12 -49 -25 -104 -30 -124 -22 -81 -4 -140 56 -185 l34 -26 0 -524 0 -523 -22 -15 c-17 -12 -50 -16 -146 -16 l-123 0 -20 34 c-38 66 -40 66 -330 66 l-262 0 -34 -26 c-19 -14 -38 -37 -43 -50 -9 -24 -12 -24 -133 -24 -95 0 -128 4 -145 16 l-22 15 0 449 0 448 83 53 c212 135 219 143 219 231 -1 38 -7 58 -27 84 -54 71 -128 83 -210 34 -27 -16 -53 -30 -57 -30 -5 0 -8 21 -8 48 0 46 1 48 58 85 111 73 142 112 142 182 0 95 -78 173 -161 162 l-39 -5 0 48 c0 47 1 49 52 81 97 62 121 103 110 180 -6 43 -58 91 -117 110 l-50 15 3 70 c2 38 7 73 12 78 11 11 98 25 119 19 8 -2 263 -4 567 -4z"/>
 <path d="M932 1240 c-15 -25 -17 -266 -2 -275 6 -4 54 20 107 52 177 107 163 104 240 52 23 -16 45 -29 48 -29 4 0 19 -8 33 -19 39 -27 101 -61 112 -61 15 0 13 273 -2 288 -9 9 -82 12 -268 12 -244 0 -256 -1 -268 -20z"/>
 <path d="M1142 1005 c-70 -53 -77 -66 -53 -97 l19 -22 40 28 c23 15 46 25 51 21 6 -3 39 -43 73 -88 33 -45 65 -86 69 -91 9 -10 59 19 59 34 0 5 -28 47 -62 93 -35 46 -76 102 -93 125 -16 23 -33 42 -37 42 -3 0 -33 -20 -66 -45z"/>
 </g>
<g id="layer112" fill="#f0a69b" stroke="none">
 <path d="M0 1680 l0 -1680 1320 0 1320 0 0 1680 0 1681 -200 -1 -199 -2 -3 -86 -3 -87 -595 0 -595 0 -3 87 -3 87 -519 1 -520 0 0 -1680z m805 933 c-58 -30 -103 -63 -86 -63 22 0 1021 0 1034 0 8 0 7 4 -3 10 -11 7 -4 10 26 10 57 0 98 -32 90 -71 -3 -16 -1 -31 4 -34 6 -3 10 -15 10 -26 0 -12 -4 -17 -11 -13 -8 4 -10 -83 -9 -312 1 -193 -3 -335 -9 -359 -5 -22 -13 -53 -16 -70 -3 -16 -10 -46 -15 -65 -5 -19 -13 -55 -19 -80 -5 -25 -15 -67 -21 -95 -14 -61 3 -112 50 -147 l30 -22 0 -532 0 -533 -22 -15 c-17 -12 -50 -16 -146 -16 l-123 0 -20 34 c-38 66 -40 66 -330 66 l-262 0 -34 -26 c-19 -14 -38 -37 -43 -50 -9 -24 -12 -24 -134 -24 -103 0 -127 3 -145 17 -21 18 -21 23 -22 472 l0 454 48 30 c226 141 243 158 243 236 0 54 -35 104 -87 126 -49 21 -64 19 -129 -15 -32 -16 -61 -27 -65 -22 -4 4 -9 29 -10 57 l-3 50 79 55 c113 79 141 147 94 230 -32 57 -91 84 -146 66 -20 -6 -21 -3 -25 59 l-3 66 62 40 c75 49 93 75 93 133 0 65 -45 108 -130 125 -45 9 -60 16 -56 26 2 7 7 30 10 49 3 20 8 52 11 71 6 38 43 65 89 65 14 0 45 10 68 23 51 26 97 44 118 45 8 1 -7 -11 -35 -25z"/>
 <path d="M932 1240 c-15 -25 -17 -266 -2 -275 6 -4 54 20 107 52 177 107 163 104 240 52 23 -16 45 -29 48 -29 4 0 19 -8 33 -19 39 -27 101 -61 112 -61 15 0 13 273 -2 288 -9 9 -82 12 -268 12 -244 0 -256 -1 -268 -20z"/>
 <path d="M1142 1005 c-70 -53 -77 -66 -53 -97 l19 -22 40 28 c23 15 46 25 51 21 6 -3 39 -43 73 -88 33 -45 65 -86 69 -91 9 -10 59 19 59 34 0 5 -28 47 -62 93 -35 46 -76 102 -93 125 -16 23 -33 42 -37 42 -3 0 -33 -20 -66 -45z"/>
 </g>
<g id="layer113" fill="#b3c9b9" stroke="none">
 <path d="M0 1680 l0 -1680 1320 0 1320 0 0 1680 0 1681 -200 -1 -200 -2 0 -89 0 -89 -64 0 c-44 0 -69 -5 -80 -15 -12 -13 -76 -15 -449 -15 -339 0 -436 3 -439 13 -3 8 -34 14 -89 17 l-84 5 -3 87 -3 87 -514 1 -515 0 0 -1680z m805 933 c-58 -30 -103 -63 -86 -63 22 0 1021 0 1034 0 8 0 7 4 -3 10 -11 7 -4 10 26 10 57 0 98 -32 90 -71 -3 -16 -1 -31 4 -34 6 -3 10 -15 10 -26 0 -12 -4 -17 -11 -13 -8 4 -10 -83 -9 -312 1 -193 -3 -335 -9 -359 -5 -22 -13 -53 -16 -70 -3 -16 -10 -46 -15 -65 -5 -19 -13 -55 -19 -80 -5 -25 -15 -67 -21 -95 -14 -61 3 -112 50 -147 l30 -22 0 -532 0 -533 -22 -15 c-17 -12 -50 -16 -146 -16 l-123 0 -20 34 c-38 66 -40 66 -330 66 l-262 0 -34 -26 c-19 -14 -38 -37 -43 -50 -9 -24 -12 -24 -134 -24 -103 0 -127 3 -145 17 -21 18 -21 23 -22 472 l0 454 48 30 c226 141 243 158 243 236 0 54 -35 104 -87 126 -49 21 -64 19 -129 -15 -32 -16 -61 -27 -65 -22 -4 4 -9 29 -10 57 l-3 50 79 55 c113 79 141 147 94 230 -32 57 -91 84 -146 66 -20 -6 -21 -3 -25 59 l-3 66 62 40 c75 49 93 75 93 133 0 65 -45 108 -130 125 -45 9 -60 16 -56 26 2 7 7 30 10 49 3 20 8 52 11 71 7 39 43 65 92 65 16 0 39 7 52 16 27 19 109 52 131 53 8 0 -7 -12 -35 -26z"/>
 <path d="M932 1240 c-15 -25 -17 -266 -2 -275 6 -4 54 20 107 52 177 107 163 104 240 52 23 -16 45 -29 48 -29 4 0 19 -8 33 -19 39 -27 101 -61 112 -61 15 0 13 273 -2 288 -9 9 -82 12 -268 12 -244 0 -256 -1 -268 -20z"/>
 <path d="M1142 1005 c-70 -53 -77 -66 -53 -97 l19 -22 40 28 c23 15 46 25 51 21 6 -3 39 -43 73 -88 33 -45 65 -86 69 -91 9 -10 59 19 59 34 0 5 -28 47 -62 93 -35 46 -76 102 -93 125 -16 23 -33 42 -37 42 -3 0 -33 -20 -66 -45z"/>
 </g>
<g id="layer114" fill="#d4c4bb" stroke="none">
 <path d="M0 1680 l0 -1680 1320 0 1320 0 0 1680 0 1681 -200 -1 -200 -2 0 -89 0 -89 -64 0 c-44 0 -69 -5 -80 -15 -12 -13 -76 -15 -449 -15 -339 0 -436 3 -439 13 -3 8 -34 14 -89 17 l-84 5 -3 87 -3 87 -514 1 -515 0 0 -1680z m798 930 c-67 -35 -77 -47 -46 -55 32 -8 963 1 1018 10 38 6 50 3 74 -16 22 -17 27 -28 22 -49 -2 -15 0 -32 6 -38 8 -8 8 -23 -2 -54 -9 -32 -12 -118 -10 -328 2 -183 -1 -299 -8 -325 -6 -22 -14 -53 -17 -70 -3 -16 -10 -46 -15 -65 -5 -19 -13 -55 -19 -80 -5 -25 -15 -67 -21 -95 -14 -61 3 -112 50 -147 l30 -22 0 -532 0 -533 -22 -15 c-17 -12 -50 -16 -146 -16 l-123 0 -20 34 c-38 66 -40 66 -330 66 l-262 0 -34 -26 c-19 -14 -38 -37 -43 -50 -9 -24 -12 -24 -134 -24 -103 0 -127 3 -145 17 -20 18 -21 24 -22 472 l-1 454 49 30 c226 141 243 158 243 236 0 54 -35 104 -87 126 -50 21 -63 19 -132 -16 -34 -18 -63 -30 -65 -28 -2 2 -6 28 -8 58 l-3 55 80 56 c113 79 141 147 94 230 -32 57 -91 84 -146 66 -20 -6 -21 -3 -25 59 l-3 66 62 40 c75 49 93 75 93 133 0 65 -45 108 -130 125 -45 9 -60 16 -56 26 2 7 7 30 10 49 3 20 8 52 11 71 7 39 43 65 92 65 16 0 39 7 52 16 27 19 109 52 131 53 8 0 -11 -13 -42 -29z"/>
 <path d="M932 1240 c-15 -25 -17 -266 -2 -275 6 -4 54 20 107 52 177 107 163 104 240 52 23 -16 45 -29 48 -29 4 0 19 -8 33 -19 39 -27 101 -61 112 -61 15 0 13 273 -2 288 -9 9 -82 12 -268 12 -244 0 -256 -1 -268 -20z"/>
 <path d="M1142 1005 c-70 -53 -77 -66 -53 -97 l19 -22 41 28 c49 34 47 36 133 -80 34 -46 65 -84 69 -84 4 0 17 9 30 19 27 22 29 16 -41 109 -25 32 -63 85 -85 116 -22 31 -43 56 -47 56 -3 0 -33 -20 -66 -45z"/>
 </g>
<g id="layer115" fill="#f4b9ae" stroke="none">
 <path d="M0 1680 l0 -1680 1320 0 1320 0 0 1680 0 1681 -200 -1 -200 -2 0 -89 0 -89 -67 -1 c-47 0 -62 -3 -48 -9 11 -5 15 -9 8 -9 -6 -1 -16 -13 -21 -28 l-10 -28 -2 35 c-1 19 -4 29 -7 23 -4 -10 -102 -13 -443 -13 -342 0 -439 3 -442 13 -3 8 -34 14 -89 17 l-84 5 -3 87 -3 87 -514 1 -515 0 0 -1680z m1197 1453 c-4 -3 -7 0 -7 7 0 7 3 10 7 7 3 -4 3 -10 0 -14z m-342 -503 c-3 -5 -12 -10 -18 -10 -21 0 -97 -45 -94 -55 5 -14 967 -19 981 -5 18 18 91 11 121 -11 21 -17 26 -28 21 -49 -2 -15 -1 -31 3 -36 5 -5 11 -27 14 -49 4 -23 3 -34 -2 -26 -20 31 -23 -24 -21 -303 2 -187 -1 -305 -8 -331 -6 -22 -14 -53 -17 -70 -3 -16 -10 -46 -15 -65 -5 -19 -13 -55 -19 -80 -5 -25 -15 -67 -21 -95 -14 -61 3 -110 50 -147 l31 -25 0 -529 c-1 -525 -1 -529 -22 -546 -18 -15 -42 -18 -145 -18 l-125 0 -20 34 c-38 66 -40 66 -330 66 l-262 0 -34 -26 c-19 -14 -38 -37 -43 -50 -9 -24 -12 -24 -133 -24 -95 0 -128 4 -145 16 l-22 15 0 434 c0 279 -4 436 -10 440 -18 11 7 39 67 75 123 73 203 132 218 160 37 72 4 163 -72 195 -51 21 -65 19 -139 -20 -36 -19 -66 -35 -67 -35 -1 0 -2 28 -2 62 l0 62 80 56 c113 79 141 146 94 230 -32 57 -81 79 -152 68 -15 -3 -18 6 -21 59 l-2 63 62 41 c76 49 94 75 94 133 0 63 -45 108 -124 124 -31 6 -63 9 -71 6 -12 -5 -12 0 -5 28 5 18 14 42 19 53 5 11 12 37 16 57 7 42 42 68 92 68 16 0 39 7 52 16 48 34 161 68 146 44z"/>
 <path d="M932 1240 c-15 -25 -17 -266 -2 -275 6 -4 54 20 107 52 177 107 163 104 240 52 23 -16 45 -29 48 -29 4 0 19 -8 33 -19 39 -27 101 -61 112 -61 15 0 13 273 -2 288 -9 9 -82 12 -268 12 -244 0 -256 -1 -268 -20z"/>
 <path d="M1142 1005 c-70 -53 -77 -66 -53 -97 l19 -22 41 28 c49 34 47 36 133 -80 34 -46 65 -84 69 -84 4 0 17 9 30 19 27 22 29 16 -41 109 -25 32 -63 85 -85 116 -22 31 -43 56 -47 56 -3 0 -33 -20 -66 -45z"/>
 </g>
<g id="layer116" fill="#f3c4bb" stroke="none">
 <path d="M0 1680 l0 -1680 1320 0 1320 0 0 1680 0 1681 -200 -1 -200 -2 0 -89 0 -89 -46 0 c-48 0 -84 -25 -84 -57 0 -7 -4 -13 -10 -13 -6 0 -10 -84 -10 -232 l0 -232 58 -56 c63 -61 95 -117 113 -201 14 -69 11 -97 -31 -259 -5 -19 -14 -57 -20 -85 -7 -27 -16 -66 -20 -85 -5 -19 -14 -57 -20 -85 -7 -27 -16 -68 -22 -90 -5 -22 -13 -58 -18 -80 -5 -22 -14 -60 -20 -85 -6 -25 -15 -63 -20 -85 -5 -22 -13 -58 -18 -80 -6 -22 -13 -55 -18 -74 -4 -19 -24 -51 -46 -73 -34 -34 -44 -38 -87 -38 -42 0 -49 -3 -55 -22 -3 -13 -6 -251 -6 -530 l0 -507 -22 -15 c-17 -12 -50 -16 -146 -16 l-123 0 -20 34 c-38 66 -40 66 -330 66 l-262 0 -34 -26 c-19 -14 -38 -37 -43 -50 -9 -24 -12 -24 -133 -24 -95 0 -128 4 -145 16 l-22 15 0 434 c0 283 -4 436 -10 440 -6 4 -8 11 -5 16 12 18 -7 8 -82 -43 -69 -46 -83 -51 -132 -52 -91 -1 -141 48 -141 136 0 62 27 88 210 210 119 79 156 109 158 127 5 33 -7 91 -18 91 -5 0 -32 -17 -60 -38 -68 -51 -126 -82 -156 -82 -68 0 -134 70 -134 144 0 77 18 98 180 208 184 126 185 127 188 178 3 64 -8 78 -44 53 -45 -30 -121 -63 -149 -63 -30 0 -94 34 -117 63 -21 27 -24 114 -4 140 7 9 69 54 137 100 96 64 125 88 127 107 2 14 11 40 19 57 8 18 12 40 9 50 -4 9 -1 40 6 67 16 65 99 152 179 189 112 51 323 107 404 107 60 0 67 17 62 149 -8 186 -5 181 -101 181 l-73 0 -7 82 c-4 44 -9 85 -12 90 -3 4 -232 8 -510 8 l-504 0 0 -1680z m526 -1135 c-9 -25 -100 -60 -153 -59 -46 0 -57 4 -88 34 -32 31 -35 39 -35 91 0 74 13 89 150 179 62 40 115 80 118 89 7 17 15 -316 8 -334z"/>
 <path d="M920 2659 c-121 -51 -181 -82 -177 -94 2 -6 176 -11 489 -13 549 -3 559 -1 443 57 -36 19 -82 38 -103 44 -50 15 -618 20 -652 6z"/>
 <path d="M1866 2393 c-8 -9 -6 -428 2 -483 l8 -45 17 75 c10 41 23 95 30 120 16 60 16 245 -1 262 -6 6 -12 19 -12 28 0 18 -35 52 -44 43z"/>
 <path d="M932 1240 c-15 -25 -17 -266 -2 -275 6 -4 54 20 107 52 177 107 163 104 240 52 23 -16 45 -29 48 -29 4 0 19 -8 33 -19 39 -27 101 -61 112 -61 15 0 13 273 -2 288 -9 9 -82 12 -268 12 -244 0 -256 -1 -268 -20z"/>
 <path d="M1142 1005 c-70 -53 -77 -66 -53 -97 l19 -22 41 28 c49 34 47 36 133 -80 34 -46 65 -84 69 -84 4 0 17 9 30 19 27 22 29 16 -41 109 -25 32 -63 85 -85 116 -22 31 -43 56 -47 56 -3 0 -33 -20 -66 -45z"/>
 </g>
<g id="layer117" fill="#d1e1da" stroke="none">
 <path d="M0 1680 l0 -1680 1320 0 1320 0 0 1680 0 1680 -193 -2 -192 -3 -5 -90 -5 -90 -58 -5 c-33 -3 -62 -11 -66 -19 -5 -7 -12 -121 -16 -253 l-7 -240 58 -57 c127 -121 150 -241 90 -471 -15 -58 -36 -142 -47 -187 -61 -260 -66 -281 -104 -450 -33 -143 -38 -156 -77 -195 -37 -37 -57 -44 -118 -40 -13 1 -28 -4 -32 -11 -4 -7 -8 -242 -8 -524 l0 -512 -22 -15 c-17 -12 -50 -16 -146 -16 l-123 0 -20 34 c-38 66 -40 66 -330 66 l-262 0 -34 -26 c-19 -14 -38 -37 -43 -50 -9 -24 -12 -24 -133 -24 -95 0 -128 4 -145 16 l-22 15 0 434 c0 291 -3 436 -10 440 -6 4 -39 -11 -73 -34 -75 -48 -107 -61 -154 -61 -81 0 -143 63 -143 145 0 79 17 97 206 221 165 110 174 117 174 147 0 50 -12 61 -41 39 -66 -52 -165 -102 -198 -102 -110 0 -179 136 -120 239 18 32 148 132 325 249 29 19 34 28 34 62 0 47 -10 55 -41 32 -38 -29 -116 -62 -148 -62 -40 0 -91 23 -123 57 -35 37 -44 88 -23 139 14 35 34 52 149 128 124 82 133 90 143 129 6 23 9 57 6 75 -24 153 160 293 462 352 61 11 126 24 145 28 l35 7 3 125 c4 176 8 169 -86 172 l-77 3 -5 90 -5 90 -507 3 -508 2 0 -1680z m538 -979 l-3 -173 -65 -34 c-36 -18 -74 -34 -85 -33 -33 0 -107 42 -129 72 -27 37 -29 121 -3 160 22 33 269 199 280 188 4 -4 6 -85 5 -180z"/>
 <path d="M940 2649 c-115 -31 -193 -66 -191 -85 1 -12 971 -12 972 0 1 13 -63 48 -131 71 -48 17 -90 19 -335 21 -155 2 -296 -1 -315 -7z"/>
 <path d="M1867 2393 c-12 -11 -8 -453 3 -453 6 0 10 2 10 4 0 2 9 41 21 86 25 102 29 228 10 290 -17 53 -35 83 -44 73z"/>
 <path d="M932 1240 c-15 -25 -17 -266 -2 -275 6 -4 54 20 107 52 177 107 163 104 240 52 23 -16 45 -29 48 -29 4 0 19 -8 33 -19 39 -27 101 -61 112 -61 15 0 13 273 -2 288 -9 9 -82 12 -268 12 -244 0 -256 -1 -268 -20z"/>
 <path d="M1142 1005 c-70 -53 -77 -66 -53 -97 l19 -22 41 28 c49 34 47 36 133 -80 34 -46 65 -84 69 -84 4 0 17 9 30 19 27 22 29 16 -41 109 -25 32 -63 85 -85 116 -22 31 -43 56 -47 56 -3 0 -33 -20 -66 -45z"/>
 </g>
<g id="layer118" fill="#d8efe7" stroke="none">
 <path d="M0 1680 l0 -1680 1320 0 1320 0 0 1680 0 1680 -193 -2 -192 -3 -5 -90 -5 -90 -51 -3 c-50 -3 -52 -4 -58 -37 -4 -18 -11 -35 -15 -37 -5 -2 -12 -101 -16 -221 l-8 -219 59 -56 c127 -122 150 -242 90 -472 -15 -58 -36 -142 -47 -187 -61 -260 -66 -281 -104 -450 -33 -143 -38 -156 -77 -195 -37 -37 -57 -44 -118 -40 -13 1 -28 -4 -32 -11 -4 -7 -8 -241 -7 -522 0 -497 0 -510 -20 -526 -24 -20 -214 -35 -252 -20 -15 5 -36 26 -47 45 -13 22 -29 36 -41 36 -11 0 -22 4 -25 8 -3 5 -121 9 -262 10 l-257 2 -33 -25 c-18 -14 -39 -38 -46 -53 l-14 -27 -119 3 c-157 4 -165 9 -165 102 0 38 -4 72 -10 75 -13 8 -13 92 0 100 16 10 13 576 -3 608 l-14 26 -52 -35 c-69 -46 -112 -64 -157 -64 -82 0 -144 62 -144 145 0 78 17 97 198 216 135 89 169 116 176 140 7 23 6 34 -6 45 -13 13 -21 11 -74 -24 -32 -21 -73 -47 -91 -56 -96 -49 -203 24 -203 138 0 77 26 110 157 201 209 145 223 157 223 197 0 34 -23 47 -48 26 -29 -25 -110 -58 -141 -58 -40 0 -91 23 -123 57 -35 37 -44 88 -23 139 13 34 34 52 139 122 95 63 123 87 119 100 -2 10 7 29 21 45 20 22 24 33 19 62 -25 155 157 295 462 355 61 11 126 24 145 28 l35 7 3 125 c4 176 8 169 -86 172 l-77 3 -5 90 -5 90 -507 3 -508 2 0 -1680z m538 -988 l-3 -164 -65 -34 c-36 -18 -74 -34 -85 -33 -33 0 -107 42 -129 72 -27 37 -29 121 -3 161 10 15 70 61 134 103 63 42 117 82 119 89 14 47 17 48 26 10 4 -22 7 -114 6 -204z m755 -459 c-40 -2 -106 -2 -145 0 -40 1 -8 3 72 3 80 0 112 -2 73 -3z"/>
 <path d="M940 2650 c-71 -19 -106 -32 -147 -52 -34 -17 -41 -24 -32 -35 10 -11 96 -13 482 -11 326 2 471 6 474 14 4 12 -55 43 -132 71 -43 15 -91 18 -330 20 -154 1 -296 -2 -315 -7z"/>
 <path d="M1865 2389 c-10 -26 -1 -419 10 -422 16 -4 45 131 47 223 3 84 -11 152 -39 194 -10 16 -13 17 -18 5z"/>
 <path d="M947 1242 l-28 -17 3 -129 c3 -136 10 -154 45 -119 25 26 69 53 87 53 7 0 16 6 19 13 3 6 22 21 43 32 22 10 46 25 54 32 13 10 27 7 83 -21 37 -18 75 -40 84 -48 10 -9 34 -23 53 -32 19 -8 43 -21 52 -28 9 -7 19 -10 22 -8 8 8 10 266 2 278 -5 9 -76 12 -249 12 -211 0 -246 -3 -270 -18z"/>
 <path d="M1172 1020 c-7 -11 -18 -20 -26 -20 -8 0 -16 -7 -20 -15 -3 -8 -12 -15 -20 -15 -26 0 -37 -34 -20 -58 13 -19 18 -20 37 -9 12 6 26 18 30 25 11 17 67 16 67 -2 0 -8 7 -16 15 -20 8 -3 15 -12 15 -20 0 -7 7 -16 15 -20 8 -3 15 -12 15 -20 0 -7 7 -16 15 -20 8 -3 15 -12 15 -20 0 -7 7 -16 15 -20 8 -3 15 -12 15 -21 0 -18 5 -19 31 -5 23 13 25 55 4 64 -8 3 -15 10 -15 15 0 5 -13 23 -30 41 -16 18 -30 36 -30 40 0 5 -13 24 -30 42 -16 18 -30 37 -30 42 0 11 -31 35 -45 36 -6 0 -16 -9 -23 -20z"/>
 </g>
<g id="layer119" fill="#f2e2df" stroke="none">
 <path d="M0 1680 l0 -1680 1320 0 1320 0 0 1680 0 1680 -193 -2 -192 -3 -5 -90 -5 -90 -51 -3 c-50 -3 -52 -4 -58 -37 -4 -18 -11 -35 -15 -37 -5 -2 -12 -101 -16 -221 l-8 -219 59 -56 c127 -122 150 -242 90 -472 -15 -58 -36 -142 -47 -187 -61 -260 -66 -281 -104 -450 -33 -143 -38 -156 -77 -195 -37 -37 -58 -44 -122 -40 -21 2 -27 -1 -23 -12 4 -9 2 -18 -3 -21 -14 -8 -13 -802 0 -810 14 -8 13 -82 -1 -91 -8 -4 -9 -26 -5 -64 10 -84 -1 -90 -171 -90 l-133 0 -24 39 c-37 58 -59 62 -320 61 -268 -1 -295 -6 -319 -62 l-17 -38 -138 0 c-126 0 -141 2 -157 20 -27 30 -32 131 -28 540 l4 363 -28 -18 c-97 -64 -127 -78 -172 -83 -92 -9 -161 52 -161 143 0 78 17 97 198 216 l166 110 -3 42 c-1 23 -4 43 -6 45 -1 1 -29 -15 -61 -36 -33 -22 -73 -47 -91 -56 -96 -49 -203 24 -203 138 0 79 25 110 176 216 74 52 146 102 159 110 21 13 25 23 25 63 0 44 -11 60 -25 37 -10 -17 -114 -60 -144 -60 -40 0 -92 24 -123 57 -35 37 -44 88 -23 139 13 34 34 52 139 122 95 63 123 87 119 100 -2 10 7 29 21 45 20 22 24 33 19 62 -25 155 157 295 462 355 61 11 126 24 145 28 l35 7 3 125 c4 176 8 169 -86 172 l-77 3 -5 90 -5 90 -507 3 -508 2 0 -1680z m538 -988 l-3 -164 -65 -34 c-36 -18 -74 -34 -85 -33 -33 0 -107 42 -129 72 -27 37 -29 121 -3 161 10 15 70 61 134 103 63 42 117 82 119 89 14 47 17 48 26 10 4 -22 7 -114 6 -204z m755 -459 c-40 -2 -106 -2 -145 0 -40 1 -8 3 72 3 80 0 112 -2 73 -3z"/>
 <path d="M940 2650 c-71 -20 -106 -32 -149 -53 l-45 -22 248 -3 c136 -1 356 -1 489 0 l241 3 -45 22 c-111 55 -125 57 -424 60 -154 1 -296 -2 -315 -7z"/>
 <path d="M1867 2393 c-4 -3 -2 -12 4 -19 7 -8 7 -14 -1 -19 -15 -9 -14 -307 2 -323 10 -10 10 -17 0 -33 -13 -20 -8 -44 8 -34 14 9 42 155 43 234 2 73 -13 146 -38 183 -7 10 -15 15 -18 11z"/>
 <path d="M949 1223 c-11 -29 -8 -217 3 -228 4 -4 27 7 52 24 24 17 47 31 51 31 4 0 25 13 48 28 63 42 95 54 115 42 9 -6 69 -41 132 -79 l115 -68 3 125 c2 83 -1 129 -9 138 -9 11 -59 14 -255 14 l-244 0 -11 -27z"/>
 <path d="M1143 988 c-29 -22 -53 -47 -53 -55 0 -26 30 -25 66 2 34 26 36 26 55 9 11 -10 45 -53 77 -96 57 -78 69 -87 89 -67 8 8 -7 35 -53 97 -99 133 -114 152 -122 152 -4 0 -31 -19 -59 -42z"/>
 </g>
<g id="layer120" fill="#fefefe" stroke="none">
 <path d="M0 1680 l0 -1680 1320 0 1320 0 0 1680 0 1680 -179 0 -178 0 -7 -46 c-3 -26 -6 -66 -6 -90 0 -68 -5 -74 -65 -74 l-53 0 -6 -37 c-3 -21 -8 -131 -12 -246 l-6 -207 58 -63 c33 -35 65 -76 73 -92 7 -17 18 -39 23 -51 14 -31 4 -231 -15 -294 -10 -30 -33 -125 -53 -210 -19 -85 -45 -200 -58 -255 -13 -55 -34 -145 -46 -200 -27 -123 -45 -173 -73 -204 -28 -30 -104 -63 -129 -55 -47 15 -48 8 -48 -417 0 -254 4 -400 10 -404 14 -8 13 -82 -1 -91 -8 -4 -9 -26 -5 -64 10 -84 -1 -90 -171 -90 l-133 0 -24 39 c-14 21 -37 43 -53 48 -15 6 -131 11 -257 12 -273 3 -304 -3 -329 -61 l-17 -38 -138 0 c-126 0 -141 2 -157 20 -19 21 -33 125 -34 257 l-1 71 -60 -29 c-109 -53 -200 -35 -257 50 -32 47 -31 111 2 168 14 23 29 43 33 43 4 0 24 14 44 32 21 17 68 52 105 78 38 25 78 61 89 78 19 27 23 29 29 14 5 -9 11 -98 15 -197 l7 -180 1 238 c2 218 -4 276 -23 217 -7 -22 -20 -26 -30 -10 -5 8 -38 -3 -55 -20 -19 -19 -57 -30 -100 -30 -109 0 -187 100 -159 204 15 57 37 78 169 164 134 87 160 109 160 134 0 25 -19 23 -85 -12 -115 -60 -209 -23 -245 96 -10 35 -10 49 4 91 20 61 37 77 184 178 81 56 120 88 126 108 14 40 -2 51 -47 32 -51 -21 -95 -19 -147 8 -84 42 -112 125 -71 205 26 49 43 66 163 163 57 45 109 89 116 97 7 9 12 44 12 82 0 56 4 73 30 113 69 109 251 193 515 236 l100 17 3 79 c2 44 0 103 -3 132 l-6 52 -77 3 -77 3 -9 103 -8 102 -499 0 -499 0 0 -1680z m1368 -1442 c3 -17 -9 -18 -146 -18 -82 0 -152 3 -155 7 -4 3 -2 12 5 20 8 10 42 13 152 11 125 -3 141 -5 144 -20z"/>
 <path d="M880 2621 c-30 -10 -68 -25 -85 -34 -28 -15 -1 -16 440 -16 431 0 468 1 441 15 -16 9 -53 24 -84 35 -50 17 -85 19 -356 18 -260 0 -309 -3 -356 -18z"/>
 <path d="M1864 2347 c-9 -23 1 -307 10 -308 13 0 34 71 42 142 9 83 -32 217 -52 166z"/>
 <path d="M540 1980 c0 -16 5 -30 10 -30 6 0 10 14 10 30 0 17 -4 30 -10 30 -5 0 -10 -13 -10 -30z"/>
 <path d="M536 1505 c-7 -29 0 -48 15 -40 12 8 12 65 0 65 -5 0 -12 -11 -15 -25z"/>
 <path d="M949 1223 c-11 -29 -8 -217 3 -228 4 -4 27 7 52 24 24 17 47 31 51 31 4 0 25 13 48 28 63 42 95 54 115 42 9 -6 69 -41 132 -79 l115 -68 3 125 c2 83 -1 129 -9 138 -9 11 -59 14 -255 14 l-244 0 -11 -27z"/>
 <path d="M1143 988 c-29 -22 -53 -47 -53 -55 0 -26 30 -25 66 2 34 26 36 26 55 9 11 -10 45 -53 77 -96 57 -78 69 -87 89 -67 8 8 -7 35 -53 97 -99 133 -114 152 -122 152 -4 0 -31 -19 -59 -42z"/>
 </g>
</svg>